<?xml version="1.0" encoding="UTF-8"?>
<svg xmlns="http://www.w3.org/2000/svg" xmlns:xlink="http://www.w3.org/1999/xlink" width="1843pt" height="864pt" viewBox="0 0 1843 864">
<path fill="none" stroke-width="1.701" stroke-linecap="round" stroke-linejoin="round" stroke="rgb(0%, 0%, 0%)" stroke-opacity="1" stroke-miterlimit="10" d="M 641.34375 255.207031 L 629.269531 248.449219 L 625.5625 248.226562 L 612.933594 236.378906 L 593.828125 227.296875 L 601.414062 213.175781 L 600.585938 204.757812 L 606.398438 192.296875 L 663.882812 195.230469 L 663.496094 201.433594 L 667.535156 205.753906 L 669.585938 211.566406 L 677.894531 219.265625 L 678.5 224.96875 L 682.433594 229.511719 L 682.542969 232.003906 L 678.226562 234.273438 L 666.761719 232.335938 L 661.058594 234.164062 L 660.28125 236.65625 L 662.332031 243.632812 L 659.949219 247.34375 L 653.082031 246.234375 L 652.03125 249.335938 L 648.707031 250.554688 L 644.832031 254.265625 L 641.34375 255.207031 "/>
<path fill="none" stroke-width="1.701" stroke-linecap="round" stroke-linejoin="round" stroke="rgb(0%, 0%, 0%)" stroke-opacity="1" stroke-miterlimit="10" d="M 682.542969 232.003906 L 682.433594 229.511719 L 678.5 224.96875 L 677.894531 219.265625 L 669.585938 211.566406 L 667.535156 205.753906 L 663.496094 201.433594 L 663.882812 195.230469 L 742.132812 196.617188 L 736.816406 208.46875 L 731.109375 213.949219 L 733.933594 223.253906 L 732.773438 225.191406 L 728.949219 227.40625 L 728.066406 230.839844 L 724.519531 231.78125 L 720.699219 229.789062 L 717.433594 224.027344 L 710.121094 220.59375 L 707.574219 220.375 L 704.972656 221.8125 L 702.148438 221.203125 L 700.542969 222.753906 L 697.882812 221.480469 L 693.730469 223.140625 L 682.542969 232.003906 "/>
<path fill="none" stroke-width="1.701" stroke-linecap="round" stroke-linejoin="round" stroke="rgb(0%, 0%, 0%)" stroke-opacity="1" stroke-miterlimit="10" d="M 821.320312 253.765625 L 817.722656 251.605469 L 807.035156 251.21875 L 805.59375 247.730469 L 803.988281 247.398438 L 797.507812 249.167969 L 791.582031 248.339844 L 783.941406 253.101562 L 778.734375 250.832031 L 773.917969 250.941406 L 772.089844 249.835938 L 768.824219 250.941406 L 766.441406 250.332031 L 763.507812 252.660156 L 747.28125 255.261719 L 747.890625 239.203125 L 744.679688 233.941406 L 738.421875 230.671875 L 732.773438 225.191406 L 733.933594 223.253906 L 731.109375 213.949219 L 736.816406 208.46875 L 742.132812 196.617188 L 753.703125 196.949219 L 793.910156 198 L 825.03125 199.109375 L 821.875 251.164062 L 821.320312 253.765625 "/>
<path fill="none" stroke-width="1.701" stroke-linecap="round" stroke-linejoin="round" stroke="rgb(0%, 0%, 0%)" stroke-opacity="1" stroke-miterlimit="10" d="M 1608.738281 240.089844 L 1607.246094 236.875 L 1604.53125 237.207031 L 1602.539062 234.105469 L 1593.511719 234.9375 L 1581.824219 227.296875 L 1582.324219 223.640625 L 1580.550781 221.09375 L 1551.867188 198.222656 L 1587.75 198.054688 L 1602.203125 198.054688 L 1604.476562 205.644531 L 1594.230469 207.527344 L 1614.554688 219.433594 L 1615.660156 223.199219 L 1610.070312 222.53125 L 1618.984375 232.003906 L 1623.082031 221.757812 L 1623.691406 234.550781 L 1645.730469 276.691406 L 1645.953125 283.78125 L 1635.984375 277.964844 L 1625.628906 253.324219 L 1617.875 250.777344 L 1620.589844 244.574219 L 1608.738281 240.089844 "/>
<path fill="none" stroke-width="1.701" stroke-linecap="round" stroke-linejoin="round" stroke="rgb(0%, 0%, 0%)" stroke-opacity="1" stroke-miterlimit="10" d="M 1605.527344 198.113281 L 1610.566406 198.113281 L 1625.90625 200.605469 L 1623.636719 212.785156 L 1614.332031 212.066406 L 1614.554688 204.976562 L 1605.527344 198.113281 "/>
<path fill="none" stroke-width="1.701" stroke-linecap="round" stroke-linejoin="round" stroke="rgb(0%, 0%, 0%)" stroke-opacity="1" stroke-miterlimit="10" d="M 1627.679688 198.222656 L 1631.886719 198.277344 L 1650.496094 256.09375 L 1648.722656 256.8125 L 1627.679688 198.222656 "/>
<path fill="none" stroke-width="1.701" stroke-linecap="round" stroke-linejoin="round" stroke="rgb(0%, 0%, 0%)" stroke-opacity="1" stroke-miterlimit="10" d="M 1394.757812 254.042969 L 1391.714844 258.695312 L 1380.417969 259.25 L 1381.300781 267.832031 L 1378.476562 267.886719 L 1373.9375 264.289062 L 1364.414062 260.742188 L 1366.238281 254.152344 L 1360.09375 251.386719 L 1359.097656 246.789062 L 1352.894531 240.089844 L 1337.996094 243.132812 L 1334.5625 242.800781 L 1332.015625 241.03125 L 1330.578125 238.59375 L 1334.175781 230.121094 L 1334.066406 224.75 L 1320.664062 218.710938 L 1318.003906 213.007812 L 1309.53125 211.902344 L 1300.5625 212.84375 L 1273.703125 206.417969 L 1274.144531 198.777344 L 1298.015625 198.71875 L 1376.59375 198.609375 L 1401.847656 198.167969 L 1405.945312 203.539062 L 1416.964844 206.804688 L 1419.957031 211.070312 L 1418.515625 213.453125 L 1410.707031 213.339844 L 1408.605469 215.886719 L 1408.160156 222.867188 L 1394.757812 254.042969 "/>
<path fill="none" stroke-width="1.701" stroke-linecap="round" stroke-linejoin="round" stroke="rgb(0%, 0%, 0%)" stroke-opacity="1" stroke-miterlimit="10" d="M 1478.433594 255.261719 L 1436.679688 255.925781 L 1434.1875 254.984375 L 1410.265625 255.371094 L 1394.757812 254.042969 L 1408.160156 222.867188 L 1408.605469 215.886719 L 1410.707031 213.339844 L 1418.515625 213.453125 L 1419.957031 211.070312 L 1416.964844 206.804688 L 1405.945312 203.539062 L 1401.847656 198.167969 L 1446.703125 198.554688 L 1449.472656 207.414062 L 1442.882812 215.445312 L 1441.5 222.476562 L 1443.269531 225.578125 L 1446.703125 227.183594 L 1479.042969 240.863281 L 1485.082031 249.558594 L 1478.433594 255.261719 "/>
<path fill="none" stroke-width="1.701" stroke-linecap="round" stroke-linejoin="round" stroke="rgb(0%, 0%, 0%)" stroke-opacity="1" stroke-miterlimit="10" d="M 1608.738281 240.089844 L 1617.933594 262.40625 L 1613.613281 266.613281 L 1577.894531 240.863281 L 1576.066406 239.148438 L 1572.078125 238.648438 L 1568.09375 232.722656 L 1564.050781 232.28125 L 1561.777344 229.179688 L 1556.628906 227.296875 L 1553.417969 224.140625 L 1538.464844 217.492188 L 1522.074219 207.46875 L 1510.554688 198.386719 L 1522.238281 198.277344 L 1551.867188 198.222656 L 1580.550781 221.09375 L 1582.324219 223.640625 L 1581.824219 227.296875 L 1593.511719 234.9375 L 1602.539062 234.105469 L 1604.53125 237.207031 L 1607.246094 236.875 L 1608.738281 240.089844 "/>
<path fill="none" stroke-width="1.701" stroke-linecap="round" stroke-linejoin="round" stroke="rgb(0%, 0%, 0%)" stroke-opacity="1" stroke-miterlimit="10" d="M 1510.71875 236.378906 L 1503.355469 240.917969 L 1495.546875 240.863281 L 1488.402344 244.519531 L 1472.84375 233.222656 L 1446.703125 227.183594 L 1443.269531 225.578125 L 1441.5 222.476562 L 1442.882812 215.445312 L 1449.472656 207.414062 L 1446.703125 198.554688 L 1447.148438 198.554688 L 1510.554688 198.386719 L 1522.074219 207.46875 L 1521.351562 216.609375 L 1528.828125 230.507812 L 1510.71875 236.378906 "/>
<path fill="none" stroke-width="1.701" stroke-linecap="round" stroke-linejoin="round" stroke="rgb(0%, 0%, 0%)" stroke-opacity="1" stroke-miterlimit="10" d="M 1201.546875 250.664062 L 1206.140625 245.015625 L 1199.332031 200.105469 L 1247.066406 198.886719 L 1274.144531 198.777344 L 1273.703125 206.417969 L 1270.933594 208.023438 L 1268.609375 234.21875 L 1264.675781 246.898438 L 1255.097656 262.019531 L 1245.902344 259.25 L 1236.820312 258.859375 L 1232.335938 254.820312 L 1201.546875 250.664062 "/>
<path fill="none" stroke-width="1.701" stroke-linecap="round" stroke-linejoin="round" stroke="rgb(0%, 0%, 0%)" stroke-opacity="1" stroke-miterlimit="10" d="M 897.578125 252.382812 L 821.875 251.164062 L 825.03125 199.109375 L 893.589844 199.828125 L 897.855469 200.214844 L 897.578125 252.382812 "/>
<path fill="none" stroke-width="1.701" stroke-linecap="round" stroke-linejoin="round" stroke="rgb(0%, 0%, 0%)" stroke-opacity="1" stroke-miterlimit="10" d="M 985.238281 253.101562 L 988.785156 199.71875 L 1040.730469 199.328125 L 1053.578125 199.996094 L 1050.972656 255.316406 L 1033.363281 254.984375 L 985.238281 253.101562 "/>
<path fill="none" stroke-width="1.701" stroke-linecap="round" stroke-linejoin="round" stroke="rgb(0%, 0%, 0%)" stroke-opacity="1" stroke-miterlimit="10" d="M 985.238281 253.101562 L 985.238281 254.875 L 897.578125 252.382812 L 897.855469 200.214844 L 952.125 199.660156 L 988.785156 199.71875 L 985.238281 253.101562 "/>
<path fill="none" stroke-width="1.701" stroke-linecap="round" stroke-linejoin="round" stroke="rgb(0%, 0%, 0%)" stroke-opacity="1" stroke-miterlimit="10" d="M 1123.574219 285.441406 L 1116.597656 285.664062 L 1113.828125 282.339844 L 1112.71875 276.414062 L 1113.382812 255.703125 L 1115.15625 200.4375 L 1125.679688 199.996094 L 1174.964844 200.824219 L 1174.078125 203.925781 L 1167.265625 207.359375 L 1164.664062 215 L 1165.105469 265.671875 L 1168.984375 265.949219 L 1159.570312 284.613281 L 1159.183594 294.191406 L 1133.042969 284.886719 L 1123.574219 285.441406 "/>
<path fill="none" stroke-width="1.701" stroke-linecap="round" stroke-linejoin="round" stroke="rgb(0%, 0%, 0%)" stroke-opacity="1" stroke-miterlimit="10" d="M 1113.382812 255.703125 L 1087.800781 255.261719 L 1050.972656 255.316406 L 1053.578125 199.996094 L 1115.15625 200.4375 L 1113.382812 255.703125 "/>
<path fill="none" stroke-width="1.701" stroke-linecap="round" stroke-linejoin="round" stroke="rgb(0%, 0%, 0%)" stroke-opacity="1" stroke-miterlimit="10" d="M 1168.984375 265.949219 L 1165.105469 265.671875 L 1164.664062 215 L 1167.265625 207.359375 L 1174.078125 203.925781 L 1174.964844 200.824219 L 1199.332031 200.105469 L 1206.140625 245.015625 L 1201.546875 250.664062 L 1194.957031 256.8125 L 1188.808594 256.921875 L 1182.386719 268 L 1168.984375 265.949219 "/>
<path fill="none" stroke-width="1.701" stroke-linecap="round" stroke-linejoin="round" stroke="rgb(0%, 0%, 0%)" stroke-opacity="1" stroke-miterlimit="10" d="M 1374.4375 284.667969 L 1361.53125 297.625 L 1357.878906 297.402344 L 1355.664062 294.191406 L 1351.121094 292.03125 L 1340.324219 290.425781 L 1338.382812 286.828125 L 1338.273438 282.121094 L 1336.28125 281.011719 L 1325.925781 279.460938 L 1319.554688 274.257812 L 1311.859375 270.710938 L 1309.257812 271.15625 L 1305.765625 272.925781 L 1301.003906 270.765625 L 1291.367188 271.15625 L 1289.652344 272.648438 L 1276.25 271.097656 L 1270.769531 268.941406 L 1269.9375 265.230469 L 1267.003906 263.457031 L 1264.011719 264.175781 L 1260.910156 263.234375 L 1258.863281 265.285156 L 1255.097656 262.019531 L 1264.675781 246.898438 L 1268.609375 234.21875 L 1270.933594 208.023438 L 1273.703125 206.417969 L 1300.5625 212.84375 L 1309.53125 211.902344 L 1318.003906 213.007812 L 1320.664062 218.710938 L 1334.066406 224.75 L 1334.175781 230.121094 L 1330.578125 238.59375 L 1332.015625 241.03125 L 1334.5625 242.800781 L 1337.996094 243.132812 L 1352.894531 240.089844 L 1359.097656 246.789062 L 1360.09375 251.386719 L 1366.238281 254.152344 L 1364.414062 260.742188 L 1373.9375 264.289062 L 1378.476562 267.886719 L 1381.300781 267.832031 L 1385.402344 269.160156 L 1387.949219 273.535156 L 1387.671875 275.695312 L 1390.605469 278.742188 L 1378.421875 281.234375 L 1374.4375 284.667969 "/>
<path fill="none" stroke-width="1.701" stroke-linecap="round" stroke-linejoin="round" stroke="rgb(0%, 0%, 0%)" stroke-opacity="1" stroke-miterlimit="10" d="M 1557.402344 258.75 L 1552.917969 255.316406 L 1544.390625 251.996094 L 1528.828125 230.507812 L 1521.351562 216.609375 L 1522.074219 207.46875 L 1538.464844 217.492188 L 1553.417969 224.140625 L 1556.628906 227.296875 L 1561.777344 229.179688 L 1564.050781 232.28125 L 1568.09375 232.722656 L 1572.078125 238.648438 L 1576.066406 239.148438 L 1577.894531 240.863281 L 1571.582031 244.1875 L 1590.355469 265.785156 L 1585.203125 270.546875 L 1568.757812 267.777344 L 1557.402344 258.75 "/>
<path fill="none" stroke-width="1.701" stroke-linecap="round" stroke-linejoin="round" stroke="rgb(0%, 0%, 0%)" stroke-opacity="1" stroke-miterlimit="10" d="M 721.417969 290.480469 L 710.121094 293.027344 L 703.089844 291.144531 L 697.164062 292.972656 L 683.265625 292.476562 L 668.035156 298.566406 L 663.550781 293.96875 L 656.238281 290.039062 L 654.523438 286.773438 L 648.984375 285.054688 L 644.554688 282.007812 L 633.425781 279.792969 L 628.328125 276.96875 L 636.636719 272.59375 L 645.21875 262.960938 L 641.34375 255.207031 L 644.832031 254.265625 L 648.707031 250.554688 L 652.03125 249.335938 L 653.082031 246.234375 L 659.949219 247.34375 L 662.332031 243.632812 L 660.28125 236.65625 L 661.058594 234.164062 L 666.761719 232.335938 L 678.226562 234.273438 L 682.542969 232.003906 L 693.730469 223.140625 L 697.882812 221.480469 L 700.542969 222.753906 L 702.148438 221.203125 L 704.972656 221.8125 L 707.574219 220.375 L 710.121094 220.59375 L 717.433594 224.027344 L 720.699219 229.789062 L 724.519531 231.78125 L 728.066406 230.839844 L 728.949219 227.40625 L 732.773438 225.191406 L 738.421875 230.671875 L 744.679688 233.941406 L 747.890625 239.203125 L 747.28125 255.261719 L 746.726562 287.4375 L 727.011719 287.269531 L 721.417969 290.480469 "/>
<path fill="none" stroke-width="1.701" stroke-linecap="round" stroke-linejoin="round" stroke="rgb(0%, 0%, 0%)" stroke-opacity="1" stroke-miterlimit="10" d="M 582.308594 278.1875 L 580.371094 277.300781 L 579.429688 268.71875 L 574.503906 264.566406 L 568.300781 263.292969 L 565.917969 261.464844 L 564.535156 257.421875 L 566.75 249.390625 L 563.703125 245.183594 L 577.992188 237.429688 L 595.710938 238.371094 L 599.421875 237.597656 L 593.941406 232.613281 L 593.828125 227.296875 L 612.933594 236.378906 L 625.5625 248.226562 L 629.269531 248.449219 L 641.34375 255.207031 L 645.21875 262.960938 L 636.636719 272.59375 L 628.328125 276.96875 L 608.339844 275.863281 L 582.308594 278.1875 "/>
<path fill="none" stroke-width="1.701" stroke-linecap="round" stroke-linejoin="round" stroke="rgb(0%, 0%, 0%)" stroke-opacity="1" stroke-miterlimit="10" d="M 1525.230469 282.5625 L 1515.261719 281.121094 L 1508.394531 278.519531 L 1505.070312 254.210938 L 1509.226562 247.507812 L 1510.71875 236.378906 L 1528.828125 230.507812 L 1544.390625 251.996094 L 1552.917969 255.316406 L 1557.402344 258.75 L 1561.558594 277.136719 L 1525.230469 282.5625 "/>
<path fill="none" stroke-width="1.701" stroke-linecap="round" stroke-linejoin="round" stroke="rgb(0%, 0%, 0%)" stroke-opacity="1" stroke-miterlimit="10" d="M 1488.402344 244.519531 L 1495.546875 240.863281 L 1503.355469 240.917969 L 1510.71875 236.378906 L 1509.226562 247.507812 L 1505.070312 254.210938 L 1508.394531 278.519531 L 1515.261719 281.121094 L 1525.230469 282.5625 L 1535.917969 286.328125 L 1517.753906 295.410156 L 1505.183594 294.910156 L 1495.4375 285.054688 L 1498.207031 290.09375 L 1488.125 287.878906 L 1481.703125 268.941406 L 1488.402344 244.519531 "/>
<path fill="none" stroke-width="1.701" stroke-linecap="round" stroke-linejoin="round" stroke="rgb(0%, 0%, 0%)" stroke-opacity="1" stroke-miterlimit="10" d="M 558.386719 304.660156 L 554.789062 307.425781 L 557.722656 311.082031 L 557.335938 312.578125 L 550.023438 313.410156 L 547.089844 311.859375 L 539.28125 302.5 L 540.390625 295.796875 L 536.957031 290.425781 L 534.1875 278.964844 L 544.375 273.703125 L 559.828125 250.054688 L 563.703125 245.183594 L 566.75 249.390625 L 564.535156 257.421875 L 565.917969 261.464844 L 568.300781 263.292969 L 574.503906 264.566406 L 579.429688 268.71875 L 580.371094 277.300781 L 582.308594 278.1875 L 595.378906 286.328125 L 582.917969 303.71875 L 572.785156 301.945312 L 569.074219 298.566406 L 565.53125 297.625 L 561.765625 299.785156 L 558.386719 304.660156 "/>
<path fill="none" stroke-width="1.701" stroke-linecap="round" stroke-linejoin="round" stroke="rgb(0%, 0%, 0%)" stroke-opacity="1" stroke-miterlimit="10" d="M 814.34375 289.042969 L 780.007812 288.65625 L 746.726562 287.4375 L 747.28125 255.261719 L 763.507812 252.660156 L 766.441406 250.332031 L 768.824219 250.941406 L 772.089844 249.835938 L 773.917969 250.941406 L 778.734375 250.832031 L 783.941406 253.101562 L 791.582031 248.339844 L 797.507812 249.167969 L 803.988281 247.398438 L 805.59375 247.730469 L 807.035156 251.21875 L 817.722656 251.605469 L 821.320312 253.765625 L 824.035156 257.808594 L 823.316406 274.867188 L 815.007812 277.632812 L 812.683594 279.90625 L 812.128906 284.113281 L 814.34375 289.042969 "/>
<path fill="none" stroke-width="1.701" stroke-linecap="round" stroke-linejoin="round" stroke="rgb(0%, 0%, 0%)" stroke-opacity="1" stroke-miterlimit="10" d="M 1211.125 329.355469 L 1208.964844 323.542969 L 1201.601562 315.566406 L 1197.890625 316.566406 L 1192.464844 311.082031 L 1186.371094 308.699219 L 1179.894531 301.503906 L 1159.183594 294.191406 L 1159.570312 284.613281 L 1168.984375 265.949219 L 1182.386719 268 L 1188.808594 256.921875 L 1194.957031 256.8125 L 1201.546875 250.664062 L 1232.335938 254.820312 L 1236.820312 258.859375 L 1245.902344 259.25 L 1255.097656 262.019531 L 1233.054688 292.863281 L 1211.125 329.355469 "/>
<path fill="none" stroke-width="1.701" stroke-linecap="round" stroke-linejoin="round" stroke="rgb(0%, 0%, 0%)" stroke-opacity="1" stroke-miterlimit="10" d="M 895.363281 295.578125 L 880.632812 292.863281 L 864.960938 292.917969 L 864.570312 298.457031 L 842.917969 298.011719 L 843.640625 300.007812 L 834.777344 302.386719 L 829.242188 299.398438 L 828.078125 295.1875 L 822.429688 291.421875 L 819.769531 287.824219 L 816.394531 289.929688 L 814.34375 289.042969 L 812.128906 284.113281 L 812.683594 279.90625 L 815.007812 277.632812 L 823.316406 274.867188 L 824.035156 257.808594 L 821.320312 253.765625 L 821.875 251.164062 L 897.578125 252.382812 L 895.363281 295.578125 "/>
<path fill="none" stroke-width="1.701" stroke-linecap="round" stroke-linejoin="round" stroke="rgb(0%, 0%, 0%)" stroke-opacity="1" stroke-miterlimit="10" d="M 983.910156 316.011719 L 894.53125 311.414062 L 895.363281 295.578125 L 897.578125 252.382812 L 985.238281 254.875 L 983.910156 316.011719 "/>
<path fill="none" stroke-width="1.701" stroke-linecap="round" stroke-linejoin="round" stroke="rgb(0%, 0%, 0%)" stroke-opacity="1" stroke-miterlimit="10" d="M 1035.578125 320.054688 L 1037.019531 325.480469 L 983.355469 325.535156 L 983.910156 316.011719 L 985.238281 254.875 L 985.238281 253.101562 L 1033.363281 254.984375 L 1033.140625 288.210938 L 1031.203125 313.574219 L 1035.578125 320.054688 "/>
<path fill="none" stroke-width="1.701" stroke-linecap="round" stroke-linejoin="round" stroke="rgb(0%, 0%, 0%)" stroke-opacity="1" stroke-miterlimit="10" d="M 1471.679688 321.605469 L 1466.804688 317.726562 L 1462.542969 317.175781 L 1458.664062 325.757812 L 1454.789062 329.023438 L 1451.246094 329.578125 L 1450.136719 320.054688 L 1444.597656 315.347656 L 1434.910156 318.335938 L 1432.472656 321.160156 L 1424.71875 321.9375 L 1427.210938 311.859375 L 1426.046875 308.757812 L 1421.5625 308.035156 L 1417.355469 309.917969 L 1399.855469 308.867188 L 1398.582031 308.035156 L 1399.023438 298.789062 L 1395.089844 298.621094 L 1395.425781 295.742188 L 1384.292969 291.8125 L 1377.480469 288.15625 L 1374.4375 284.667969 L 1378.421875 281.234375 L 1390.605469 278.742188 L 1387.671875 275.695312 L 1387.949219 273.535156 L 1385.402344 269.160156 L 1381.300781 267.832031 L 1380.417969 259.25 L 1391.714844 258.695312 L 1394.757812 254.042969 L 1410.265625 255.371094 L 1434.1875 254.984375 L 1436.679688 255.925781 L 1478.433594 255.261719 L 1475.667969 271.097656 L 1487.515625 297.957031 L 1479.101562 307.925781 L 1486.90625 307.039062 L 1484.914062 310.859375 L 1481.316406 312.46875 L 1478.988281 317.394531 L 1475.554688 320.664062 L 1471.679688 321.605469 "/>
<path fill="none" stroke-width="1.701" stroke-linecap="round" stroke-linejoin="round" stroke="rgb(0%, 0%, 0%)" stroke-opacity="1" stroke-miterlimit="10" d="M 1075.949219 321.882812 L 1062.269531 322.546875 L 1035.578125 320.054688 L 1031.203125 313.574219 L 1033.140625 288.210938 L 1033.363281 254.984375 L 1050.972656 255.316406 L 1087.800781 255.261719 L 1075.949219 321.882812 "/>
<path fill="none" stroke-width="1.701" stroke-linecap="round" stroke-linejoin="round" stroke="rgb(0%, 0%, 0%)" stroke-opacity="1" stroke-miterlimit="10" d="M 1075.949219 321.882812 L 1087.800781 255.261719 L 1113.382812 255.703125 L 1112.71875 276.414062 L 1113.828125 282.339844 L 1116.597656 285.664062 L 1123.574219 285.441406 L 1122.796875 294.636719 L 1127.285156 291.921875 L 1129.386719 291.976562 L 1131.546875 297.183594 L 1130.996094 300.78125 L 1126.230469 308.257812 L 1121.027344 311.859375 L 1113.109375 310.859375 L 1109.617188 321.4375 L 1095.828125 321.382812 L 1075.949219 321.882812 "/>
<path fill="none" stroke-width="1.701" stroke-linecap="round" stroke-linejoin="round" stroke="rgb(0%, 0%, 0%)" stroke-opacity="1" stroke-miterlimit="10" d="M 1223.144531 345.359375 L 1219.820312 345.304688 L 1218.769531 343.035156 L 1214.78125 341.707031 L 1211.125 329.355469 L 1233.054688 292.863281 L 1255.097656 262.019531 L 1258.863281 265.285156 L 1260.910156 263.234375 L 1264.011719 264.175781 L 1267.003906 263.457031 L 1269.9375 265.230469 L 1270.769531 268.941406 L 1276.25 271.097656 L 1289.652344 272.648438 L 1291.367188 271.15625 L 1301.003906 270.765625 L 1305.765625 272.925781 L 1309.257812 271.15625 L 1286.273438 322.433594 L 1283.671875 325.8125 L 1278.6875 324.207031 L 1223.144531 345.359375 "/>
<path fill="none" stroke-width="1.701" stroke-linecap="round" stroke-linejoin="round" stroke="rgb(0%, 0%, 0%)" stroke-opacity="1" stroke-miterlimit="10" d="M 526.933594 328.804688 L 522.003906 328.804688 L 523 314.351562 L 521.503906 310.585938 L 515.304688 308.203125 L 513.308594 305.988281 L 512.753906 296.351562 L 506.886719 296.019531 L 505.390625 299.507812 L 502.125 299.230469 L 494.535156 291.480469 L 493.152344 294.636719 L 489.609375 294.191406 L 487.726562 292.199219 L 487.003906 284.28125 L 479.804688 282.785156 L 475.652344 283.339844 L 481.800781 279.238281 L 492.765625 275.085938 L 501.515625 275.363281 L 511.207031 270.65625 L 520.675781 271.984375 L 527.097656 279.628906 L 534.1875 278.964844 L 536.957031 290.425781 L 540.390625 295.796875 L 539.28125 302.5 L 547.089844 311.859375 L 550.023438 313.410156 L 550.910156 316.621094 L 549.582031 319.277344 L 541.828125 322.601562 L 530.644531 324.316406 L 526.933594 328.804688 "/>
<path fill="none" stroke-width="1.701" stroke-linecap="round" stroke-linejoin="round" stroke="rgb(0%, 0%, 0%)" stroke-opacity="1" stroke-miterlimit="10" d="M 1314.40625 355.050781 L 1303.441406 342.8125 L 1299.175781 332.457031 L 1299.621094 327.695312 L 1297.460938 325.589844 L 1286.273438 322.433594 L 1309.257812 271.15625 L 1311.859375 270.710938 L 1319.554688 274.257812 L 1325.925781 279.460938 L 1336.28125 281.011719 L 1338.273438 282.121094 L 1338.382812 286.828125 L 1340.324219 290.425781 L 1351.121094 292.03125 L 1355.664062 294.191406 L 1357.878906 297.402344 L 1361.53125 297.625 L 1372.664062 312.964844 L 1369.894531 329.414062 L 1363.027344 327.085938 L 1361.421875 329.023438 L 1359.152344 328.195312 L 1357.65625 330.628906 L 1352.78125 333.179688 L 1349.460938 332.179688 L 1343.757812 337.996094 L 1314.40625 355.050781 "/>
<path fill="none" stroke-width="1.701" stroke-linecap="round" stroke-linejoin="round" stroke="rgb(0%, 0%, 0%)" stroke-opacity="1" stroke-miterlimit="10" d="M 666.929688 332.957031 L 658.34375 340.929688 L 651.089844 339.933594 L 644.113281 335.671875 L 625.835938 336.445312 L 619.96875 329.800781 L 600.75 319.941406 L 592.5 310.695312 L 588.070312 310.472656 L 587.683594 306.597656 L 582.917969 303.71875 L 595.378906 286.328125 L 582.308594 278.1875 L 608.339844 275.863281 L 628.328125 276.96875 L 633.425781 279.792969 L 644.554688 282.007812 L 648.984375 285.054688 L 654.523438 286.773438 L 656.238281 290.039062 L 663.550781 293.96875 L 668.035156 298.566406 L 666.761719 298.566406 L 664.933594 309.199219 L 666.484375 318.667969 L 665.320312 327.199219 L 666.929688 332.957031 "/>
<path fill="none" stroke-width="1.701" stroke-linecap="round" stroke-linejoin="round" stroke="rgb(0%, 0%, 0%)" stroke-opacity="1" stroke-miterlimit="10" d="M 498.523438 350.234375 L 498.136719 346.246094 L 490.992188 342.757812 L 487.449219 338.550781 L 486.839844 331.183594 L 481.523438 329.191406 L 476.152344 329.632812 L 469.78125 317.5625 L 461.753906 313.519531 L 462.304688 305.988281 L 458.207031 301.558594 L 463.855469 297.902344 L 475.652344 283.339844 L 479.804688 282.785156 L 487.003906 284.28125 L 487.726562 292.199219 L 489.609375 294.191406 L 493.152344 294.636719 L 494.535156 291.480469 L 502.125 299.230469 L 505.390625 299.507812 L 506.886719 296.019531 L 512.753906 296.351562 L 513.308594 305.988281 L 515.304688 308.203125 L 521.503906 310.585938 L 523 314.351562 L 522.003906 328.804688 L 526.933594 328.804688 L 520.621094 332.402344 L 518.902344 339.105469 L 510.484375 346.800781 L 498.523438 350.234375 "/>
<path fill="none" stroke-width="1.701" stroke-linecap="round" stroke-linejoin="round" stroke="rgb(0%, 0%, 0%)" stroke-opacity="1" stroke-miterlimit="10" d="M 1401.679688 344.085938 L 1396.53125 340.046875 L 1387.117188 339.324219 L 1386.453125 335.171875 L 1369.894531 329.414062 L 1372.664062 312.964844 L 1361.53125 297.625 L 1374.4375 284.667969 L 1377.480469 288.15625 L 1384.292969 291.8125 L 1395.425781 295.742188 L 1395.089844 298.621094 L 1399.023438 298.789062 L 1398.582031 308.035156 L 1399.855469 308.867188 L 1417.355469 309.917969 L 1421.5625 308.035156 L 1426.046875 308.757812 L 1427.210938 311.859375 L 1424.71875 321.9375 L 1432.472656 321.160156 L 1434.910156 318.335938 L 1444.597656 315.347656 L 1450.136719 320.054688 L 1451.246094 329.578125 L 1454.789062 329.023438 L 1458.664062 325.757812 L 1462.542969 317.175781 L 1466.804688 317.726562 L 1471.679688 321.605469 L 1467.527344 330.1875 L 1467.746094 333.789062 L 1464.09375 339.710938 L 1461.878906 348.851562 L 1436.847656 358.652344 L 1404.726562 343.3125 L 1401.679688 344.085938 "/>
<path fill="none" stroke-width="1.701" stroke-linecap="round" stroke-linejoin="round" stroke="rgb(0%, 0%, 0%)" stroke-opacity="1" stroke-miterlimit="10" d="M 1093.117188 371.277344 L 1079.382812 367.289062 L 1089.960938 338.9375 L 1089.019531 337.386719 L 1095.828125 321.382812 L 1109.617188 321.4375 L 1113.109375 310.859375 L 1121.027344 311.859375 L 1126.230469 308.257812 L 1130.996094 300.78125 L 1131.546875 297.183594 L 1129.386719 291.976562 L 1127.285156 291.921875 L 1122.796875 294.636719 L 1123.574219 285.441406 L 1133.042969 284.886719 L 1159.183594 294.191406 L 1179.894531 301.503906 L 1186.371094 308.699219 L 1192.464844 311.082031 L 1197.890625 316.566406 L 1201.601562 315.566406 L 1208.964844 323.542969 L 1211.125 329.355469 L 1171.640625 350.566406 L 1131.714844 381.6875 L 1093.117188 371.277344 "/>
<path fill="none" stroke-width="1.701" stroke-linecap="round" stroke-linejoin="round" stroke="rgb(0%, 0%, 0%)" stroke-opacity="1" stroke-miterlimit="10" d="M 389.320312 305.820312 L 396.351562 305.988281 L 404.769531 310.695312 L 410.527344 304.382812 L 411.027344 298.898438 L 412.855469 296.792969 L 433.953125 287.546875 L 436.777344 287.046875 L 440.984375 289.097656 L 443.089844 292.695312 L 440.710938 296.074219 L 441.871094 303.164062 L 449.847656 304.4375 L 458.207031 301.558594 L 462.304688 305.988281 L 461.753906 313.519531 L 469.78125 317.5625 L 476.152344 329.632812 L 459.371094 332.789062 L 412.300781 350.84375 L 405.324219 352.503906 L 398.675781 351.285156 L 391.976562 354.5 L 387.269531 344.863281 L 379.40625 342.925781 L 381.011719 338.050781 L 377.523438 333.566406 L 387.4375 319.332031 L 386.105469 309.476562 L 389.320312 305.820312 "/>
<path fill="none" stroke-width="1.701" stroke-linecap="round" stroke-linejoin="round" stroke="rgb(0%, 0%, 0%)" stroke-opacity="1" stroke-miterlimit="10" d="M 773.476562 383.90625 L 764.667969 384.015625 L 732.9375 383.628906 L 733.714844 380.136719 L 731.886719 377.480469 L 737.203125 364.023438 L 724.410156 350.34375 L 715.328125 347.410156 L 712.226562 342.09375 L 705.746094 337.054688 L 716.324219 325.757812 L 725.851562 300.726562 L 721.417969 290.480469 L 727.011719 287.269531 L 746.726562 287.4375 L 780.007812 288.65625 L 777.074219 322.933594 L 766.441406 353.003906 L 773.476562 383.90625 "/>
<path fill="none" stroke-width="1.701" stroke-linecap="round" stroke-linejoin="round" stroke="rgb(0%, 0%, 0%)" stroke-opacity="1" stroke-miterlimit="10" d="M 821.210938 341.707031 L 815.5625 336.445312 L 808.863281 335.339844 L 800.777344 329.632812 L 794.519531 328.140625 L 789.699219 324.980469 L 777.074219 322.933594 L 780.007812 288.65625 L 814.34375 289.042969 L 816.394531 289.929688 L 819.769531 287.824219 L 822.429688 291.421875 L 828.078125 295.1875 L 829.242188 299.398438 L 834.777344 302.386719 L 837.824219 306.929688 L 838.046875 315.125 L 830.238281 317.175781 L 833.671875 321.714844 L 833.671875 324.039062 L 832.066406 325.09375 L 828.632812 324.152344 L 826.636719 326.753906 L 823.039062 326.644531 L 821.042969 328.140625 L 817.222656 326.199219 L 818.386719 334.5625 L 822.316406 338.328125 L 821.210938 341.707031 "/>
<path fill="none" stroke-width="1.701" stroke-linecap="round" stroke-linejoin="round" stroke="rgb(0%, 0%, 0%)" stroke-opacity="1" stroke-miterlimit="10" d="M 705.746094 337.054688 L 702.480469 334.0625 L 699.988281 327.972656 L 666.929688 332.957031 L 665.320312 327.199219 L 666.484375 318.667969 L 664.933594 309.199219 L 666.761719 298.566406 L 668.035156 298.566406 L 683.265625 292.476562 L 697.164062 292.972656 L 703.089844 291.144531 L 710.121094 293.027344 L 721.417969 290.480469 L 725.851562 300.726562 L 716.324219 325.757812 L 705.746094 337.054688 "/>
<path fill="none" stroke-width="1.701" stroke-linecap="round" stroke-linejoin="round" stroke="rgb(0%, 0%, 0%)" stroke-opacity="1" stroke-miterlimit="10" d="M 890.710938 384.238281 L 869.886719 384.292969 L 865.070312 372.054688 L 857.59375 363.136719 L 851.503906 360.976562 L 844.46875 352.78125 L 844.304688 347.300781 L 835.277344 347.910156 L 821.210938 341.707031 L 822.316406 338.328125 L 818.386719 334.5625 L 817.222656 326.199219 L 821.042969 328.140625 L 823.039062 326.644531 L 826.636719 326.753906 L 828.632812 324.152344 L 832.066406 325.09375 L 833.671875 324.039062 L 833.671875 321.714844 L 830.238281 317.175781 L 838.046875 315.125 L 837.824219 306.929688 L 834.777344 302.386719 L 843.640625 300.007812 L 842.917969 298.011719 L 864.570312 298.457031 L 864.960938 292.917969 L 880.632812 292.863281 L 895.363281 295.578125 L 894.53125 311.414062 L 890.710938 384.238281 "/>
<path fill="none" stroke-width="1.701" stroke-linecap="round" stroke-linejoin="round" stroke="rgb(0%, 0%, 0%)" stroke-opacity="1" stroke-miterlimit="10" d="M 580.484375 372.054688 L 571.789062 346.46875 L 550.523438 332.125 L 552.351562 328.859375 L 559.828125 327.199219 L 564.589844 323.597656 L 564.589844 315.789062 L 558.386719 304.660156 L 561.765625 299.785156 L 565.53125 297.625 L 569.074219 298.566406 L 572.785156 301.945312 L 582.917969 303.71875 L 587.683594 306.597656 L 588.070312 310.472656 L 592.5 310.695312 L 600.75 319.941406 L 619.96875 329.800781 L 625.835938 336.445312 L 644.113281 335.671875 L 651.089844 339.933594 L 658.34375 340.929688 L 653.195312 350.234375 L 637.246094 366.347656 L 632.316406 374.378906 L 625.449219 375.429688 L 620.910156 374.269531 L 611.050781 375.765625 L 603.851562 373.660156 L 601.96875 372.550781 L 600.972656 368.289062 L 592.332031 367.234375 L 589.453125 370.28125 L 580.484375 372.054688 "/>
<path fill="none" stroke-width="1.701" stroke-linecap="round" stroke-linejoin="round" stroke="rgb(0%, 0%, 0%)" stroke-opacity="1" stroke-miterlimit="10" d="M 1538.023438 349.957031 L 1498.09375 349.292969 L 1461.878906 348.851562 L 1464.09375 339.710938 L 1467.746094 333.789062 L 1467.527344 330.1875 L 1471.679688 321.605469 L 1475.554688 320.664062 L 1478.988281 317.394531 L 1481.316406 312.46875 L 1484.914062 310.859375 L 1486.90625 307.039062 L 1537.855469 300.671875 L 1544.554688 308.644531 L 1542.398438 314.351562 L 1546.9375 321.382812 L 1537.964844 333.953125 L 1538.023438 349.957031 "/>
<path fill="none" stroke-width="1.701" stroke-linecap="round" stroke-linejoin="round" stroke="rgb(0%, 0%, 0%)" stroke-opacity="1" stroke-miterlimit="10" d="M 1580.71875 350.34375 L 1573.132812 366.738281 L 1569.089844 368.453125 L 1557.625 365.464844 L 1561.945312 351.675781 L 1538.023438 349.957031 L 1537.964844 333.953125 L 1546.9375 321.382812 L 1542.398438 314.351562 L 1544.554688 308.644531 L 1572.46875 300.78125 L 1594.453125 303.273438 L 1605.75 310.804688 L 1596.886719 339.769531 L 1602.703125 352.671875 L 1580.71875 350.34375 "/>
<path fill="none" stroke-width="1.701" stroke-linecap="round" stroke-linejoin="round" stroke="rgb(0%, 0%, 0%)" stroke-opacity="1" stroke-miterlimit="10" d="M 580.484375 372.054688 L 577.769531 373.714844 L 576.273438 378.644531 L 572.398438 379.804688 L 553.789062 381.414062 L 547.699219 377.09375 L 541.550781 380.136719 L 527.320312 381.855469 L 517.738281 380.195312 L 500.515625 373.050781 L 496.53125 369.394531 L 501.015625 365.296875 L 497.636719 360.644531 L 496.75 354.832031 L 498.523438 350.234375 L 510.484375 346.800781 L 518.902344 339.105469 L 520.621094 332.402344 L 526.933594 328.804688 L 530.644531 324.316406 L 541.828125 322.601562 L 549.582031 319.277344 L 550.910156 316.621094 L 550.023438 313.410156 L 557.335938 312.578125 L 557.722656 311.082031 L 554.789062 307.425781 L 558.386719 304.660156 L 564.589844 315.789062 L 564.589844 323.597656 L 559.828125 327.199219 L 552.351562 328.859375 L 550.523438 332.125 L 571.789062 346.46875 L 580.484375 372.054688 "/>
<path fill="none" stroke-width="1.701" stroke-linecap="round" stroke-linejoin="round" stroke="rgb(0%, 0%, 0%)" stroke-opacity="1" stroke-miterlimit="10" d="M 943.707031 384.179688 L 890.710938 384.238281 L 894.53125 311.414062 L 983.910156 316.011719 L 983.355469 325.535156 L 980.808594 382.90625 L 943.707031 384.179688 "/>
<path fill="none" stroke-width="1.701" stroke-linecap="round" stroke-linejoin="round" stroke="rgb(0%, 0%, 0%)" stroke-opacity="1" stroke-miterlimit="10" d="M 980.808594 382.90625 L 983.355469 325.535156 L 1037.019531 325.480469 L 1035.578125 320.054688 L 1062.269531 322.546875 L 1075.949219 321.882812 L 1095.828125 321.382812 L 1089.019531 337.386719 L 1089.960938 338.9375 L 1079.382812 367.289062 L 1093.117188 371.277344 L 1083.644531 382.1875 L 1072.347656 376.484375 L 1067.253906 367.734375 L 1055.679688 363.136719 L 1044.769531 371.941406 L 1042.003906 375.765625 L 1040.121094 376.207031 L 1038.957031 373.660156 L 1030.261719 379.863281 L 1028.488281 377.371094 L 1025.113281 377.648438 L 1023.394531 378.3125 L 1023.78125 380.472656 L 1020.460938 381.300781 L 1018.410156 383.40625 L 980.808594 382.90625 "/>
<path fill="none" stroke-width="1.701" stroke-linecap="round" stroke-linejoin="round" stroke="rgb(0%, 0%, 0%)" stroke-opacity="1" stroke-miterlimit="10" d="M 1244.628906 370.667969 L 1234.109375 367.957031 L 1227.460938 352.835938 L 1227.574219 348.1875 L 1223.144531 345.359375 L 1278.6875 324.207031 L 1283.671875 325.8125 L 1286.273438 322.433594 L 1297.460938 325.589844 L 1299.621094 327.695312 L 1299.175781 332.457031 L 1303.441406 342.8125 L 1314.40625 355.050781 L 1309.644531 357.933594 L 1286.992188 372.054688 L 1286.828125 370.558594 L 1255.816406 371.777344 L 1245.515625 368.453125 L 1244.628906 370.667969 "/>
<path fill="none" stroke-width="1.701" stroke-linecap="round" stroke-linejoin="round" stroke="rgb(0%, 0%, 0%)" stroke-opacity="1" stroke-miterlimit="10" d="M 849.289062 386.121094 L 773.476562 383.90625 L 766.441406 353.003906 L 777.074219 322.933594 L 789.699219 324.980469 L 794.519531 328.140625 L 800.777344 329.632812 L 808.863281 335.339844 L 815.5625 336.445312 L 821.210938 341.707031 L 835.277344 347.910156 L 844.304688 347.300781 L 844.46875 352.78125 L 851.503906 360.976562 L 857.59375 363.136719 L 865.070312 372.054688 L 869.886719 384.292969 L 849.289062 386.121094 "/>
<path fill="none" stroke-width="1.701" stroke-linecap="round" stroke-linejoin="round" stroke="rgb(0%, 0%, 0%)" stroke-opacity="1" stroke-miterlimit="10" d="M 1349.347656 399.132812 L 1343.921875 387.890625 L 1344.035156 384.511719 L 1341.042969 382.296875 L 1340.601562 379.863281 L 1335.949219 380.636719 L 1333.289062 379.585938 L 1320.996094 369.671875 L 1309.644531 357.933594 L 1314.40625 355.050781 L 1343.757812 337.996094 L 1349.460938 332.179688 L 1352.78125 333.179688 L 1357.65625 330.628906 L 1359.152344 328.195312 L 1361.421875 329.023438 L 1363.027344 327.085938 L 1369.894531 329.414062 L 1386.453125 335.171875 L 1387.117188 339.324219 L 1396.53125 340.046875 L 1401.679688 344.085938 L 1401.847656 347.246094 L 1399.246094 347.6875 L 1398.636719 349.847656 L 1402.234375 354 L 1400.132812 356.105469 L 1402.347656 361.253906 L 1406.332031 363.96875 L 1406.996094 367.84375 L 1412.148438 370.058594 L 1414.917969 376.316406 L 1407.164062 376.816406 L 1402.789062 381.855469 L 1398.746094 398.855469 L 1395.867188 403.675781 L 1390.660156 406.441406 L 1389.996094 411.039062 L 1386.507812 411.757812 L 1381.246094 407.550781 L 1370.558594 416.464844 L 1364.910156 415.46875 L 1362.195312 413.03125 L 1354.664062 410.984375 L 1349.347656 399.132812 "/>
<path fill="none" stroke-width="1.701" stroke-linecap="round" stroke-linejoin="round" stroke="rgb(0%, 0%, 0%)" stroke-opacity="1" stroke-miterlimit="10" d="M 731.886719 377.480469 L 632.316406 374.378906 L 637.246094 366.347656 L 653.195312 350.234375 L 658.34375 340.929688 L 666.929688 332.957031 L 699.988281 327.972656 L 702.480469 334.0625 L 705.746094 337.054688 L 712.226562 342.09375 L 715.328125 347.410156 L 724.410156 350.34375 L 737.203125 364.023438 L 731.886719 377.480469 "/>
<path fill="none" stroke-width="1.701" stroke-linecap="round" stroke-linejoin="round" stroke="rgb(0%, 0%, 0%)" stroke-opacity="1" stroke-miterlimit="10" d="M 502.289062 391.65625 L 490.828125 386.0625 L 482.296875 389 L 483.40625 391.710938 L 481.800781 392.765625 L 475.542969 390.714844 L 463.914062 395.089844 L 455.992188 395.144531 L 454.664062 397.914062 L 450.398438 398.136719 L 448.128906 396.144531 L 438.4375 396.253906 L 429.523438 393.152344 L 421.546875 395.976562 L 416.289062 399.742188 L 409.699219 395.535156 L 407.261719 391.4375 L 411.523438 379.417969 L 411.304688 372.605469 L 403.992188 364.410156 L 402.222656 363.746094 L 398.402344 365.1875 L 394.746094 361.199219 L 391.976562 354.5 L 398.675781 351.285156 L 405.324219 352.503906 L 412.300781 350.84375 L 459.371094 332.789062 L 476.152344 329.632812 L 481.523438 329.191406 L 486.839844 331.183594 L 487.449219 338.550781 L 490.992188 342.757812 L 498.136719 346.246094 L 498.523438 350.234375 L 496.75 354.832031 L 497.636719 360.644531 L 501.015625 365.296875 L 496.53125 369.394531 L 500.515625 373.050781 L 517.738281 380.195312 L 508.492188 382.464844 L 507.660156 388.222656 L 505.445312 390.882812 L 502.289062 391.65625 "/>
<path fill="none" stroke-width="1.701" stroke-linecap="round" stroke-linejoin="round" stroke="rgb(0%, 0%, 0%)" stroke-opacity="1" stroke-miterlimit="10" d="M 1160.84375 417.960938 L 1160.675781 414.195312 L 1149.824219 402.402344 L 1145.890625 394.703125 L 1134.261719 383.90625 L 1130.664062 382.742188 L 1131.714844 381.6875 L 1171.640625 350.566406 L 1211.125 329.355469 L 1214.78125 341.707031 L 1218.769531 343.035156 L 1219.820312 345.304688 L 1223.144531 345.359375 L 1227.574219 348.1875 L 1227.460938 352.835938 L 1234.109375 367.957031 L 1244.628906 370.667969 L 1230.34375 397.804688 L 1228.460938 411.648438 L 1224.804688 413.640625 L 1219.210938 413.699219 L 1214.226562 418.015625 L 1208.746094 417.574219 L 1201.324219 424.109375 L 1182.441406 429.644531 L 1168.816406 427.761719 L 1160.84375 417.960938 "/>
<path fill="none" stroke-width="1.701" stroke-linecap="round" stroke-linejoin="round" stroke="rgb(0%, 0%, 0%)" stroke-opacity="1" stroke-miterlimit="10" d="M 416.289062 399.742188 L 400.449219 417.851562 L 385.21875 422.28125 L 379.128906 419.125 L 373.535156 410.652344 L 364.066406 404.726562 L 362.792969 401.679688 L 355.371094 394.703125 L 348.226562 392.875 L 345.734375 388.003906 L 338.8125 383.019531 L 343.132812 376.097656 L 338.980469 370.558594 L 339.367188 363.414062 L 336.378906 360.8125 L 338.261719 356.324219 L 332.832031 352.394531 L 325.023438 351.398438 L 326.078125 349.679688 L 327.738281 346.578125 L 338.09375 344.695312 L 345.460938 338.714844 L 350 338.496094 L 360.300781 335.171875 L 373.203125 336.722656 L 377.523438 333.566406 L 381.011719 338.050781 L 379.40625 342.925781 L 387.269531 344.863281 L 391.976562 354.5 L 394.746094 361.199219 L 398.402344 365.1875 L 402.222656 363.746094 L 403.992188 364.410156 L 411.304688 372.605469 L 411.523438 379.417969 L 407.261719 391.4375 L 409.699219 395.535156 L 416.289062 399.742188 "/>
<path fill="none" stroke-width="1.701" stroke-linecap="round" stroke-linejoin="round" stroke="rgb(0%, 0%, 0%)" stroke-opacity="1" stroke-miterlimit="10" d="M 1648.722656 256.8125 L 1650.496094 256.09375 L 1690.921875 334.175781 L 1662.953125 287.878906 L 1656.199219 287.769531 L 1648.722656 256.8125 "/>
<path fill="none" stroke-width="1.701" stroke-linecap="round" stroke-linejoin="round" stroke="rgb(0%, 0%, 0%)" stroke-opacity="1" stroke-miterlimit="10" d="M 1629.5625 361.976562 L 1626.625 355.882812 L 1606.578125 355.273438 L 1612.503906 315.679688 L 1642.574219 310.25 L 1654.757812 319.832031 L 1658.246094 355.992188 L 1649.441406 371.277344 L 1629.5625 361.976562 "/>
<path fill="none" stroke-width="1.701" stroke-linecap="round" stroke-linejoin="round" stroke="rgb(0%, 0%, 0%)" stroke-opacity="1" stroke-miterlimit="10" d="M 1700.445312 355.050781 L 1692.914062 337.609375 L 1706.480469 364.410156 L 1694.1875 433.414062 L 1654.703125 440.113281 L 1664.949219 432.136719 L 1695.074219 423.941406 L 1703.214844 373.824219 L 1700.445312 355.050781 "/>
<path fill="none" stroke-width="1.701" stroke-linecap="round" stroke-linejoin="round" stroke="rgb(0%, 0%, 0%)" stroke-opacity="1" stroke-miterlimit="10" d="M 1414.917969 376.316406 L 1412.148438 370.058594 L 1406.996094 367.84375 L 1406.332031 363.96875 L 1402.347656 361.253906 L 1400.132812 356.105469 L 1402.234375 354 L 1398.636719 349.847656 L 1399.246094 347.6875 L 1401.847656 347.246094 L 1401.679688 344.085938 L 1404.726562 343.3125 L 1436.847656 358.652344 L 1461.878906 348.851562 L 1498.09375 349.292969 L 1502.523438 356.160156 L 1502.691406 361.308594 L 1506.621094 365.851562 L 1514.820312 368.566406 L 1518.472656 371.5 L 1523.125 377.8125 L 1497.320312 381.632812 L 1498.980469 396.199219 L 1485.46875 400.792969 L 1414.917969 376.316406 "/>
<path fill="none" stroke-width="1.701" stroke-linecap="round" stroke-linejoin="round" stroke="rgb(0%, 0%, 0%)" stroke-opacity="1" stroke-miterlimit="10" d="M 1501.527344 425.4375 L 1496.988281 431.75 L 1459.71875 435.296875 L 1451.410156 429.203125 L 1398.746094 398.855469 L 1402.789062 381.855469 L 1407.164062 376.816406 L 1414.917969 376.316406 L 1436.238281 396.476562 L 1487.296875 411.703125 L 1501.527344 425.4375 "/>
<path fill="none" stroke-width="1.701" stroke-linecap="round" stroke-linejoin="round" stroke="rgb(0%, 0%, 0%)" stroke-opacity="1" stroke-miterlimit="10" d="M 312.175781 417.1875 L 295.730469 417.90625 L 287.144531 422.113281 L 250.652344 425.546875 L 248.714844 422.78125 L 248.878906 419.179688 L 258.625 414.582031 L 264.882812 409.601562 L 268.152344 402.734375 L 267.042969 398.027344 L 258.960938 396.417969 L 255.191406 399.1875 L 239.023438 395.589844 L 219.53125 394.039062 L 215.101562 391.933594 L 206.238281 394.261719 L 201.863281 393.097656 L 209.785156 389.386719 L 214.878906 383.351562 L 223.90625 381.855469 L 233.539062 375.929688 L 251.761719 373.714844 L 262.226562 372.496094 L 271.585938 375.429688 L 281.386719 374.65625 L 289.75 368.011719 L 302.375 363.027344 L 310.183594 358.097656 L 318.101562 357.542969 L 325.023438 351.398438 L 332.832031 352.394531 L 338.261719 356.324219 L 336.378906 360.8125 L 339.367188 363.414062 L 338.980469 370.558594 L 343.132812 376.097656 L 338.8125 383.019531 L 330.785156 382.851562 L 327.128906 383.960938 L 316.054688 391.710938 L 308.410156 393.042969 L 306.363281 400.574219 L 312.507812 409.324219 L 312.175781 417.1875 "/>
<path fill="none" stroke-width="1.701" stroke-linecap="round" stroke-linejoin="round" stroke="rgb(0%, 0%, 0%)" stroke-opacity="1" stroke-miterlimit="10" d="M 1290.703125 409.210938 L 1290.925781 402.621094 L 1286.21875 398.746094 L 1286.992188 372.054688 L 1309.644531 357.933594 L 1320.996094 369.671875 L 1333.289062 379.585938 L 1335.949219 380.636719 L 1340.601562 379.863281 L 1341.042969 382.296875 L 1344.035156 384.511719 L 1343.921875 387.890625 L 1349.347656 399.132812 L 1345.695312 401.625 L 1338.550781 399.742188 L 1338.164062 402.566406 L 1334.34375 406.277344 L 1323.15625 408.878906 L 1315.347656 413.585938 L 1312.082031 412.480469 L 1309.589844 408.269531 L 1298.566406 409.65625 L 1290.703125 409.210938 "/>
<path fill="none" stroke-width="1.701" stroke-linecap="round" stroke-linejoin="round" stroke="rgb(0%, 0%, 0%)" stroke-opacity="1" stroke-miterlimit="10" d="M 1046.875 419.84375 L 1032.367188 412.757812 L 1028.765625 404.171875 L 1025.5 401.347656 L 1021.679688 400.296875 L 1020.515625 394.980469 L 1014.976562 390.4375 L 1018.300781 386.671875 L 1018.410156 383.40625 L 1020.460938 381.300781 L 1023.78125 380.472656 L 1023.394531 378.3125 L 1025.113281 377.648438 L 1028.488281 377.371094 L 1030.261719 379.863281 L 1038.957031 373.660156 L 1040.121094 376.207031 L 1042.003906 375.765625 L 1044.769531 371.941406 L 1055.679688 363.136719 L 1067.253906 367.734375 L 1072.347656 376.484375 L 1083.644531 382.1875 L 1046.875 419.84375 "/>
<path fill="none" stroke-width="1.701" stroke-linecap="round" stroke-linejoin="round" stroke="rgb(0%, 0%, 0%)" stroke-opacity="1" stroke-miterlimit="10" d="M 553.015625 440.390625 L 554.234375 429.921875 L 538.839844 416.523438 L 533.078125 413.640625 L 526.324219 404.949219 L 520.507812 403.453125 L 502.234375 404.117188 L 498.632812 396.640625 L 499.355469 393.761719 L 502.289062 391.65625 L 505.445312 390.882812 L 507.660156 388.222656 L 508.492188 382.464844 L 517.738281 380.195312 L 527.320312 381.855469 L 541.550781 380.136719 L 547.699219 377.09375 L 553.789062 381.414062 L 572.398438 379.804688 L 576.273438 378.644531 L 577.769531 373.714844 L 580.484375 372.054688 L 589.453125 370.28125 L 592.332031 367.234375 L 600.972656 368.289062 L 601.96875 372.550781 L 603.851562 373.660156 L 601.527344 411.207031 L 594.492188 428.761719 L 590.5625 434.6875 L 589.507812 441.441406 L 570.902344 441.332031 L 553.015625 440.390625 "/>
<path fill="none" stroke-width="1.701" stroke-linecap="round" stroke-linejoin="round" stroke="rgb(0%, 0%, 0%)" stroke-opacity="1" stroke-miterlimit="10" d="M 1227.296875 441.496094 L 1226.964844 439.558594 L 1210.628906 434.628906 L 1201.324219 424.109375 L 1208.746094 417.574219 L 1214.226562 418.015625 L 1219.210938 413.699219 L 1224.804688 413.640625 L 1228.460938 411.648438 L 1230.34375 397.804688 L 1244.628906 370.667969 L 1245.515625 368.453125 L 1255.816406 371.777344 L 1286.828125 370.558594 L 1286.992188 372.054688 L 1286.21875 398.746094 L 1290.925781 402.621094 L 1290.703125 409.210938 L 1286.328125 413.144531 L 1285.167969 443.324219 L 1276.085938 446.316406 L 1274.976562 448.199219 L 1271.433594 445.429688 L 1266.003906 443.988281 L 1262.628906 444.710938 L 1255.816406 440.722656 L 1249.726562 440.886719 L 1240.699219 443.601562 L 1227.296875 441.496094 "/>
<path fill="none" stroke-width="1.701" stroke-linecap="round" stroke-linejoin="round" stroke="rgb(0%, 0%, 0%)" stroke-opacity="1" stroke-miterlimit="10" d="M 1147.71875 430.585938 L 1129.445312 427.707031 L 1112.386719 427.929688 L 1101.367188 430.808594 L 1099.320312 433.023438 L 1094.609375 434.355469 L 1062.160156 440.113281 L 1053.132812 436.015625 L 1049.203125 431.972656 L 1040.785156 426.765625 L 1046.875 419.84375 L 1083.644531 382.1875 L 1093.117188 371.277344 L 1131.714844 381.6875 L 1130.664062 382.742188 L 1134.261719 383.90625 L 1145.890625 394.703125 L 1149.824219 402.402344 L 1160.675781 414.195312 L 1160.84375 417.960938 L 1153.421875 423 L 1147.71875 430.585938 "/>
<path fill="none" stroke-width="1.701" stroke-linecap="round" stroke-linejoin="round" stroke="rgb(0%, 0%, 0%)" stroke-opacity="1" stroke-miterlimit="10" d="M 667.871094 444.765625 L 660.890625 444.929688 L 589.507812 441.441406 L 590.5625 434.6875 L 594.492188 428.761719 L 601.527344 411.207031 L 603.851562 373.660156 L 611.050781 375.765625 L 620.910156 374.269531 L 625.449219 375.429688 L 632.316406 374.378906 L 635.25 376.980469 L 633.757812 381.414062 L 646.214844 400.574219 L 652.917969 410.042969 L 662.496094 415.800781 L 660.449219 418.792969 L 662.664062 425.050781 L 668.476562 427.652344 L 669.917969 440.445312 L 667.871094 444.765625 "/>
<path fill="none" stroke-width="1.701" stroke-linecap="round" stroke-linejoin="round" stroke="rgb(0%, 0%, 0%)" stroke-opacity="1" stroke-miterlimit="10" d="M 732.71875 403.398438 L 646.214844 400.574219 L 633.757812 381.414062 L 635.25 376.980469 L 632.316406 374.378906 L 731.886719 377.480469 L 733.714844 380.136719 L 732.9375 383.628906 L 735.265625 393.871094 L 733.214844 396.53125 L 732.71875 403.398438 "/>
<path fill="none" stroke-width="1.701" stroke-linecap="round" stroke-linejoin="round" stroke="rgb(0%, 0%, 0%)" stroke-opacity="1" stroke-miterlimit="10" d="M 352.105469 473.726562 L 342.300781 463.261719 L 345.238281 458.996094 L 344.683594 457.558594 L 339.535156 454.011719 L 336.652344 449.085938 L 332.335938 445.59375 L 331.945312 434.355469 L 329.675781 432.859375 L 324.195312 434.464844 L 320.484375 433.632812 L 315.941406 427.707031 L 312.175781 417.1875 L 312.507812 409.324219 L 306.363281 400.574219 L 308.410156 393.042969 L 316.054688 391.710938 L 327.128906 383.960938 L 330.785156 382.851562 L 338.8125 383.019531 L 345.734375 388.003906 L 348.226562 392.875 L 355.371094 394.703125 L 362.792969 401.679688 L 364.066406 404.726562 L 373.535156 410.652344 L 379.128906 419.125 L 385.21875 422.28125 L 383.890625 433.414062 L 374.699219 440.886719 L 372.59375 445.761719 L 374.089844 451.1875 L 361.683594 462.484375 L 363.179688 466.640625 L 369.605469 469.464844 L 352.105469 473.726562 "/>
<path fill="none" stroke-width="1.701" stroke-linecap="round" stroke-linejoin="round" stroke="rgb(0%, 0%, 0%)" stroke-opacity="1" stroke-miterlimit="10" d="M 971.617188 445.539062 L 964.363281 440.167969 L 953.730469 424.441406 L 943.707031 384.179688 L 980.808594 382.90625 L 1018.410156 383.40625 L 1018.300781 386.671875 L 1014.976562 390.4375 L 1020.515625 394.980469 L 1021.679688 400.296875 L 1025.5 401.347656 L 1028.765625 404.171875 L 1032.367188 412.757812 L 1046.875 419.84375 L 1040.785156 426.765625 L 1049.203125 431.972656 L 1053.132812 436.015625 L 1062.160156 440.113281 L 1061.9375 442.4375 L 1057.5625 443.601562 L 1053.078125 443.046875 L 1037.515625 437.785156 L 1017.191406 448.808594 L 998.53125 467.136719 L 991.496094 462.707031 L 981.253906 462.375 L 977.488281 460.769531 L 977.210938 452.683594 L 971.617188 445.539062 "/>
<path fill="none" stroke-width="1.701" stroke-linecap="round" stroke-linejoin="round" stroke="rgb(0%, 0%, 0%)" stroke-opacity="1" stroke-miterlimit="10" d="M 716.324219 446.925781 L 720.8125 447.367188 L 723.746094 444.820312 L 724.742188 439.0625 L 722.527344 429.480469 L 728.617188 414.75 L 738.089844 412.035156 L 736.039062 409.15625 L 728.066406 408.382812 L 732.71875 403.398438 L 733.214844 396.53125 L 735.265625 393.871094 L 732.9375 383.628906 L 764.667969 384.015625 L 764.78125 388.832031 L 767.21875 391.378906 L 770.097656 399.410156 L 767.050781 402.789062 L 779.953125 413.421875 L 785.324219 426.878906 L 806.535156 437.289062 L 767.605469 467.246094 L 760.960938 468.742188 L 753.316406 473.394531 L 743.679688 463.148438 L 737.8125 455.839844 L 717.984375 467.136719 L 713.445312 461.988281 L 719.980469 455.066406 L 716.378906 450.359375 L 716.324219 446.925781 "/>
<path fill="none" stroke-width="1.701" stroke-linecap="round" stroke-linejoin="round" stroke="rgb(0%, 0%, 0%)" stroke-opacity="1" stroke-miterlimit="10" d="M 813.070312 440.667969 L 806.535156 437.289062 L 785.324219 426.878906 L 779.953125 413.421875 L 767.050781 402.789062 L 770.097656 399.410156 L 767.21875 391.378906 L 764.78125 388.832031 L 764.667969 384.015625 L 773.476562 383.90625 L 849.289062 386.121094 L 835.109375 405.613281 L 816.78125 436.457031 L 813.070312 440.667969 "/>
<path fill="none" stroke-width="1.701" stroke-linecap="round" stroke-linejoin="round" stroke="rgb(0%, 0%, 0%)" stroke-opacity="1" stroke-miterlimit="10" d="M 889.4375 447.035156 L 891.652344 442.382812 L 890.433594 436.957031 L 885.726562 428.761719 L 885.558594 422.171875 L 893.089844 408.878906 L 892.925781 407.050781 L 881.515625 391.546875 L 873.375 389.71875 L 869.886719 384.292969 L 890.710938 384.238281 L 943.707031 384.179688 L 953.730469 424.441406 L 964.363281 440.167969 L 971.617188 445.539062 L 966.300781 446.535156 L 955.558594 443.101562 L 944.59375 444.101562 L 931.082031 442.992188 L 918.121094 446.203125 L 906.382812 447.035156 L 900.179688 449.472656 L 890.542969 449.582031 L 889.4375 447.035156 "/>
<path fill="none" stroke-width="1.701" stroke-linecap="round" stroke-linejoin="round" stroke="rgb(0%, 0%, 0%)" stroke-opacity="1" stroke-miterlimit="10" d="M 889.4375 447.035156 L 882.570312 439.449219 L 878.804688 443.433594 L 874.707031 442.550781 L 873.929688 446.371094 L 872.324219 447.257812 L 868.449219 444.042969 L 863.1875 445.539062 L 858.257812 437.511719 L 855.878906 437.621094 L 853.386719 439.558594 L 844.414062 442.9375 L 840.371094 443.546875 L 836.050781 442.273438 L 831.511719 444.597656 L 826.195312 443.878906 L 821.820312 445.261719 L 816.558594 441.386719 L 813.070312 440.667969 L 816.78125 436.457031 L 835.109375 405.613281 L 849.289062 386.121094 L 869.886719 384.292969 L 873.375 389.71875 L 881.515625 391.546875 L 892.925781 407.050781 L 893.089844 408.878906 L 885.558594 422.171875 L 885.726562 428.761719 L 890.433594 436.957031 L 891.652344 442.382812 L 889.4375 447.035156 "/>
<path fill="none" stroke-width="1.701" stroke-linecap="round" stroke-linejoin="round" stroke="rgb(0%, 0%, 0%)" stroke-opacity="1" stroke-miterlimit="10" d="M 447.023438 447.257812 L 443.644531 441 L 442.425781 430.808594 L 439.878906 426.378906 L 440.320312 421.839844 L 416.289062 399.742188 L 421.546875 395.976562 L 429.523438 393.152344 L 438.4375 396.253906 L 448.128906 396.144531 L 450.398438 398.136719 L 454.664062 397.914062 L 455.992188 395.144531 L 463.914062 395.089844 L 475.542969 390.714844 L 481.800781 392.765625 L 483.40625 391.710938 L 482.296875 389 L 490.828125 386.0625 L 502.289062 391.65625 L 499.355469 393.761719 L 498.632812 396.640625 L 502.234375 404.117188 L 492.101562 418.902344 L 487.558594 423.222656 L 486.894531 430.699219 L 484.570312 430.753906 L 485.84375 439.613281 L 484.234375 441.332031 L 482.242188 441.386719 L 478.976562 436.902344 L 470.445312 443.710938 L 465.351562 443.046875 L 455.109375 446.371094 L 447.023438 447.257812 "/>
<path fill="none" stroke-width="1.701" stroke-linecap="round" stroke-linejoin="round" stroke="rgb(0%, 0%, 0%)" stroke-opacity="1" stroke-miterlimit="10" d="M 247.773438 429.3125 L 237.472656 431.75 L 230.714844 429.703125 L 222.742188 430.035156 L 207.734375 434.960938 L 200.757812 435.628906 L 195.21875 432.582031 L 193.171875 427.320312 L 188.40625 421.949219 L 188.683594 416.132812 L 192.726562 407.71875 L 191.621094 401.570312 L 201.863281 393.097656 L 206.238281 394.261719 L 215.101562 391.933594 L 219.53125 394.039062 L 239.023438 395.589844 L 255.191406 399.1875 L 258.960938 396.417969 L 267.042969 398.027344 L 268.152344 402.734375 L 264.882812 409.601562 L 258.625 414.582031 L 248.878906 419.179688 L 248.714844 422.78125 L 250.652344 425.546875 L 247.773438 429.3125 "/>
<path fill="none" stroke-width="1.701" stroke-linecap="round" stroke-linejoin="round" stroke="rgb(0%, 0%, 0%)" stroke-opacity="1" stroke-miterlimit="10" d="M 1285.167969 443.324219 L 1286.328125 413.144531 L 1290.703125 409.210938 L 1298.566406 409.65625 L 1309.589844 408.269531 L 1312.082031 412.480469 L 1315.347656 413.585938 L 1323.15625 408.878906 L 1334.34375 406.277344 L 1338.164062 402.566406 L 1338.550781 399.742188 L 1345.695312 401.625 L 1349.347656 399.132812 L 1354.664062 410.984375 L 1362.195312 413.03125 L 1364.910156 415.46875 L 1360.148438 415.082031 L 1353.558594 420.289062 L 1353.835938 423.167969 L 1357.214844 427.761719 L 1349.347656 433.523438 L 1339.714844 431.308594 L 1342.816406 446.148438 L 1338.882812 448.085938 L 1327.144531 461.210938 L 1303.664062 473.617188 L 1301.390625 473.339844 L 1299.621094 470.570312 L 1300.175781 456.78125 L 1297.957031 450.96875 L 1285.167969 443.324219 "/>
<path fill="none" stroke-width="1.701" stroke-linecap="round" stroke-linejoin="round" stroke="rgb(0%, 0%, 0%)" stroke-opacity="1" stroke-miterlimit="10" d="M 390.8125 463.925781 L 369.605469 469.464844 L 363.179688 466.640625 L 361.683594 462.484375 L 374.089844 451.1875 L 372.59375 445.761719 L 374.699219 440.886719 L 383.890625 433.414062 L 385.21875 422.28125 L 400.449219 417.851562 L 416.289062 399.742188 L 440.320312 421.839844 L 439.878906 426.378906 L 442.425781 430.808594 L 443.644531 441 L 447.023438 447.257812 L 432.070312 452.574219 L 426.53125 452.242188 L 426.144531 456.449219 L 424.484375 457.613281 L 411.414062 458.609375 L 390.8125 463.925781 "/>
<path fill="none" stroke-width="1.701" stroke-linecap="round" stroke-linejoin="round" stroke="rgb(0%, 0%, 0%)" stroke-opacity="1" stroke-miterlimit="10" d="M 667.871094 444.765625 L 669.917969 440.445312 L 668.476562 427.652344 L 662.664062 425.050781 L 660.449219 418.792969 L 662.496094 415.800781 L 652.917969 410.042969 L 646.214844 400.574219 L 732.71875 403.398438 L 728.066406 408.382812 L 736.039062 409.15625 L 738.089844 412.035156 L 728.617188 414.75 L 722.527344 429.480469 L 724.742188 439.0625 L 723.746094 444.820312 L 720.8125 447.367188 L 716.324219 446.925781 L 667.871094 444.765625 "/>
<path fill="none" stroke-width="1.701" stroke-linecap="round" stroke-linejoin="round" stroke="rgb(0%, 0%, 0%)" stroke-opacity="1" stroke-miterlimit="10" d="M 510.761719 439.558594 L 498.691406 439.226562 L 491.160156 441.109375 L 485.84375 439.613281 L 484.570312 430.753906 L 486.894531 430.699219 L 487.558594 423.222656 L 492.101562 418.902344 L 502.234375 404.117188 L 520.507812 403.453125 L 526.324219 404.949219 L 533.078125 413.640625 L 538.839844 416.523438 L 554.234375 429.921875 L 553.015625 440.390625 L 510.761719 439.558594 "/>
<path fill="none" stroke-width="1.701" stroke-linecap="round" stroke-linejoin="round" stroke="rgb(0%, 0%, 0%)" stroke-opacity="1" stroke-miterlimit="10" d="M 352.105469 473.726562 L 280.113281 475.167969 L 277.566406 470.238281 L 272.96875 467.414062 L 271.417969 463.871094 L 256.964844 451.1875 L 256.742188 448.363281 L 243.839844 449.195312 L 239.964844 447.921875 L 244.671875 441.71875 L 243.011719 438.839844 L 247.550781 435.792969 L 247.773438 429.3125 L 250.652344 425.546875 L 287.144531 422.113281 L 295.730469 417.90625 L 312.175781 417.1875 L 315.941406 427.707031 L 320.484375 433.632812 L 324.195312 434.464844 L 329.675781 432.859375 L 331.945312 434.355469 L 332.335938 445.59375 L 336.652344 449.085938 L 339.535156 454.011719 L 344.683594 457.558594 L 345.238281 458.996094 L 342.300781 463.261719 L 352.105469 473.726562 "/>
<path fill="none" stroke-width="1.701" stroke-linecap="round" stroke-linejoin="round" stroke="rgb(0%, 0%, 0%)" stroke-opacity="1" stroke-miterlimit="10" d="M 1236.046875 523.125 L 1236.101562 527 L 1228.460938 530.933594 L 1210.738281 552.75 L 1207.582031 547.878906 L 1202.042969 543.613281 L 1199.550781 539.238281 L 1201.378906 538.242188 L 1199.164062 536.527344 L 1196.230469 529.9375 L 1191.800781 528.273438 L 1187.757812 523.011719 L 1185.210938 516.367188 L 1167.820312 499.421875 L 1160.234375 490.0625 L 1151.152344 483.75 L 1143.898438 476.496094 L 1138.195312 461.101562 L 1139.6875 457.167969 L 1141.902344 455.5625 L 1144.0625 446.535156 L 1141.960938 440.167969 L 1144.175781 438.839844 L 1143.730469 436.402344 L 1147.71875 430.585938 L 1153.421875 423 L 1160.84375 417.960938 L 1168.816406 427.761719 L 1182.441406 429.644531 L 1201.324219 424.109375 L 1210.628906 434.628906 L 1226.964844 439.558594 L 1227.296875 441.496094 L 1226.078125 456.503906 L 1228.738281 461.65625 L 1230.894531 491.226562 L 1221.59375 519.136719 L 1228.570312 521.851562 L 1232.167969 524.839844 L 1236.046875 523.125 "/>
<path fill="none" stroke-width="1.701" stroke-linecap="round" stroke-linejoin="round" stroke="rgb(0%, 0%, 0%)" stroke-opacity="1" stroke-miterlimit="10" d="M 1443.324219 461.324219 L 1443.160156 456.117188 L 1435.074219 446.480469 L 1438.175781 445.984375 L 1439.171875 440.445312 L 1442.605469 435.351562 L 1451.410156 429.203125 L 1459.71875 435.296875 L 1496.988281 431.75 L 1501.527344 425.4375 L 1505.679688 418.515625 L 1514.542969 419.957031 L 1520.523438 429.703125 L 1496.988281 443.214844 L 1503.1875 449.195312 L 1499.8125 462.375 L 1490.285156 469.464844 L 1459.9375 476.882812 L 1443.65625 468.910156 L 1443.324219 461.324219 "/>
<path fill="none" stroke-width="1.701" stroke-linecap="round" stroke-linejoin="round" stroke="rgb(0%, 0%, 0%)" stroke-opacity="1" stroke-miterlimit="10" d="M 142.332031 436.457031 L 153.851562 427.429688 L 162.046875 431.085938 L 175.835938 430.253906 L 186.304688 425.492188 L 188.40625 421.949219 L 193.171875 427.320312 L 195.21875 432.582031 L 200.757812 435.628906 L 207.734375 434.960938 L 222.742188 430.035156 L 230.714844 429.703125 L 237.472656 431.75 L 247.773438 429.3125 L 247.550781 435.792969 L 243.011719 438.839844 L 244.671875 441.71875 L 239.964844 447.921875 L 237.195312 447.535156 L 219.75 451.464844 L 210.28125 461.265625 L 202.195312 465.199219 L 200.976562 470.347656 L 195.882812 475.664062 L 172.902344 475.832031 L 136.519531 475.722656 L 142.332031 436.457031 "/>
<path fill="none" stroke-width="1.701" stroke-linecap="round" stroke-linejoin="round" stroke="rgb(0%, 0%, 0%)" stroke-opacity="1" stroke-miterlimit="10" d="M 1167.820312 499.421875 L 1164.609375 501.472656 L 1108.953125 501.304688 L 1097.546875 503.6875 L 1094.667969 504.296875 L 1091.785156 495.046875 L 1088.296875 491.003906 L 1073.179688 481.921875 L 1062.4375 467.027344 L 1060.222656 452.628906 L 1061.9375 442.4375 L 1062.160156 440.113281 L 1094.609375 434.355469 L 1099.320312 433.023438 L 1101.367188 430.808594 L 1112.386719 427.929688 L 1129.445312 427.707031 L 1147.71875 430.585938 L 1143.730469 436.402344 L 1144.175781 438.839844 L 1141.960938 440.167969 L 1144.0625 446.535156 L 1141.902344 455.5625 L 1139.6875 457.167969 L 1138.195312 461.101562 L 1143.898438 476.496094 L 1151.152344 483.75 L 1160.234375 490.0625 L 1167.820312 499.421875 "/>
<path fill="none" stroke-width="1.701" stroke-linecap="round" stroke-linejoin="round" stroke="rgb(0%, 0%, 0%)" stroke-opacity="1" stroke-miterlimit="10" d="M 1424.609375 503.632812 L 1423.113281 506.511719 L 1420.34375 506.398438 L 1415.472656 509.613281 L 1405.003906 511.21875 L 1404.171875 513.65625 L 1399.132812 508.394531 L 1401.40625 503.464844 L 1396.753906 502.855469 L 1393.816406 494.21875 L 1382.742188 486.796875 L 1373.9375 485.6875 L 1367.789062 488.957031 L 1344.808594 480.371094 L 1320.109375 476.550781 L 1312.355469 479.652344 L 1303.664062 473.617188 L 1327.144531 461.210938 L 1338.882812 448.085938 L 1342.816406 446.148438 L 1339.714844 431.308594 L 1349.347656 433.523438 L 1358.320312 439.335938 L 1396.863281 458.167969 L 1401.515625 464.3125 L 1408.382812 464.148438 L 1410.042969 461.488281 L 1413.699219 462.042969 L 1414.972656 469.464844 L 1413.863281 503.796875 L 1424.609375 503.632812 "/>
<path fill="none" stroke-width="1.701" stroke-linecap="round" stroke-linejoin="round" stroke="rgb(0%, 0%, 0%)" stroke-opacity="1" stroke-miterlimit="10" d="M 753.316406 473.394531 L 760.960938 468.742188 L 767.605469 467.246094 L 806.535156 437.289062 L 813.070312 440.667969 L 816.558594 441.386719 L 821.820312 445.261719 L 826.195312 443.878906 L 831.511719 444.597656 L 836.050781 442.273438 L 840.371094 443.546875 L 844.414062 442.9375 L 853.386719 439.558594 L 844.523438 506.566406 L 802.660156 506.457031 L 760.460938 506.289062 L 763.007812 484.25 L 753.316406 473.394531 "/>
<path fill="none" stroke-width="1.701" stroke-linecap="round" stroke-linejoin="round" stroke="rgb(0%, 0%, 0%)" stroke-opacity="1" stroke-miterlimit="10" d="M 916.292969 507.785156 L 844.523438 506.566406 L 853.386719 439.558594 L 855.878906 437.621094 L 858.257812 437.511719 L 863.1875 445.539062 L 868.449219 444.042969 L 872.324219 447.257812 L 873.929688 446.371094 L 874.707031 442.550781 L 878.804688 443.433594 L 882.570312 439.449219 L 889.4375 447.035156 L 890.542969 449.582031 L 891.761719 455.339844 L 901.621094 457.832031 L 906.492188 456.617188 L 911.863281 453.347656 L 914.910156 453.238281 L 917.125 454.84375 L 918.289062 459.773438 L 922.996094 465.863281 L 920.890625 472.453125 L 925.652344 479.488281 L 927.980469 490.617188 L 919.5625 499.867188 L 916.292969 507.785156 "/>
<path fill="none" stroke-width="1.701" stroke-linecap="round" stroke-linejoin="round" stroke="rgb(0%, 0%, 0%)" stroke-opacity="1" stroke-miterlimit="10" d="M 1018.910156 502.855469 L 1015.308594 483.527344 L 1008.609375 474.445312 L 998.53125 467.136719 L 1017.191406 448.808594 L 1037.515625 437.785156 L 1053.078125 443.046875 L 1057.5625 443.601562 L 1061.9375 442.4375 L 1060.222656 452.628906 L 1062.4375 467.027344 L 1073.179688 481.921875 L 1046.929688 503.519531 L 1018.910156 502.855469 "/>
<path fill="none" stroke-width="1.701" stroke-linecap="round" stroke-linejoin="round" stroke="rgb(0%, 0%, 0%)" stroke-opacity="1" stroke-miterlimit="10" d="M 1518.472656 371.5 L 1514.820312 368.566406 L 1506.621094 365.851562 L 1502.691406 361.308594 L 1502.523438 356.160156 L 1498.09375 349.292969 L 1538.023438 349.957031 L 1561.945312 351.675781 L 1557.625 365.464844 L 1569.089844 368.453125 L 1573.132812 366.738281 L 1580.71875 350.34375 L 1591.792969 356.269531 L 1606.578125 355.273438 L 1626.625 355.882812 L 1629.5625 361.976562 L 1600.929688 400.351562 L 1578.171875 413.253906 L 1522.019531 400.074219 L 1515.816406 394.039062 L 1529.160156 384.457031 L 1531.265625 376.207031 L 1518.472656 371.5 "/>
<path fill="none" stroke-width="1.701" stroke-linecap="round" stroke-linejoin="round" stroke="rgb(0%, 0%, 0%)" stroke-opacity="1" stroke-miterlimit="10" d="M 1607.300781 461.433594 L 1614.664062 453.183594 L 1636.207031 444.15625 L 1652.15625 439.726562 L 1643.683594 444.710938 L 1627.347656 450.300781 L 1609.847656 461.433594 L 1607.300781 461.433594 "/>
<path fill="none" stroke-width="1.701" stroke-linecap="round" stroke-linejoin="round" stroke="rgb(0%, 0%, 0%)" stroke-opacity="1" stroke-miterlimit="10" d="M 1311.140625 523.289062 L 1269.21875 524.894531 L 1266.945312 523.457031 L 1258.140625 523.84375 L 1253.15625 521.738281 L 1236.046875 523.125 L 1232.167969 524.839844 L 1228.570312 521.851562 L 1221.59375 519.136719 L 1230.894531 491.226562 L 1228.738281 461.65625 L 1226.078125 456.503906 L 1227.296875 441.496094 L 1240.699219 443.601562 L 1249.726562 440.886719 L 1255.816406 440.722656 L 1262.628906 444.710938 L 1266.003906 443.988281 L 1271.433594 445.429688 L 1274.976562 448.199219 L 1276.085938 446.316406 L 1285.167969 443.324219 L 1297.957031 450.96875 L 1300.175781 456.78125 L 1299.621094 470.570312 L 1301.390625 473.339844 L 1303.664062 473.617188 L 1312.355469 479.652344 L 1317.230469 488.125 L 1311.140625 523.289062 "/>
<path fill="none" stroke-width="1.701" stroke-linecap="round" stroke-linejoin="round" stroke="rgb(0%, 0%, 0%)" stroke-opacity="1" stroke-miterlimit="10" d="M 957.71875 508.226562 L 916.292969 507.785156 L 919.5625 499.867188 L 927.980469 490.617188 L 925.652344 479.488281 L 920.890625 472.453125 L 922.996094 465.863281 L 918.289062 459.773438 L 917.125 454.84375 L 914.910156 453.238281 L 911.863281 453.347656 L 906.492188 456.617188 L 901.621094 457.832031 L 891.761719 455.339844 L 890.542969 449.582031 L 900.179688 449.472656 L 906.382812 447.035156 L 918.121094 446.203125 L 931.082031 442.992188 L 944.59375 444.101562 L 955.558594 443.101562 L 966.300781 446.535156 L 971.617188 445.539062 L 977.210938 452.683594 L 977.488281 460.769531 L 981.253906 462.375 L 991.496094 462.707031 L 998.53125 467.136719 L 982.304688 473.726562 L 977.707031 477.605469 L 976.378906 483.527344 L 979.039062 490.117188 L 969.015625 500.363281 L 970.898438 506.011719 L 962.257812 506.011719 L 957.71875 508.226562 "/>
<path fill="none" stroke-width="1.701" stroke-linecap="round" stroke-linejoin="round" stroke="rgb(0%, 0%, 0%)" stroke-opacity="1" stroke-miterlimit="10" d="M 204.855469 475.609375 L 195.882812 475.664062 L 200.976562 470.347656 L 202.195312 465.199219 L 210.28125 461.265625 L 219.75 451.464844 L 237.195312 447.535156 L 239.964844 447.921875 L 243.839844 449.195312 L 256.742188 448.363281 L 256.964844 451.1875 L 271.417969 463.871094 L 272.96875 467.414062 L 277.566406 470.238281 L 280.113281 475.167969 L 273.632812 475.609375 L 204.855469 475.609375 "/>
<path fill="none" stroke-width="1.701" stroke-linecap="round" stroke-linejoin="round" stroke="rgb(0%, 0%, 0%)" stroke-opacity="1" stroke-miterlimit="10" d="M 1451.410156 429.203125 L 1442.605469 435.351562 L 1439.171875 440.445312 L 1438.175781 445.984375 L 1435.074219 446.480469 L 1443.160156 456.117188 L 1443.324219 461.324219 L 1424.773438 457.445312 L 1414.75 458.167969 L 1413.699219 462.042969 L 1410.042969 461.488281 L 1408.382812 464.148438 L 1401.515625 464.3125 L 1396.863281 458.167969 L 1358.320312 439.335938 L 1349.347656 433.523438 L 1357.214844 427.761719 L 1353.835938 423.167969 L 1353.558594 420.289062 L 1360.148438 415.082031 L 1364.910156 415.46875 L 1370.558594 416.464844 L 1381.246094 407.550781 L 1386.507812 411.757812 L 1389.996094 411.039062 L 1390.660156 406.441406 L 1395.867188 403.675781 L 1398.746094 398.855469 L 1451.410156 429.203125 "/>
<path fill="none" stroke-width="1.701" stroke-linecap="round" stroke-linejoin="round" stroke="rgb(0%, 0%, 0%)" stroke-opacity="1" stroke-miterlimit="10" d="M 1495.769531 490.339844 L 1499.589844 493.109375 L 1477.492188 500.640625 L 1424.609375 503.632812 L 1413.863281 503.796875 L 1414.972656 469.464844 L 1413.699219 462.042969 L 1433.082031 464.367188 L 1448.640625 485.023438 L 1495.769531 490.339844 "/>
<path fill="none" stroke-width="1.701" stroke-linecap="round" stroke-linejoin="round" stroke="rgb(0%, 0%, 0%)" stroke-opacity="1" stroke-miterlimit="10" d="M 998.417969 538.519531 L 960.984375 509.058594 L 957.71875 508.226562 L 962.257812 506.011719 L 970.898438 506.011719 L 969.015625 500.363281 L 979.039062 490.117188 L 976.378906 483.527344 L 977.707031 477.605469 L 982.304688 473.726562 L 998.53125 467.136719 L 1008.609375 474.445312 L 1015.308594 483.527344 L 1018.910156 502.855469 L 1018.191406 507.617188 L 1021.070312 514.042969 L 998.417969 538.519531 "/>
<path fill="none" stroke-width="1.701" stroke-linecap="round" stroke-linejoin="round" stroke="rgb(0%, 0%, 0%)" stroke-opacity="1" stroke-miterlimit="10" d="M 1337.886719 569.917969 L 1331.242188 567.703125 L 1311.140625 523.289062 L 1317.230469 488.125 L 1312.355469 479.652344 L 1320.109375 476.550781 L 1344.808594 480.371094 L 1367.789062 488.957031 L 1373.9375 485.6875 L 1382.742188 486.796875 L 1393.816406 494.21875 L 1396.753906 502.855469 L 1401.40625 503.464844 L 1399.132812 508.394531 L 1404.171875 513.65625 L 1406.886719 515.480469 L 1410.375 529.546875 L 1405.558594 533.8125 L 1337.886719 569.917969 "/>
<path fill="none" stroke-width="1.701" stroke-linecap="round" stroke-linejoin="round" stroke="rgb(0%, 0%, 0%)" stroke-opacity="1" stroke-miterlimit="10" d="M 1103.140625 566.320312 L 1093.394531 570.472656 L 1087.855469 571.246094 L 1083.535156 580.109375 L 1078.773438 582.101562 L 1077.996094 585.976562 L 1073.957031 589.300781 L 1071.90625 594.285156 L 1065.980469 596.886719 L 999.96875 541.175781 L 998.417969 538.519531 L 1021.070312 514.042969 L 1018.191406 507.617188 L 1018.910156 502.855469 L 1046.929688 503.519531 L 1073.179688 481.921875 L 1088.296875 491.003906 L 1091.785156 495.046875 L 1094.667969 504.296875 L 1097.546875 503.6875 L 1107.183594 520.6875 L 1113.992188 529.492188 L 1105.242188 550.480469 L 1106.460938 560.949219 L 1103.140625 566.320312 "/>
<path fill="none" stroke-width="1.701" stroke-linecap="round" stroke-linejoin="round" stroke="rgb(0%, 0%, 0%)" stroke-opacity="1" stroke-miterlimit="10" d="M 1406.886719 515.480469 L 1404.171875 513.65625 L 1405.003906 511.21875 L 1415.472656 509.613281 L 1420.34375 506.398438 L 1423.113281 506.511719 L 1424.609375 503.632812 L 1477.492188 500.640625 L 1499.589844 493.109375 L 1495.769531 490.339844 L 1491.671875 479.042969 L 1516.535156 478.210938 L 1531.542969 470.792969 L 1535.253906 483.253906 L 1545.886719 483.804688 L 1552.03125 477.992188 L 1554.636719 482.808594 L 1527.113281 511.828125 L 1499.589844 523.347656 L 1424.332031 527.054688 L 1406.886719 515.480469 "/>
<path fill="none" stroke-width="1.701" stroke-linecap="round" stroke-linejoin="round" stroke="rgb(0%, 0%, 0%)" stroke-opacity="1" stroke-miterlimit="10" d="M 1513.988281 546.714844 L 1512.050781 542.671875 L 1515.09375 542.117188 L 1524.566406 527.277344 L 1533.8125 516.148438 L 1544.003906 506.898438 L 1559.398438 495.546875 L 1527.222656 528.054688 L 1513.988281 546.714844 "/>
<path fill="none" stroke-width="1.701" stroke-linecap="round" stroke-linejoin="round" stroke="rgb(0%, 0%, 0%)" stroke-opacity="1" stroke-miterlimit="10" d="M 1209.90625 580.882812 L 1197.945312 586.308594 L 1178.675781 584.980469 L 1143.234375 570.914062 L 1139.410156 570.972656 L 1137.863281 568.480469 L 1112.441406 570.195312 L 1108.125 569.53125 L 1103.140625 566.320312 L 1106.460938 560.949219 L 1105.242188 550.480469 L 1113.992188 529.492188 L 1107.183594 520.6875 L 1097.546875 503.6875 L 1108.953125 501.304688 L 1164.609375 501.472656 L 1167.820312 499.421875 L 1185.210938 516.367188 L 1187.757812 523.011719 L 1191.800781 528.273438 L 1196.230469 529.9375 L 1199.164062 536.527344 L 1201.378906 538.242188 L 1199.550781 539.238281 L 1202.042969 543.613281 L 1207.582031 547.878906 L 1210.738281 552.75 L 1209.742188 557.347656 L 1211.070312 560.949219 L 1226.1875 568.921875 L 1209.90625 580.882812 "/>
<path fill="none" stroke-width="1.701" stroke-linecap="round" stroke-linejoin="round" stroke="rgb(0%, 0%, 0%)" stroke-opacity="1" stroke-miterlimit="10" d="M 1251.609375 592.625 L 1233.167969 586.308594 L 1228.792969 586.644531 L 1223.53125 589.132812 L 1221.757812 588.636719 L 1209.90625 580.882812 L 1226.1875 568.921875 L 1211.070312 560.949219 L 1209.742188 557.347656 L 1210.738281 552.75 L 1228.460938 530.933594 L 1236.101562 527 L 1236.046875 523.125 L 1253.15625 521.738281 L 1258.140625 523.84375 L 1266.945312 523.457031 L 1269.21875 524.894531 L 1311.140625 523.289062 L 1331.242188 567.703125 L 1337.886719 569.917969 L 1329.359375 576.285156 L 1325.316406 573.796875 L 1326.589844 577.726562 L 1300.394531 596.777344 L 1289.984375 587.140625 L 1286.605469 582.101562 L 1276.027344 586.367188 L 1270.046875 584.703125 L 1266.117188 587.695312 L 1265.121094 585.976562 L 1259.914062 584.316406 L 1257.199219 586.644531 L 1258.585938 590.628906 L 1251.609375 592.625 "/>
<path fill="none" stroke-width="1.701" stroke-linecap="round" stroke-linejoin="round" stroke="rgb(0%, 0%, 0%)" stroke-opacity="1" stroke-miterlimit="10" d="M 1140.132812 659.90625 L 1065.980469 596.886719 L 1071.90625 594.285156 L 1073.957031 589.300781 L 1077.996094 585.976562 L 1078.773438 582.101562 L 1083.535156 580.109375 L 1087.855469 571.246094 L 1093.394531 570.472656 L 1103.140625 566.320312 L 1108.125 569.53125 L 1112.441406 570.195312 L 1137.863281 568.480469 L 1139.410156 570.972656 L 1143.234375 570.914062 L 1178.675781 584.980469 L 1197.945312 586.308594 L 1209.90625 580.882812 L 1221.757812 588.636719 L 1223.53125 589.132812 L 1228.792969 586.644531 L 1210.019531 612.671875 L 1190.082031 614.996094 L 1192.296875 617.765625 L 1180.890625 626.347656 L 1168.984375 622.75 L 1162.835938 623.414062 L 1159.847656 627.070312 L 1156.46875 640.359375 L 1152.148438 645.398438 L 1144.617188 649 L 1143.84375 654.703125 L 1140.132812 659.90625 "/>
<path fill="none" stroke-width="1.701" stroke-linecap="round" stroke-linejoin="round" stroke="rgb(0%, 0%, 0%)" stroke-opacity="1" stroke-miterlimit="10" d="M 1263.179688 617.320312 L 1262.238281 607.90625 L 1260.578125 607.742188 L 1259.195312 604.472656 L 1256.203125 603.367188 L 1257.035156 600.765625 L 1254.984375 600.375 L 1254.210938 595.449219 L 1251.609375 592.625 L 1258.585938 590.628906 L 1257.199219 586.644531 L 1259.914062 584.316406 L 1265.121094 585.976562 L 1266.117188 587.695312 L 1270.046875 584.703125 L 1276.027344 586.367188 L 1286.605469 582.101562 L 1289.984375 587.140625 L 1300.394531 596.777344 L 1280.238281 616.65625 L 1274.921875 638.585938 L 1269.164062 639.804688 L 1263.179688 617.320312 "/>
<path fill="none" stroke-width="1.701" stroke-linecap="round" stroke-linejoin="round" stroke="rgb(0%, 0%, 0%)" stroke-opacity="1" stroke-miterlimit="10" d="M 1140.132812 659.90625 L 1143.84375 654.703125 L 1144.617188 649 L 1152.148438 645.398438 L 1156.46875 640.359375 L 1159.847656 627.070312 L 1162.835938 623.414062 L 1168.984375 622.75 L 1180.890625 626.347656 L 1192.296875 617.765625 L 1190.082031 614.996094 L 1210.019531 612.671875 L 1228.792969 586.644531 L 1233.167969 586.308594 L 1251.609375 592.625 L 1254.210938 595.449219 L 1254.984375 600.375 L 1257.035156 600.765625 L 1256.203125 603.367188 L 1259.195312 604.472656 L 1260.578125 607.742188 L 1262.238281 607.90625 L 1263.179688 617.320312 L 1263.570312 652.097656 L 1250.058594 666 L 1153.589844 671.703125 L 1140.132812 659.90625 "/>
</svg>
