<?xml version="1.0" encoding="UTF-8"?>
<svg xmlns="http://www.w3.org/2000/svg" xmlns:xlink="http://www.w3.org/1999/xlink" width="198pt" height="220pt" viewBox="0 0 198 220">
<defs>
<g>
<g id="glyph-0-0">
<path d="M 1.3125 -1.4375 L 0.21875 -1.4375 L 0.21875 -1.109375 L 1.3125 -1.109375 Z M 1.3125 -1.4375 "/>
</g>
<g id="glyph-0-1">
<path d="M 2.34375 -0.40625 L 0.609375 -0.40625 C 0.65625 -0.6875 0.8125 -0.859375 1.203125 -1.09375 L 1.671875 -1.359375 C 2.125 -1.609375 2.359375 -1.953125 2.359375 -2.375 C 2.359375 -2.640625 2.25 -2.90625 2.0625 -3.078125 C 1.859375 -3.265625 1.625 -3.34375 1.3125 -3.34375 C 0.890625 -3.34375 0.59375 -3.203125 0.40625 -2.90625 C 0.296875 -2.734375 0.234375 -2.53125 0.234375 -2.1875 L 0.640625 -2.1875 C 0.65625 -2.421875 0.6875 -2.546875 0.734375 -2.65625 C 0.84375 -2.859375 1.046875 -2.984375 1.296875 -2.984375 C 1.671875 -2.984375 1.953125 -2.71875 1.953125 -2.359375 C 1.953125 -2.09375 1.796875 -1.859375 1.5 -1.6875 L 1.078125 -1.4375 C 0.390625 -1.046875 0.1875 -0.734375 0.15625 0 L 2.34375 0 Z M 2.34375 -0.40625 "/>
</g>
<g id="glyph-0-2">
<path d="M 1.203125 -2.375 L 1.203125 0 L 1.609375 0 L 1.609375 -3.34375 L 1.34375 -3.34375 C 1.1875 -2.828125 1.09375 -2.765625 0.46875 -2.671875 L 0.46875 -2.375 Z M 1.203125 -2.375 "/>
</g>
<g id="glyph-0-3">
<path d="M 1.265625 -3.34375 C 0.96875 -3.34375 0.6875 -3.203125 0.515625 -2.984375 C 0.3125 -2.6875 0.203125 -2.234375 0.203125 -1.625 C 0.203125 -0.484375 0.5625 0.109375 1.265625 0.109375 C 1.96875 0.109375 2.34375 -0.484375 2.34375 -1.59375 C 2.34375 -2.234375 2.25 -2.671875 2.03125 -2.984375 C 1.859375 -3.203125 1.578125 -3.34375 1.265625 -3.34375 Z M 1.265625 -2.984375 C 1.71875 -2.984375 1.921875 -2.53125 1.921875 -1.625 C 1.921875 -0.671875 1.71875 -0.234375 1.265625 -0.234375 C 0.828125 -0.234375 0.609375 -0.6875 0.609375 -1.609375 C 0.609375 -2.53125 0.828125 -2.984375 1.265625 -2.984375 Z M 1.265625 -2.984375 "/>
</g>
</g>
</defs>
<path fill="none" stroke-width="0.42525" stroke-linecap="round" stroke-linejoin="round" stroke="rgb(0%, 0%, 0%)" stroke-opacity="1" stroke-miterlimit="10" d="M 40.617188 172.140625 L 176.128906 172.140625 "/>
<path fill="none" stroke-width="0.42525" stroke-linecap="round" stroke-linejoin="round" stroke="rgb(0%, 0%, 0%)" stroke-opacity="1" stroke-miterlimit="10" d="M 40.617188 172.140625 L 40.617188 175.621094 "/>
<g fill="rgb(0%, 0%, 0%)" fill-opacity="1">
<use xlink:href="#glyph-0-0" x="38.117188" y="180.953125"/>
<use xlink:href="#glyph-0-1" x="40.117188" y="180.953125"/>
</g>
<path fill="none" stroke-width="0.42525" stroke-linecap="round" stroke-linejoin="round" stroke="rgb(0%, 0%, 0%)" stroke-opacity="1" stroke-miterlimit="10" d="M 40.617188 172.140625 L 40.617188 175.621094 "/>
<path fill="none" stroke-width="0.42525" stroke-linecap="round" stroke-linejoin="round" stroke="rgb(0%, 0%, 0%)" stroke-opacity="1" stroke-miterlimit="10" d="M 74.492188 172.140625 L 74.492188 175.621094 "/>
<g fill="rgb(0%, 0%, 0%)" fill-opacity="1">
<use xlink:href="#glyph-0-0" x="71.992188" y="180.953125"/>
<use xlink:href="#glyph-0-2" x="73.992188" y="180.953125"/>
</g>
<path fill="none" stroke-width="0.42525" stroke-linecap="round" stroke-linejoin="round" stroke="rgb(0%, 0%, 0%)" stroke-opacity="1" stroke-miterlimit="10" d="M 74.492188 172.140625 L 74.492188 175.621094 "/>
<path fill="none" stroke-width="0.42525" stroke-linecap="round" stroke-linejoin="round" stroke="rgb(0%, 0%, 0%)" stroke-opacity="1" stroke-miterlimit="10" d="M 108.367188 172.140625 L 108.367188 175.621094 "/>
<g fill="rgb(0%, 0%, 0%)" fill-opacity="1">
<use xlink:href="#glyph-0-3" x="106.867188" y="180.953125"/>
</g>
<path fill="none" stroke-width="0.42525" stroke-linecap="round" stroke-linejoin="round" stroke="rgb(0%, 0%, 0%)" stroke-opacity="1" stroke-miterlimit="10" d="M 108.367188 172.140625 L 108.367188 175.621094 "/>
<path fill="none" stroke-width="0.42525" stroke-linecap="round" stroke-linejoin="round" stroke="rgb(0%, 0%, 0%)" stroke-opacity="1" stroke-miterlimit="10" d="M 142.253906 172.140625 L 142.253906 175.621094 "/>
<g fill="rgb(0%, 0%, 0%)" fill-opacity="1">
<use xlink:href="#glyph-0-2" x="140.753906" y="180.953125"/>
</g>
<path fill="none" stroke-width="0.42525" stroke-linecap="round" stroke-linejoin="round" stroke="rgb(0%, 0%, 0%)" stroke-opacity="1" stroke-miterlimit="10" d="M 142.253906 172.140625 L 142.253906 175.621094 "/>
<path fill="none" stroke-width="0.42525" stroke-linecap="round" stroke-linejoin="round" stroke="rgb(0%, 0%, 0%)" stroke-opacity="1" stroke-miterlimit="10" d="M 176.128906 172.140625 L 176.128906 175.621094 "/>
<g fill="rgb(0%, 0%, 0%)" fill-opacity="1">
<use xlink:href="#glyph-0-1" x="174.628906" y="180.953125"/>
</g>
<path fill="none" stroke-width="0.42525" stroke-linecap="round" stroke-linejoin="round" stroke="rgb(0%, 0%, 0%)" stroke-opacity="1" stroke-miterlimit="10" d="M 176.128906 172.140625 L 176.128906 175.621094 "/>
<path fill="none" stroke-width="0.42525" stroke-linecap="round" stroke-linejoin="round" stroke="rgb(0%, 0%, 0%)" stroke-opacity="1" stroke-miterlimit="10" d="M 40.617188 172.140625 L 40.617188 36.625 "/>
<path fill="none" stroke-width="0.42525" stroke-linecap="round" stroke-linejoin="round" stroke="rgb(0%, 0%, 0%)" stroke-opacity="1" stroke-miterlimit="10" d="M 40.617188 172.140625 L 37.132812 172.140625 "/>
<g fill="rgb(0%, 0%, 0%)" fill-opacity="1">
<use xlink:href="#glyph-0-0" x="30.195312" y="173.59375"/>
<use xlink:href="#glyph-0-1" x="32.195312" y="173.59375"/>
</g>
<path fill="none" stroke-width="0.42525" stroke-linecap="round" stroke-linejoin="round" stroke="rgb(0%, 0%, 0%)" stroke-opacity="1" stroke-miterlimit="10" d="M 40.617188 172.140625 L 37.132812 172.140625 "/>
<path fill="none" stroke-width="0.42525" stroke-linecap="round" stroke-linejoin="round" stroke="rgb(0%, 0%, 0%)" stroke-opacity="1" stroke-miterlimit="10" d="M 40.617188 138.261719 L 37.132812 138.261719 "/>
<g fill="rgb(0%, 0%, 0%)" fill-opacity="1">
<use xlink:href="#glyph-0-0" x="30.195312" y="139.714844"/>
<use xlink:href="#glyph-0-2" x="32.195312" y="139.714844"/>
</g>
<path fill="none" stroke-width="0.42525" stroke-linecap="round" stroke-linejoin="round" stroke="rgb(0%, 0%, 0%)" stroke-opacity="1" stroke-miterlimit="10" d="M 40.617188 138.261719 L 37.132812 138.261719 "/>
<path fill="none" stroke-width="0.42525" stroke-linecap="round" stroke-linejoin="round" stroke="rgb(0%, 0%, 0%)" stroke-opacity="1" stroke-miterlimit="10" d="M 40.617188 104.386719 L 37.132812 104.386719 "/>
<g fill="rgb(0%, 0%, 0%)" fill-opacity="1">
<use xlink:href="#glyph-0-3" x="32.195312" y="105.839844"/>
</g>
<path fill="none" stroke-width="0.42525" stroke-linecap="round" stroke-linejoin="round" stroke="rgb(0%, 0%, 0%)" stroke-opacity="1" stroke-miterlimit="10" d="M 40.617188 104.386719 L 37.132812 104.386719 "/>
<path fill="none" stroke-width="0.42525" stroke-linecap="round" stroke-linejoin="round" stroke="rgb(0%, 0%, 0%)" stroke-opacity="1" stroke-miterlimit="10" d="M 40.617188 70.503906 L 37.132812 70.503906 "/>
<g fill="rgb(0%, 0%, 0%)" fill-opacity="1">
<use xlink:href="#glyph-0-2" x="32.195312" y="71.957031"/>
</g>
<path fill="none" stroke-width="0.42525" stroke-linecap="round" stroke-linejoin="round" stroke="rgb(0%, 0%, 0%)" stroke-opacity="1" stroke-miterlimit="10" d="M 40.617188 70.503906 L 37.132812 70.503906 "/>
<path fill="none" stroke-width="0.42525" stroke-linecap="round" stroke-linejoin="round" stroke="rgb(0%, 0%, 0%)" stroke-opacity="1" stroke-miterlimit="10" d="M 40.617188 36.625 L 37.132812 36.625 "/>
<g fill="rgb(0%, 0%, 0%)" fill-opacity="1">
<use xlink:href="#glyph-0-1" x="32.195312" y="38.078125"/>
</g>
<path fill="none" stroke-width="0.42525" stroke-linecap="round" stroke-linejoin="round" stroke="rgb(0%, 0%, 0%)" stroke-opacity="1" stroke-miterlimit="10" d="M 40.617188 36.625 L 37.132812 36.625 "/>
<path fill="none" stroke-width="0.42525" stroke-linecap="round" stroke-linejoin="round" stroke="rgb(0%, 0%, 0%)" stroke-opacity="1" stroke-miterlimit="10" d="M 40.617188 172.140625 L 176.128906 172.140625 L 176.128906 36.625 L 40.617188 36.625 L 40.617188 172.140625 "/>
<path fill-rule="nonzero" fill="rgb(54.117647%, 54.117647%, 54.117647%)" fill-opacity="1" d="M 56.273438 109.800781 L 54.164062 111.550781 L 53.117188 112.511719 L 51.460938 114.191406 L 50.515625 115.222656 L 48.75 117.421875 L 48.359375 117.933594 L 46.582031 120.644531 L 46.039062 121.636719 L 45.128906 123.355469 L 43.96875 126.066406 L 43.328125 127.960938 L 43.058594 128.777344 L 42.398438 131.488281 L 41.96875 134.195312 L 41.761719 136.90625 L 41.777344 139.617188 L 42.015625 142.328125 L 42.480469 145.039062 L 43.183594 147.75 L 43.328125 148.171875 L 44.144531 150.460938 L 45.382812 153.171875 L 46.039062 154.339844 L 46.945312 155.882812 L 48.75 158.421875 L 48.878906 158.59375 L 51.289062 161.296875 L 51.460938 161.46875 L 54.164062 163.878906 L 54.335938 164.007812 L 56.875 165.808594 L 58.417969 166.71875 L 59.585938 167.375 L 62.296875 168.609375 L 64.582031 169.429688 L 65.007812 169.574219 L 67.71875 170.277344 L 70.429688 170.742188 L 73.140625 170.980469 L 75.851562 170.992188 L 78.5625 170.789062 L 81.265625 170.359375 L 83.976562 169.695312 L 84.796875 169.429688 L 86.6875 168.789062 L 89.398438 167.625 L 91.121094 166.71875 L 92.109375 166.171875 L 94.820312 164.398438 L 95.332031 164.007812 L 97.53125 162.238281 L 98.5625 161.296875 L 100.242188 159.636719 L 101.207031 158.59375 L 102.953125 156.480469 L 103.417969 155.882812 L 105.308594 153.171875 L 105.664062 152.597656 L 106.941406 150.460938 L 108.367188 147.75 L 109.640625 145.039062 L 110.765625 142.328125 L 111.078125 141.488281 L 111.804688 139.617188 L 112.757812 136.90625 L 113.675781 134.195312 L 113.789062 133.839844 L 114.601562 131.488281 L 115.566406 128.777344 L 116.5 126.347656 L 116.625 126.066406 L 117.902344 123.355469 L 119.210938 121.089844 L 119.511719 120.644531 L 121.746094 117.933594 L 121.921875 117.757812 L 124.632812 115.523438 L 125.078125 115.222656 L 127.34375 113.914062 L 130.054688 112.636719 L 130.335938 112.511719 L 132.765625 111.578125 L 135.476562 110.613281 L 137.828125 109.800781 L 138.183594 109.6875 L 140.894531 108.769531 L 143.605469 107.816406 L 145.476562 107.089844 L 146.316406 106.777344 L 149.027344 105.648438 L 151.738281 104.386719 L 151.738281 104.378906 L 154.449219 102.953125 L 156.585938 101.675781 L 157.160156 101.320312 L 159.871094 99.429688 L 160.472656 98.964844 L 162.574219 97.21875 L 163.625 96.253906 L 165.285156 94.574219 L 166.226562 93.542969 L 167.996094 91.34375 L 168.386719 90.832031 L 170.160156 88.121094 L 170.707031 87.132812 L 171.617188 85.410156 L 172.777344 82.699219 L 173.417969 80.808594 L 173.683594 79.988281 L 174.347656 77.277344 L 174.777344 74.574219 L 174.980469 71.863281 L 174.96875 69.152344 L 174.730469 66.441406 L 174.265625 63.730469 L 173.5625 61.019531 L 173.417969 60.59375 L 172.597656 58.308594 L 171.363281 55.597656 L 170.707031 54.429688 L 169.800781 52.886719 L 167.996094 50.34375 L 167.867188 50.179688 L 165.457031 47.46875 L 165.285156 47.300781 L 162.574219 44.890625 L 162.410156 44.757812 L 159.871094 42.957031 L 158.328125 42.046875 L 157.160156 41.394531 L 154.449219 40.15625 L 152.160156 39.335938 L 151.738281 39.195312 L 149.027344 38.492188 L 146.316406 38.027344 L 143.605469 37.789062 L 140.894531 37.773438 L 138.183594 37.980469 L 135.476562 38.410156 L 132.765625 39.070312 L 131.949219 39.335938 L 130.054688 39.980469 L 127.34375 41.140625 L 125.625 42.046875 L 124.632812 42.59375 L 121.921875 44.371094 L 121.410156 44.757812 L 119.210938 46.527344 L 118.179688 47.46875 L 116.5 49.128906 L 115.539062 50.179688 L 113.789062 52.285156 L 113.328125 52.886719 L 111.433594 55.597656 L 111.078125 56.171875 L 109.804688 58.308594 L 108.375 61.019531 L 108.367188 61.019531 L 107.105469 63.730469 L 105.980469 66.441406 L 105.664062 67.28125 L 104.941406 69.152344 L 103.984375 71.863281 L 103.070312 74.574219 L 102.953125 74.929688 L 102.140625 77.277344 L 101.179688 79.988281 L 100.242188 82.417969 L 100.121094 82.699219 L 98.84375 85.410156 L 97.53125 87.675781 L 97.230469 88.121094 L 95 90.832031 L 94.820312 91.007812 L 92.109375 93.242188 L 91.667969 93.542969 L 89.398438 94.855469 L 86.6875 96.132812 L 86.40625 96.253906 L 83.976562 97.191406 L 81.265625 98.152344 L 78.917969 98.964844 L 78.5625 99.082031 L 75.851562 99.996094 L 73.140625 100.953125 L 71.269531 101.675781 L 70.429688 101.988281 L 67.71875 103.117188 L 65.007812 104.386719 L 62.296875 105.8125 L 60.160156 107.089844 L 59.585938 107.445312 L 56.875 109.335938 Z M 56.273438 109.800781 "/>
<path fill="none" stroke-width="0.42525" stroke-linecap="round" stroke-linejoin="round" stroke="rgb(0%, 0%, 0%)" stroke-opacity="1" stroke-miterlimit="10" d="M 56.273438 109.800781 L 54.164062 111.550781 L 53.117188 112.511719 L 51.460938 114.191406 L 50.515625 115.222656 L 48.75 117.421875 L 48.359375 117.933594 L 46.582031 120.644531 L 46.039062 121.636719 L 45.128906 123.355469 L 43.96875 126.066406 L 43.328125 127.960938 L 43.058594 128.777344 L 42.398438 131.488281 L 41.96875 134.195312 L 41.761719 136.90625 L 41.777344 139.617188 L 42.015625 142.328125 L 42.480469 145.039062 L 43.183594 147.75 L 43.328125 148.171875 L 44.144531 150.460938 L 45.382812 153.171875 L 46.039062 154.339844 L 46.945312 155.882812 L 48.75 158.421875 L 48.878906 158.59375 L 51.289062 161.296875 L 51.460938 161.46875 L 54.164062 163.878906 L 54.335938 164.007812 L 56.875 165.808594 L 58.417969 166.71875 L 59.585938 167.375 L 62.296875 168.609375 L 64.582031 169.429688 L 65.007812 169.574219 L 67.71875 170.277344 L 70.429688 170.742188 L 73.140625 170.980469 L 75.851562 170.992188 L 78.5625 170.789062 L 81.265625 170.359375 L 83.976562 169.695312 L 84.796875 169.429688 L 86.6875 168.789062 L 89.398438 167.625 L 91.121094 166.71875 L 92.109375 166.171875 L 94.820312 164.398438 L 95.332031 164.007812 L 97.53125 162.238281 L 98.5625 161.296875 L 100.242188 159.636719 L 101.207031 158.59375 L 102.953125 156.480469 L 103.417969 155.882812 L 105.308594 153.171875 L 105.664062 152.597656 L 106.941406 150.460938 L 108.367188 147.75 L 109.640625 145.039062 L 110.765625 142.328125 L 111.078125 141.488281 L 111.804688 139.617188 L 112.757812 136.90625 L 113.675781 134.195312 L 113.789062 133.839844 L 114.601562 131.488281 L 115.566406 128.777344 L 116.5 126.347656 L 116.625 126.066406 L 117.902344 123.355469 L 119.210938 121.089844 L 119.511719 120.644531 L 121.746094 117.933594 L 121.921875 117.757812 L 124.632812 115.523438 L 125.078125 115.222656 L 127.34375 113.914062 L 130.054688 112.636719 L 130.335938 112.511719 L 132.765625 111.578125 L 135.476562 110.613281 L 137.828125 109.800781 L 138.183594 109.6875 L 140.894531 108.769531 L 143.605469 107.816406 L 145.476562 107.089844 L 146.316406 106.777344 L 149.027344 105.648438 L 151.738281 104.386719 L 151.738281 104.378906 L 154.449219 102.953125 L 156.585938 101.675781 L 157.160156 101.320312 L 159.871094 99.429688 L 160.472656 98.964844 L 162.574219 97.21875 L 163.625 96.253906 L 165.285156 94.574219 L 166.226562 93.542969 L 167.996094 91.34375 L 168.386719 90.832031 L 170.160156 88.121094 L 170.707031 87.132812 L 171.617188 85.410156 L 172.777344 82.699219 L 173.417969 80.808594 L 173.683594 79.988281 L 174.347656 77.277344 L 174.777344 74.574219 L 174.980469 71.863281 L 174.96875 69.152344 L 174.730469 66.441406 L 174.265625 63.730469 L 173.5625 61.019531 L 173.417969 60.59375 L 172.597656 58.308594 L 171.363281 55.597656 L 170.707031 54.429688 L 169.800781 52.886719 L 167.996094 50.34375 L 167.867188 50.179688 L 165.457031 47.46875 L 165.285156 47.300781 L 162.574219 44.890625 L 162.410156 44.757812 L 159.871094 42.957031 L 158.328125 42.046875 L 157.160156 41.394531 L 154.449219 40.15625 L 152.160156 39.335938 L 151.738281 39.195312 L 149.027344 38.492188 L 146.316406 38.027344 L 143.605469 37.789062 L 140.894531 37.773438 L 138.183594 37.980469 L 135.476562 38.410156 L 132.765625 39.070312 L 131.949219 39.335938 L 130.054688 39.980469 L 127.34375 41.140625 L 125.625 42.046875 L 124.632812 42.59375 L 121.921875 44.371094 L 121.410156 44.757812 L 119.210938 46.527344 L 118.179688 47.46875 L 116.5 49.128906 L 115.539062 50.179688 L 113.789062 52.285156 L 113.328125 52.886719 L 111.433594 55.597656 L 111.078125 56.171875 L 109.804688 58.308594 L 108.375 61.019531 L 108.367188 61.019531 L 107.105469 63.730469 L 105.980469 66.441406 L 105.664062 67.28125 L 104.941406 69.152344 L 103.984375 71.863281 L 103.070312 74.574219 L 102.953125 74.929688 L 102.140625 77.277344 L 101.179688 79.988281 L 100.242188 82.417969 L 100.121094 82.699219 L 98.84375 85.410156 L 97.53125 87.675781 L 97.230469 88.121094 L 95 90.832031 L 94.820312 91.007812 L 92.109375 93.242188 L 91.667969 93.542969 L 89.398438 94.855469 L 86.6875 96.132812 L 86.40625 96.253906 L 83.976562 97.191406 L 81.265625 98.152344 L 78.917969 98.964844 L 78.5625 99.082031 L 75.851562 99.996094 L 73.140625 100.953125 L 71.269531 101.675781 L 70.429688 101.988281 L 67.71875 103.117188 L 65.007812 104.386719 L 62.296875 105.8125 L 60.160156 107.089844 L 59.585938 107.445312 L 56.875 109.335938 L 56.273438 109.800781 "/>
<path fill-rule="nonzero" fill="rgb(72.156863%, 72.156863%, 72.156863%)" fill-opacity="1" d="M 114.097656 172.140625 L 116.5 169.429688 L 118.6875 166.71875 L 119.210938 166.007812 L 120.675781 164.007812 L 121.921875 162.15625 L 122.503906 161.296875 L 124.21875 158.59375 L 124.632812 157.890625 L 125.863281 155.882812 L 127.34375 153.308594 L 127.425781 153.171875 L 129.019531 150.460938 L 130.054688 148.65625 L 130.609375 147.75 L 132.28125 145.039062 L 132.765625 144.273438 L 134.097656 142.328125 L 135.476562 140.421875 L 136.105469 139.617188 L 138.183594 137.152344 L 138.414062 136.90625 L 140.894531 134.425781 L 141.140625 134.195312 L 143.605469 132.117188 L 144.410156 131.488281 L 146.316406 130.109375 L 148.261719 128.777344 L 149.027344 128.292969 L 151.738281 126.621094 L 152.644531 126.066406 L 154.449219 125.03125 L 157.160156 123.4375 L 157.296875 123.355469 L 159.871094 121.875 L 161.878906 120.644531 L 162.574219 120.230469 L 165.285156 118.515625 L 166.144531 117.933594 L 167.996094 116.683594 L 169.996094 115.222656 L 170.707031 114.699219 L 173.417969 112.511719 L 176.128906 110.109375 L 176.128906 172.140625 Z M 114.097656 172.140625 "/>
<path fill="none" stroke-width="0.42525" stroke-linecap="round" stroke-linejoin="round" stroke="rgb(0%, 0%, 0%)" stroke-opacity="1" stroke-miterlimit="10" d="M 114.097656 172.140625 L 116.5 169.429688 L 118.6875 166.71875 L 119.210938 166.007812 L 120.675781 164.007812 L 121.921875 162.15625 L 122.503906 161.296875 L 124.21875 158.59375 L 124.632812 157.890625 L 125.863281 155.882812 L 127.34375 153.308594 L 127.425781 153.171875 L 129.019531 150.460938 L 130.054688 148.65625 L 130.609375 147.75 L 132.28125 145.039062 L 132.765625 144.273438 L 134.097656 142.328125 L 135.476562 140.421875 L 136.105469 139.617188 L 138.183594 137.152344 L 138.414062 136.90625 L 140.894531 134.425781 L 141.140625 134.195312 L 143.605469 132.117188 L 144.410156 131.488281 L 146.316406 130.109375 L 148.261719 128.777344 L 149.027344 128.292969 L 151.738281 126.621094 L 152.644531 126.066406 L 154.449219 125.03125 L 157.160156 123.4375 L 157.296875 123.355469 L 159.871094 121.875 L 161.878906 120.644531 L 162.574219 120.230469 L 165.285156 118.515625 L 166.144531 117.933594 L 167.996094 116.683594 L 169.996094 115.222656 L 170.707031 114.699219 L 173.417969 112.511719 L 176.128906 110.109375 L 176.128906 172.140625 "/>
<path fill-rule="nonzero" fill="rgb(72.156863%, 72.156863%, 72.156863%)" fill-opacity="1" d="M 102.644531 36.625 L 100.242188 39.335938 L 98.058594 42.046875 L 97.53125 42.757812 L 96.070312 44.757812 L 94.820312 46.609375 L 94.242188 47.46875 L 92.527344 50.179688 L 92.109375 50.878906 L 90.878906 52.886719 L 89.398438 55.460938 L 89.316406 55.597656 L 87.726562 58.308594 L 86.6875 60.109375 L 86.136719 61.019531 L 84.460938 63.730469 L 83.976562 64.496094 L 82.644531 66.441406 L 81.265625 68.34375 L 80.636719 69.152344 L 78.5625 71.617188 L 78.328125 71.863281 L 75.851562 74.339844 L 75.605469 74.574219 L 73.140625 76.648438 L 72.335938 77.277344 L 70.429688 78.65625 L 68.484375 79.988281 L 67.71875 80.472656 L 65.007812 82.144531 L 64.097656 82.699219 L 62.296875 83.738281 L 59.585938 85.328125 L 59.449219 85.410156 L 56.875 86.890625 L 54.867188 88.121094 L 54.164062 88.539062 L 51.460938 90.25 L 50.597656 90.832031 L 48.75 92.082031 L 46.746094 93.542969 L 46.039062 94.070312 L 43.328125 96.253906 L 40.617188 98.65625 L 40.617188 36.625 Z M 102.644531 36.625 "/>
<path fill="none" stroke-width="0.42525" stroke-linecap="round" stroke-linejoin="round" stroke="rgb(0%, 0%, 0%)" stroke-opacity="1" stroke-miterlimit="10" d="M 102.644531 36.625 L 100.242188 39.335938 L 98.058594 42.046875 L 97.53125 42.757812 L 96.070312 44.757812 L 94.820312 46.609375 L 94.242188 47.46875 L 92.527344 50.179688 L 92.109375 50.878906 L 90.878906 52.886719 L 89.398438 55.460938 L 89.316406 55.597656 L 87.726562 58.308594 L 86.6875 60.109375 L 86.136719 61.019531 L 84.460938 63.730469 L 83.976562 64.496094 L 82.644531 66.441406 L 81.265625 68.34375 L 80.636719 69.152344 L 78.5625 71.617188 L 78.328125 71.863281 L 75.851562 74.339844 L 75.605469 74.574219 L 73.140625 76.648438 L 72.335938 77.277344 L 70.429688 78.65625 L 68.484375 79.988281 L 67.71875 80.472656 L 65.007812 82.144531 L 64.097656 82.699219 L 62.296875 83.738281 L 59.585938 85.328125 L 59.449219 85.410156 L 56.875 86.890625 L 54.867188 88.121094 L 54.164062 88.539062 L 51.460938 90.25 L 50.597656 90.832031 L 48.75 92.082031 L 46.746094 93.542969 L 46.039062 94.070312 L 43.328125 96.253906 L 40.617188 98.65625 L 40.617188 36.625 "/>
<path fill-rule="nonzero" fill="rgb(36.078431%, 36.078431%, 36.078431%)" fill-opacity="1" d="M 64.039062 115.222656 L 62.296875 116.398438 L 60.351562 117.933594 L 59.585938 118.605469 L 57.5625 120.644531 L 56.875 121.445312 L 55.417969 123.355469 L 54.164062 125.332031 L 53.746094 126.066406 L 52.503906 128.777344 L 51.589844 131.488281 L 51.460938 132.089844 L 51.023438 134.195312 L 50.761719 136.90625 L 50.796875 139.617188 L 51.132812 142.328125 L 51.460938 143.726562 L 51.785156 145.039062 L 52.8125 147.75 L 54.164062 150.398438 L 54.199219 150.460938 L 56.128906 153.171875 L 56.875 154.039062 L 58.71875 155.882812 L 59.585938 156.625 L 62.296875 158.558594 L 62.359375 158.59375 L 65.007812 159.945312 L 67.71875 160.96875 L 69.027344 161.296875 L 70.429688 161.625 L 73.140625 161.957031 L 75.851562 161.992188 L 78.5625 161.734375 L 80.664062 161.296875 L 81.265625 161.167969 L 83.976562 160.25 L 86.6875 159.007812 L 87.425781 158.59375 L 89.398438 157.335938 L 91.3125 155.882812 L 92.109375 155.191406 L 94.152344 153.171875 L 94.820312 152.40625 L 96.355469 150.460938 L 97.53125 148.71875 L 98.132812 147.75 L 99.566406 145.039062 L 100.242188 143.488281 L 100.726562 142.328125 L 101.648438 139.617188 L 102.375 136.90625 L 102.914062 134.195312 L 102.953125 133.886719 L 103.269531 131.488281 L 103.460938 128.777344 L 103.472656 126.066406 L 103.289062 123.355469 L 102.953125 121.171875 L 102.859375 120.644531 L 102.066406 117.933594 L 100.726562 115.222656 L 100.242188 114.542969 L 98.214844 112.511719 L 97.53125 112.027344 L 94.820312 110.691406 L 92.109375 109.898438 L 91.585938 109.800781 L 89.398438 109.46875 L 86.6875 109.28125 L 83.976562 109.296875 L 81.265625 109.488281 L 78.871094 109.800781 L 78.5625 109.84375 L 75.851562 110.382812 L 73.140625 111.105469 L 70.429688 112.027344 L 69.269531 112.511719 L 67.71875 113.1875 L 65.007812 114.621094 Z M 64.039062 115.222656 "/>
<path fill="none" stroke-width="0.42525" stroke-linecap="round" stroke-linejoin="round" stroke="rgb(0%, 0%, 0%)" stroke-opacity="1" stroke-miterlimit="10" d="M 64.039062 115.222656 L 62.296875 116.398438 L 60.351562 117.933594 L 59.585938 118.605469 L 57.5625 120.644531 L 56.875 121.445312 L 55.417969 123.355469 L 54.164062 125.332031 L 53.746094 126.066406 L 52.503906 128.777344 L 51.589844 131.488281 L 51.460938 132.089844 L 51.023438 134.195312 L 50.761719 136.90625 L 50.796875 139.617188 L 51.132812 142.328125 L 51.460938 143.726562 L 51.785156 145.039062 L 52.8125 147.75 L 54.164062 150.398438 L 54.199219 150.460938 L 56.128906 153.171875 L 56.875 154.039062 L 58.71875 155.882812 L 59.585938 156.625 L 62.296875 158.558594 L 62.359375 158.59375 L 65.007812 159.945312 L 67.71875 160.96875 L 69.027344 161.296875 L 70.429688 161.625 L 73.140625 161.957031 L 75.851562 161.992188 L 78.5625 161.734375 L 80.664062 161.296875 L 81.265625 161.167969 L 83.976562 160.25 L 86.6875 159.007812 L 87.425781 158.59375 L 89.398438 157.335938 L 91.3125 155.882812 L 92.109375 155.191406 L 94.152344 153.171875 L 94.820312 152.40625 L 96.355469 150.460938 L 97.53125 148.71875 L 98.132812 147.75 L 99.566406 145.039062 L 100.242188 143.488281 L 100.726562 142.328125 L 101.648438 139.617188 L 102.375 136.90625 L 102.914062 134.195312 L 102.953125 133.886719 L 103.269531 131.488281 L 103.460938 128.777344 L 103.472656 126.066406 L 103.289062 123.355469 L 102.953125 121.171875 L 102.859375 120.644531 L 102.066406 117.933594 L 100.726562 115.222656 L 100.242188 114.542969 L 98.214844 112.511719 L 97.53125 112.027344 L 94.820312 110.691406 L 92.109375 109.898438 L 91.585938 109.800781 L 89.398438 109.46875 L 86.6875 109.28125 L 83.976562 109.296875 L 81.265625 109.488281 L 78.871094 109.800781 L 78.5625 109.84375 L 75.851562 110.382812 L 73.140625 111.105469 L 70.429688 112.027344 L 69.269531 112.511719 L 67.71875 113.1875 L 65.007812 114.621094 L 64.039062 115.222656 "/>
<path fill-rule="nonzero" fill="rgb(36.078431%, 36.078431%, 36.078431%)" fill-opacity="1" d="M 113.457031 85.410156 L 113.789062 87.59375 L 113.886719 88.121094 L 114.679688 90.832031 L 116.015625 93.542969 L 116.5 94.226562 L 118.53125 96.253906 L 119.210938 96.738281 L 121.921875 98.078125 L 124.632812 98.871094 L 125.160156 98.964844 L 127.34375 99.300781 L 130.054688 99.484375 L 132.765625 99.46875 L 135.476562 99.277344 L 137.875 98.964844 L 138.183594 98.925781 L 140.894531 98.382812 L 143.605469 97.660156 L 146.316406 96.738281 L 147.476562 96.253906 L 149.027344 95.578125 L 151.738281 94.144531 L 152.707031 93.542969 L 154.449219 92.367188 L 156.394531 90.832031 L 157.160156 90.164062 L 159.179688 88.121094 L 159.871094 87.320312 L 161.324219 85.410156 L 162.574219 83.4375 L 162.996094 82.699219 L 164.242188 79.988281 L 165.15625 77.277344 L 165.285156 76.675781 L 165.722656 74.574219 L 165.980469 71.863281 L 165.949219 69.152344 L 165.613281 66.441406 L 165.285156 65.039062 L 164.957031 63.730469 L 163.933594 61.019531 L 162.574219 58.367188 L 162.546875 58.308594 L 160.613281 55.597656 L 159.871094 54.730469 L 158.027344 52.886719 L 157.160156 52.140625 L 154.449219 50.207031 L 154.386719 50.179688 L 151.738281 48.824219 L 149.027344 47.796875 L 147.714844 47.46875 L 146.316406 47.144531 L 143.605469 46.808594 L 140.894531 46.773438 L 138.183594 47.035156 L 136.078125 47.46875 L 135.476562 47.601562 L 132.765625 48.515625 L 130.054688 49.757812 L 129.320312 50.179688 L 127.34375 51.429688 L 125.433594 52.886719 L 124.632812 53.574219 L 122.59375 55.597656 L 121.921875 56.359375 L 120.386719 58.308594 L 119.210938 60.046875 L 118.613281 61.019531 L 117.179688 63.730469 L 116.5 65.28125 L 116.015625 66.441406 L 115.09375 69.152344 L 114.371094 71.863281 L 113.832031 74.574219 L 113.789062 74.878906 L 113.476562 77.277344 L 113.285156 79.988281 L 113.273438 82.699219 Z M 113.457031 85.410156 "/>
<path fill="none" stroke-width="0.42525" stroke-linecap="round" stroke-linejoin="round" stroke="rgb(0%, 0%, 0%)" stroke-opacity="1" stroke-miterlimit="10" d="M 113.457031 85.410156 L 113.789062 87.59375 L 113.886719 88.121094 L 114.679688 90.832031 L 116.015625 93.542969 L 116.5 94.226562 L 118.53125 96.253906 L 119.210938 96.738281 L 121.921875 98.078125 L 124.632812 98.871094 L 125.160156 98.964844 L 127.34375 99.300781 L 130.054688 99.484375 L 132.765625 99.46875 L 135.476562 99.277344 L 137.875 98.964844 L 138.183594 98.925781 L 140.894531 98.382812 L 143.605469 97.660156 L 146.316406 96.738281 L 147.476562 96.253906 L 149.027344 95.578125 L 151.738281 94.144531 L 152.707031 93.542969 L 154.449219 92.367188 L 156.394531 90.832031 L 157.160156 90.164062 L 159.179688 88.121094 L 159.871094 87.320312 L 161.324219 85.410156 L 162.574219 83.4375 L 162.996094 82.699219 L 164.242188 79.988281 L 165.15625 77.277344 L 165.285156 76.675781 L 165.722656 74.574219 L 165.980469 71.863281 L 165.949219 69.152344 L 165.613281 66.441406 L 165.285156 65.039062 L 164.957031 63.730469 L 163.933594 61.019531 L 162.574219 58.367188 L 162.546875 58.308594 L 160.613281 55.597656 L 159.871094 54.730469 L 158.027344 52.886719 L 157.160156 52.140625 L 154.449219 50.207031 L 154.386719 50.179688 L 151.738281 48.824219 L 149.027344 47.796875 L 147.714844 47.46875 L 146.316406 47.144531 L 143.605469 46.808594 L 140.894531 46.773438 L 138.183594 47.035156 L 136.078125 47.46875 L 135.476562 47.601562 L 132.765625 48.515625 L 130.054688 49.757812 L 129.320312 50.179688 L 127.34375 51.429688 L 125.433594 52.886719 L 124.632812 53.574219 L 122.59375 55.597656 L 121.921875 56.359375 L 120.386719 58.308594 L 119.210938 60.046875 L 118.613281 61.019531 L 117.179688 63.730469 L 116.5 65.28125 L 116.015625 66.441406 L 115.09375 69.152344 L 114.371094 71.863281 L 113.832031 74.574219 L 113.789062 74.878906 L 113.476562 77.277344 L 113.285156 79.988281 L 113.273438 82.699219 L 113.457031 85.410156 "/>
<path fill-rule="nonzero" fill="rgb(18.039216%, 18.039216%, 18.039216%)" fill-opacity="1" d="M 72.785156 123.355469 L 70.429688 124.410156 L 67.820312 126.066406 L 67.71875 126.144531 L 65.128906 128.777344 L 65.007812 128.941406 L 63.492188 131.488281 L 62.441406 134.195312 L 62.296875 135.046875 L 62.03125 136.90625 L 62.144531 139.617188 L 62.296875 140.269531 L 62.875 142.328125 L 64.285156 145.039062 L 65.007812 145.988281 L 66.769531 147.75 L 67.71875 148.472656 L 70.429688 149.878906 L 72.484375 150.460938 L 73.140625 150.609375 L 75.851562 150.726562 L 77.707031 150.460938 L 78.5625 150.316406 L 81.265625 149.265625 L 83.8125 147.75 L 83.976562 147.625 L 86.613281 145.039062 L 86.6875 144.933594 L 88.347656 142.328125 L 89.398438 139.972656 L 89.542969 139.617188 L 90.148438 136.90625 L 90.320312 134.195312 L 90.011719 131.488281 L 89.398438 129.503906 L 89.113281 128.777344 L 87.261719 126.066406 L 86.6875 125.492188 L 83.976562 123.644531 L 83.253906 123.355469 L 81.265625 122.742188 L 78.5625 122.433594 L 75.851562 122.605469 L 73.140625 123.214844 Z M 72.785156 123.355469 "/>
<path fill="none" stroke-width="0.42525" stroke-linecap="round" stroke-linejoin="round" stroke="rgb(0%, 0%, 0%)" stroke-opacity="1" stroke-miterlimit="10" d="M 72.785156 123.355469 L 70.429688 124.410156 L 67.820312 126.066406 L 67.71875 126.144531 L 65.128906 128.777344 L 65.007812 128.941406 L 63.492188 131.488281 L 62.441406 134.195312 L 62.296875 135.046875 L 62.03125 136.90625 L 62.144531 139.617188 L 62.296875 140.269531 L 62.875 142.328125 L 64.285156 145.039062 L 65.007812 145.988281 L 66.769531 147.75 L 67.71875 148.472656 L 70.429688 149.878906 L 72.484375 150.460938 L 73.140625 150.609375 L 75.851562 150.726562 L 77.707031 150.460938 L 78.5625 150.316406 L 81.265625 149.265625 L 83.8125 147.75 L 83.976562 147.625 L 86.613281 145.039062 L 86.6875 144.933594 L 88.347656 142.328125 L 89.398438 139.972656 L 89.542969 139.617188 L 90.148438 136.90625 L 90.320312 134.195312 L 90.011719 131.488281 L 89.398438 129.503906 L 89.113281 128.777344 L 87.261719 126.066406 L 86.6875 125.492188 L 83.976562 123.644531 L 83.253906 123.355469 L 81.265625 122.742188 L 78.5625 122.433594 L 75.851562 122.605469 L 73.140625 123.214844 L 72.785156 123.355469 "/>
<path fill-rule="nonzero" fill="rgb(18.039216%, 18.039216%, 18.039216%)" fill-opacity="1" d="M 126.730469 77.277344 L 127.34375 79.265625 L 127.632812 79.988281 L 129.484375 82.699219 L 130.054688 83.273438 L 132.765625 85.125 L 133.492188 85.410156 L 135.476562 86.023438 L 138.183594 86.332031 L 140.894531 86.160156 L 143.605469 85.554688 L 143.960938 85.410156 L 146.316406 84.359375 L 148.925781 82.699219 L 149.027344 82.625 L 151.613281 79.988281 L 151.738281 79.824219 L 153.253906 77.277344 L 154.304688 74.574219 L 154.449219 73.71875 L 154.714844 71.863281 L 154.597656 69.152344 L 154.449219 68.496094 L 153.867188 66.441406 L 152.460938 63.730469 L 151.738281 62.78125 L 149.976562 61.019531 L 149.027344 60.292969 L 146.316406 58.886719 L 144.261719 58.308594 L 143.605469 58.15625 L 140.894531 58.042969 L 139.035156 58.308594 L 138.183594 58.449219 L 135.476562 59.503906 L 132.929688 61.019531 L 132.765625 61.140625 L 130.132812 63.730469 L 130.054688 63.832031 L 128.398438 66.441406 L 127.34375 68.796875 L 127.203125 69.152344 L 126.59375 71.863281 L 126.421875 74.574219 Z M 126.730469 77.277344 "/>
<path fill="none" stroke-width="0.42525" stroke-linecap="round" stroke-linejoin="round" stroke="rgb(0%, 0%, 0%)" stroke-opacity="1" stroke-miterlimit="10" d="M 126.730469 77.277344 L 127.34375 79.265625 L 127.632812 79.988281 L 129.484375 82.699219 L 130.054688 83.273438 L 132.765625 85.125 L 133.492188 85.410156 L 135.476562 86.023438 L 138.183594 86.332031 L 140.894531 86.160156 L 143.605469 85.554688 L 143.960938 85.410156 L 146.316406 84.359375 L 148.925781 82.699219 L 149.027344 82.625 L 151.613281 79.988281 L 151.738281 79.824219 L 153.253906 77.277344 L 154.304688 74.574219 L 154.449219 73.71875 L 154.714844 71.863281 L 154.597656 69.152344 L 154.449219 68.496094 L 153.867188 66.441406 L 152.460938 63.730469 L 151.738281 62.78125 L 149.976562 61.019531 L 149.027344 60.292969 L 146.316406 58.886719 L 144.261719 58.308594 L 143.605469 58.15625 L 140.894531 58.042969 L 139.035156 58.308594 L 138.183594 58.449219 L 135.476562 59.503906 L 132.929688 61.019531 L 132.765625 61.140625 L 130.132812 63.730469 L 130.054688 63.832031 L 128.398438 66.441406 L 127.34375 68.796875 L 127.203125 69.152344 L 126.59375 71.863281 L 126.421875 74.574219 L 126.730469 77.277344 "/>
<path fill-rule="nonzero" fill="rgb(90.196078%, 90.196078%, 90.196078%)" fill-opacity="1" d="M 176.128906 145.632812 L 173.417969 147.578125 L 173.1875 147.75 L 170.707031 149.632812 L 169.613281 150.460938 L 167.996094 151.765625 L 166.28125 153.171875 L 165.285156 154.039062 L 163.242188 155.882812 L 162.574219 156.507812 L 160.5 158.59375 L 159.871094 159.253906 L 158.027344 161.296875 L 157.160156 162.292969 L 155.753906 164.007812 L 154.449219 165.625 L 153.621094 166.71875 L 151.738281 169.195312 L 151.566406 169.429688 L 149.621094 172.140625 L 176.128906 172.140625 Z M 176.128906 145.632812 "/>
<path fill="none" stroke-width="0.42525" stroke-linecap="round" stroke-linejoin="round" stroke="rgb(0%, 0%, 0%)" stroke-opacity="1" stroke-miterlimit="10" d="M 176.128906 145.632812 L 173.417969 147.578125 L 173.1875 147.75 L 170.707031 149.632812 L 169.613281 150.460938 L 167.996094 151.765625 L 166.28125 153.171875 L 165.285156 154.039062 L 163.242188 155.882812 L 162.574219 156.507812 L 160.5 158.59375 L 159.871094 159.253906 L 158.027344 161.296875 L 157.160156 162.292969 L 155.753906 164.007812 L 154.449219 165.625 L 153.621094 166.71875 L 151.738281 169.195312 L 151.566406 169.429688 L 149.621094 172.140625 L 176.128906 172.140625 "/>
<path fill-rule="nonzero" fill="rgb(90.196078%, 90.196078%, 90.196078%)" fill-opacity="1" d="M 40.617188 63.136719 L 43.328125 61.1875 L 43.558594 61.019531 L 46.039062 59.132812 L 47.128906 58.308594 L 48.75 57.003906 L 50.460938 55.597656 L 51.460938 54.730469 L 53.5 52.886719 L 54.164062 52.257812 L 56.246094 50.179688 L 56.875 49.511719 L 58.71875 47.46875 L 59.585938 46.472656 L 60.992188 44.757812 L 62.296875 43.140625 L 63.121094 42.046875 L 65.007812 39.570312 L 65.179688 39.335938 L 67.125 36.625 L 40.617188 36.625 Z M 40.617188 63.136719 "/>
<path fill="none" stroke-width="0.42525" stroke-linecap="round" stroke-linejoin="round" stroke="rgb(0%, 0%, 0%)" stroke-opacity="1" stroke-miterlimit="10" d="M 40.617188 63.136719 L 43.328125 61.1875 L 43.558594 61.019531 L 46.039062 59.132812 L 47.128906 58.308594 L 48.75 57.003906 L 50.460938 55.597656 L 51.460938 54.730469 L 53.5 52.886719 L 54.164062 52.257812 L 56.246094 50.179688 L 56.875 49.511719 L 58.71875 47.46875 L 59.585938 46.472656 L 60.992188 44.757812 L 62.296875 43.140625 L 63.121094 42.046875 L 65.007812 39.570312 L 65.179688 39.335938 L 67.125 36.625 L 40.617188 36.625 "/>
</svg>
