<?xml version="1.0" encoding="UTF-8"?>
<svg xmlns="http://www.w3.org/2000/svg" xmlns:xlink="http://www.w3.org/1999/xlink" width="1019pt" height="653pt" viewBox="0 0 1019 653">
<defs>
<g>
<g id="glyph-0-0">
<path d="M 6.03125 -15.875 C 4.59375 -15.875 3.265625 -15.21875 2.453125 -14.140625 C 1.453125 -12.734375 0.9375 -10.625 0.9375 -7.6875 C 0.9375 -2.328125 2.703125 0.5 6.03125 0.5 C 9.328125 0.5 11.125 -2.328125 11.125 -7.546875 C 11.125 -10.625 10.640625 -12.6875 9.609375 -14.140625 C 8.796875 -15.234375 7.515625 -15.875 6.03125 -15.875 Z M 6.03125 -14.15625 C 8.125 -14.15625 9.15625 -12.03125 9.15625 -7.734375 C 9.15625 -3.203125 8.140625 -1.09375 6 -1.09375 C 3.953125 -1.09375 2.921875 -3.296875 2.921875 -7.65625 C 2.921875 -12.03125 3.953125 -14.15625 6.03125 -14.15625 Z M 6.03125 -14.15625 "/>
</g>
<g id="glyph-0-1">
<path d="M 5.6875 -11.3125 L 5.6875 0 L 7.625 0 L 7.625 -15.875 L 6.34375 -15.875 C 5.65625 -13.4375 5.21875 -13.109375 2.234375 -12.703125 L 2.234375 -11.3125 Z M 5.6875 -11.3125 "/>
</g>
<g id="glyph-0-2">
<path d="M 11.109375 -1.90625 L 2.921875 -1.90625 C 3.125 -3.234375 3.8125 -4.0625 5.734375 -5.21875 L 7.921875 -6.453125 C 10.09375 -7.65625 11.21875 -9.28125 11.21875 -11.234375 C 11.21875 -12.5625 10.6875 -13.78125 9.765625 -14.640625 C 8.84375 -15.484375 7.703125 -15.875 6.234375 -15.875 C 4.265625 -15.875 2.78125 -15.171875 1.9375 -13.8125 C 1.390625 -12.96875 1.140625 -11.984375 1.09375 -10.390625 L 3.03125 -10.390625 C 3.09375 -11.453125 3.234375 -12.09375 3.484375 -12.625 C 4 -13.59375 5 -14.1875 6.171875 -14.1875 C 7.921875 -14.1875 9.25 -12.90625 9.25 -11.203125 C 9.25 -9.921875 8.515625 -8.828125 7.140625 -8.03125 L 5.109375 -6.84375 C 1.859375 -4.984375 0.921875 -3.484375 0.75 -0.015625 L 11.109375 -0.015625 Z M 11.109375 -1.90625 "/>
</g>
<g id="glyph-0-3">
<path d="M 4.859375 -7.3125 L 5.90625 -7.3125 C 8.015625 -7.3125 9.125 -6.328125 9.125 -4.40625 C 9.125 -2.421875 7.921875 -1.203125 5.921875 -1.203125 C 3.796875 -1.203125 2.765625 -2.28125 2.640625 -4.609375 L 0.703125 -4.609375 C 0.796875 -3.34375 1.015625 -2.5 1.390625 -1.796875 C 2.1875 -0.265625 3.703125 0.5 5.84375 0.5 C 9.046875 0.5 11.109375 -1.421875 11.109375 -4.4375 C 11.109375 -6.453125 10.34375 -7.546875 8.46875 -8.203125 C 9.921875 -8.796875 10.640625 -9.90625 10.640625 -11.5 C 10.640625 -14.21875 8.875 -15.875 5.90625 -15.875 C 2.765625 -15.875 1.09375 -14.109375 1.03125 -10.75 L 2.96875 -10.75 C 2.984375 -11.71875 3.078125 -12.265625 3.3125 -12.75 C 3.75 -13.65625 4.71875 -14.1875 5.921875 -14.1875 C 7.640625 -14.1875 8.671875 -13.15625 8.671875 -11.4375 C 8.671875 -10.3125 8.28125 -9.640625 7.421875 -9.265625 C 6.890625 -9.046875 6.1875 -8.953125 4.859375 -8.9375 Z M 4.859375 -7.3125 "/>
</g>
<g id="glyph-0-4">
<path d="M 1.1875 -16 L 1.1875 0 L 2.828125 0 L 2.828125 -1.46875 C 3.703125 -0.125 4.875 0.5 6.46875 0.5 C 9.5 0.5 11.484375 -1.96875 11.484375 -5.796875 C 11.484375 -9.53125 9.609375 -11.828125 6.5625 -11.828125 C 4.984375 -11.828125 3.859375 -11.234375 3 -9.9375 L 3 -16 Z M 6.21875 -10.125 C 8.25 -10.125 9.578125 -8.34375 9.578125 -5.59375 C 9.578125 -2.984375 8.203125 -1.203125 6.21875 -1.203125 C 4.265625 -1.203125 3 -2.96875 3 -5.65625 C 3 -8.359375 4.265625 -10.125 6.21875 -10.125 Z M 6.21875 -10.125 "/>
</g>
<g id="glyph-0-5">
</g>
<g id="glyph-0-6">
<path d="M 11.71875 -7.75 L 1.09375 -7.75 L 1.09375 -6.21875 L 11.71875 -6.21875 Z M 11.71875 -3.96875 L 1.09375 -3.96875 L 1.09375 -2.4375 L 11.71875 -2.4375 Z M 11.71875 -3.96875 "/>
</g>
<g id="glyph-0-7">
<path d="M 4.1875 -2.28125 L 1.90625 -2.28125 L 1.90625 0 L 4.1875 0 Z M 4.1875 -2.28125 "/>
</g>
<g id="glyph-0-8">
<path d="M 10.453125 -15.5625 L 2.421875 -15.5625 L 1.25 -7.09375 L 3.03125 -7.09375 C 3.921875 -8.171875 4.671875 -8.546875 5.90625 -8.546875 C 7.984375 -8.546875 9.28125 -7.109375 9.28125 -4.8125 C 9.28125 -2.5625 7.984375 -1.203125 5.890625 -1.203125 C 4.1875 -1.203125 3.15625 -2.0625 2.703125 -3.8125 L 0.765625 -3.8125 C 1.03125 -2.546875 1.25 -1.9375 1.71875 -1.359375 C 2.59375 -0.171875 4.171875 0.5 5.921875 0.5 C 9.0625 0.5 11.265625 -1.78125 11.265625 -5.078125 C 11.265625 -8.140625 9.21875 -10.25 6.234375 -10.25 C 5.140625 -10.25 4.265625 -9.96875 3.359375 -9.3125 L 3.96875 -13.65625 L 10.453125 -13.65625 Z M 10.453125 -15.5625 "/>
</g>
<g id="glyph-0-9">
<path d="M 11.421875 -15.5625 L 1.015625 -15.5625 L 1.015625 -13.65625 L 9.421875 -13.65625 C 5.703125 -8.359375 4.1875 -5.109375 3.03125 0 L 5.09375 0 C 5.953125 -4.984375 7.90625 -9.265625 11.421875 -13.9375 Z M 11.421875 -15.5625 "/>
</g>
</g>
</defs>
<path fill="none" stroke-width="1.701" stroke-linecap="round" stroke-linejoin="round" stroke="rgb(0%, 0%, 0%)" stroke-opacity="1" stroke-miterlimit="10" d="M 117.6875 533.871094 L 943.519531 533.871094 "/>
<path fill="none" stroke-width="1.701" stroke-linecap="round" stroke-linejoin="round" stroke="rgb(0%, 0%, 0%)" stroke-opacity="1" stroke-miterlimit="10" d="M 117.6875 533.871094 L 117.6875 550.378906 "/>
<g fill="rgb(0%, 0%, 0%)" fill-opacity="1">
<use xlink:href="#glyph-0-0" x="111.6875" y="576.62207"/>
</g>
<path fill="none" stroke-width="1.701" stroke-linecap="round" stroke-linejoin="round" stroke="rgb(0%, 0%, 0%)" stroke-opacity="1" stroke-miterlimit="10" d="M 117.6875 533.871094 L 117.6875 550.378906 "/>
<path fill="none" stroke-width="1.701" stroke-linecap="round" stroke-linejoin="round" stroke="rgb(0%, 0%, 0%)" stroke-opacity="1" stroke-miterlimit="10" d="M 392.964844 533.871094 L 392.964844 550.378906 "/>
<g fill="rgb(0%, 0%, 0%)" fill-opacity="1">
<use xlink:href="#glyph-0-1" x="386.964844" y="576.62207"/>
</g>
<path fill="none" stroke-width="1.701" stroke-linecap="round" stroke-linejoin="round" stroke="rgb(0%, 0%, 0%)" stroke-opacity="1" stroke-miterlimit="10" d="M 392.964844 533.871094 L 392.964844 550.378906 "/>
<path fill="none" stroke-width="1.701" stroke-linecap="round" stroke-linejoin="round" stroke="rgb(0%, 0%, 0%)" stroke-opacity="1" stroke-miterlimit="10" d="M 668.242188 533.871094 L 668.242188 550.378906 "/>
<g fill="rgb(0%, 0%, 0%)" fill-opacity="1">
<use xlink:href="#glyph-0-2" x="662.242188" y="576.62207"/>
</g>
<path fill="none" stroke-width="1.701" stroke-linecap="round" stroke-linejoin="round" stroke="rgb(0%, 0%, 0%)" stroke-opacity="1" stroke-miterlimit="10" d="M 668.242188 533.871094 L 668.242188 550.378906 "/>
<path fill="none" stroke-width="1.701" stroke-linecap="round" stroke-linejoin="round" stroke="rgb(0%, 0%, 0%)" stroke-opacity="1" stroke-miterlimit="10" d="M 943.519531 533.871094 L 943.519531 550.378906 "/>
<g fill="rgb(0%, 0%, 0%)" fill-opacity="1">
<use xlink:href="#glyph-0-3" x="937.519531" y="576.62207"/>
</g>
<path fill="none" stroke-width="1.701" stroke-linecap="round" stroke-linejoin="round" stroke="rgb(0%, 0%, 0%)" stroke-opacity="1" stroke-miterlimit="10" d="M 943.519531 533.871094 L 943.519531 550.378906 "/>
<path fill="none" stroke-width="1.701" stroke-linecap="round" stroke-linejoin="round" stroke="rgb(0%, 0%, 0%)" stroke-opacity="1" stroke-miterlimit="10" d="M 117.6875 533.871094 L 117.6875 75.078125 "/>
<path fill="none" stroke-width="1.701" stroke-linecap="round" stroke-linejoin="round" stroke="rgb(0%, 0%, 0%)" stroke-opacity="1" stroke-miterlimit="10" d="M 117.6875 533.871094 L 101.179688 533.871094 "/>
<g fill="rgb(0%, 0%, 0%)" fill-opacity="1">
<use xlink:href="#glyph-0-0" x="79.988281" y="541.739258"/>
</g>
<path fill="none" stroke-width="1.701" stroke-linecap="round" stroke-linejoin="round" stroke="rgb(0%, 0%, 0%)" stroke-opacity="1" stroke-miterlimit="10" d="M 117.6875 533.871094 L 101.179688 533.871094 "/>
<path fill="none" stroke-width="1.701" stroke-linecap="round" stroke-linejoin="round" stroke="rgb(0%, 0%, 0%)" stroke-opacity="1" stroke-miterlimit="10" d="M 117.6875 380.941406 L 101.179688 380.941406 "/>
<g fill="rgb(0%, 0%, 0%)" fill-opacity="1">
<use xlink:href="#glyph-0-1" x="79.988281" y="388.80957"/>
</g>
<path fill="none" stroke-width="1.701" stroke-linecap="round" stroke-linejoin="round" stroke="rgb(0%, 0%, 0%)" stroke-opacity="1" stroke-miterlimit="10" d="M 117.6875 380.941406 L 101.179688 380.941406 "/>
<path fill="none" stroke-width="1.701" stroke-linecap="round" stroke-linejoin="round" stroke="rgb(0%, 0%, 0%)" stroke-opacity="1" stroke-miterlimit="10" d="M 117.6875 228.007812 L 101.179688 228.007812 "/>
<g fill="rgb(0%, 0%, 0%)" fill-opacity="1">
<use xlink:href="#glyph-0-2" x="79.988281" y="235.875977"/>
</g>
<path fill="none" stroke-width="1.701" stroke-linecap="round" stroke-linejoin="round" stroke="rgb(0%, 0%, 0%)" stroke-opacity="1" stroke-miterlimit="10" d="M 117.6875 228.007812 L 101.179688 228.007812 "/>
<path fill="none" stroke-width="1.701" stroke-linecap="round" stroke-linejoin="round" stroke="rgb(0%, 0%, 0%)" stroke-opacity="1" stroke-miterlimit="10" d="M 117.6875 75.078125 L 101.179688 75.078125 "/>
<g fill="rgb(0%, 0%, 0%)" fill-opacity="1">
<use xlink:href="#glyph-0-3" x="79.988281" y="82.946289"/>
</g>
<path fill="none" stroke-width="1.701" stroke-linecap="round" stroke-linejoin="round" stroke="rgb(0%, 0%, 0%)" stroke-opacity="1" stroke-miterlimit="10" d="M 117.6875 75.078125 L 101.179688 75.078125 "/>
<path fill="none" stroke-width="1.701" stroke-linecap="round" stroke-linejoin="round" stroke="rgb(0%, 0%, 0%)" stroke-opacity="1" stroke-miterlimit="10" d="M 117.6875 533.871094 L 943.519531 533.871094 L 943.519531 75.078125 L 117.6875 75.078125 L 117.6875 533.871094 "/>
<path fill="none" stroke-width="1.701" stroke-linecap="round" stroke-linejoin="round" stroke="rgb(0%, 0%, 0%)" stroke-opacity="1" stroke-miterlimit="10" d="M 120.4375 380.941406 L 943.519531 380.941406 "/>
<path fill="none" stroke-width="1.701" stroke-linecap="round" stroke-linejoin="round" stroke="rgb(0%, 0%, 0%)" stroke-opacity="1" stroke-miterlimit="10" d="M 120.4375 460.820312 L 122.027344 454.546875 "/>
<path fill="none" stroke-width="1.701" stroke-linecap="round" stroke-linejoin="round" stroke="rgb(0%, 0%, 0%)" stroke-opacity="1" stroke-miterlimit="10" d="M 123.816406 448.335938 L 125.941406 442.859375 L 126.214844 442.324219 "/>
<path fill="none" stroke-width="1.701" stroke-linecap="round" stroke-linejoin="round" stroke="rgb(0%, 0%, 0%)" stroke-opacity="1" stroke-miterlimit="10" d="M 129.242188 436.605469 L 131.441406 433.082031 L 132.8125 431.214844 "/>
<path fill="none" stroke-width="1.701" stroke-linecap="round" stroke-linejoin="round" stroke="rgb(0%, 0%, 0%)" stroke-opacity="1" stroke-miterlimit="10" d="M 136.859375 426.164062 L 136.945312 426.058594 L 139.695312 423.144531 L 141.375 421.527344 "/>
<path fill="none" stroke-width="1.701" stroke-linecap="round" stroke-linejoin="round" stroke="rgb(0%, 0%, 0%)" stroke-opacity="1" stroke-miterlimit="10" d="M 146.226562 417.25 L 147.984375 415.863281 L 150.734375 413.792969 L 151.382812 413.335938 "/>
<path fill="none" stroke-width="1.701" stroke-linecap="round" stroke-linejoin="round" stroke="rgb(0%, 0%, 0%)" stroke-opacity="1" stroke-miterlimit="10" d="M 156.734375 409.695312 L 158.988281 408.289062 L 161.738281 406.671875 L 162.285156 406.363281 "/>
<path fill="none" stroke-width="1.701" stroke-linecap="round" stroke-linejoin="round" stroke="rgb(0%, 0%, 0%)" stroke-opacity="1" stroke-miterlimit="10" d="M 167.960938 403.257812 L 169.992188 402.207031 L 172.742188 400.847656 L 173.753906 400.371094 "/>
<path fill="none" stroke-width="1.701" stroke-linecap="round" stroke-linejoin="round" stroke="rgb(0%, 0%, 0%)" stroke-opacity="1" stroke-miterlimit="10" d="M 179.644531 397.679688 L 180.996094 397.089844 L 183.746094 395.925781 L 185.605469 395.160156 "/>
<path fill="none" stroke-width="1.701" stroke-linecap="round" stroke-linejoin="round" stroke="rgb(0%, 0%, 0%)" stroke-opacity="1" stroke-miterlimit="10" d="M 191.621094 392.773438 L 192 392.625 L 194.753906 391.589844 L 197.503906 390.585938 L 197.691406 390.519531 "/>
<path fill="none" stroke-width="1.701" stroke-linecap="round" stroke-linejoin="round" stroke="rgb(0%, 0%, 0%)" stroke-opacity="1" stroke-miterlimit="10" d="M 203.8125 388.414062 L 205.789062 387.738281 L 208.539062 386.863281 L 209.960938 386.394531 "/>
<path fill="none" stroke-width="1.701" stroke-linecap="round" stroke-linejoin="round" stroke="rgb(0%, 0%, 0%)" stroke-opacity="1" stroke-miterlimit="10" d="M 216.140625 384.472656 L 216.792969 384.273438 L 219.542969 383.433594 L 222.296875 382.65625 L 222.351562 382.640625 "/>
<path fill="none" stroke-width="1.701" stroke-linecap="round" stroke-linejoin="round" stroke="rgb(0%, 0%, 0%)" stroke-opacity="1" stroke-miterlimit="10" d="M 228.574219 380.859375 L 230.550781 380.324219 L 233.300781 379.582031 L 234.828125 379.1875 "/>
<path fill="none" stroke-width="1.701" stroke-linecap="round" stroke-linejoin="round" stroke="rgb(0%, 0%, 0%)" stroke-opacity="1" stroke-miterlimit="10" d="M 241.09375 377.5625 L 241.554688 377.445312 L 247.054688 376.085938 L 247.375 376.007812 "/>
<path fill="none" stroke-width="1.701" stroke-linecap="round" stroke-linejoin="round" stroke="rgb(0%, 0%, 0%)" stroke-opacity="1" stroke-miterlimit="10" d="M 253.671875 374.496094 L 255.308594 374.109375 L 258.09375 373.464844 L 259.980469 373.042969 "/>
<path fill="none" stroke-width="1.701" stroke-linecap="round" stroke-linejoin="round" stroke="rgb(0%, 0%, 0%)" stroke-opacity="1" stroke-miterlimit="10" d="M 266.296875 371.628906 L 266.347656 371.617188 L 271.847656 370.453125 L 272.628906 370.289062 "/>
<path fill="none" stroke-width="1.701" stroke-linecap="round" stroke-linejoin="round" stroke="rgb(0%, 0%, 0%)" stroke-opacity="1" stroke-miterlimit="10" d="M 278.964844 368.964844 L 280.101562 368.738281 L 282.855469 368.1875 L 285.3125 367.695312 "/>
<path fill="none" stroke-width="1.701" stroke-linecap="round" stroke-linejoin="round" stroke="rgb(0%, 0%, 0%)" stroke-opacity="1" stroke-miterlimit="10" d="M 291.664062 366.433594 L 293.859375 366.019531 L 296.609375 365.5 L 298.023438 365.234375 "/>
<path fill="none" stroke-width="1.701" stroke-linecap="round" stroke-linejoin="round" stroke="rgb(0%, 0%, 0%)" stroke-opacity="1" stroke-miterlimit="10" d="M 304.390625 364.0625 L 304.863281 363.980469 L 307.613281 363.496094 L 310.363281 362.976562 L 310.757812 362.910156 "/>
<path fill="none" stroke-width="1.701" stroke-linecap="round" stroke-linejoin="round" stroke="rgb(0%, 0%, 0%)" stroke-opacity="1" stroke-miterlimit="10" d="M 317.140625 361.820312 L 318.652344 361.554688 L 321.402344 361.066406 L 323.519531 360.71875 "/>
<path fill="none" stroke-width="1.701" stroke-linecap="round" stroke-linejoin="round" stroke="rgb(0%, 0%, 0%)" stroke-opacity="1" stroke-miterlimit="10" d="M 329.90625 359.667969 L 332.40625 359.253906 L 335.15625 358.800781 L 336.292969 358.613281 "/>
<path fill="none" stroke-width="1.701" stroke-linecap="round" stroke-linejoin="round" stroke="rgb(0%, 0%, 0%)" stroke-opacity="1" stroke-miterlimit="10" d="M 342.691406 357.617188 L 343.410156 357.507812 L 346.164062 357.054688 L 348.914062 356.632812 L 349.082031 356.605469 "/>
<path fill="none" stroke-width="1.701" stroke-linecap="round" stroke-linejoin="round" stroke="rgb(0%, 0%, 0%)" stroke-opacity="1" stroke-miterlimit="10" d="M 355.484375 355.640625 L 357.167969 355.402344 L 359.917969 354.984375 L 361.890625 354.703125 "/>
<path fill="none" stroke-width="1.701" stroke-linecap="round" stroke-linejoin="round" stroke="rgb(0%, 0%, 0%)" stroke-opacity="1" stroke-miterlimit="10" d="M 368.296875 353.773438 L 370.957031 353.398438 L 373.707031 353.007812 L 374.703125 352.867188 "/>
<path fill="none" stroke-width="1.701" stroke-linecap="round" stroke-linejoin="round" stroke="rgb(0%, 0%, 0%)" stroke-opacity="1" stroke-miterlimit="10" d="M 381.113281 351.960938 L 381.960938 351.84375 L 384.710938 351.453125 L 387.460938 351.097656 L 387.527344 351.089844 "/>
<path fill="none" stroke-width="1.701" stroke-linecap="round" stroke-linejoin="round" stroke="rgb(0%, 0%, 0%)" stroke-opacity="1" stroke-miterlimit="10" d="M 393.945312 350.226562 L 395.714844 350 L 398.464844 349.609375 L 400.359375 349.363281 "/>
<path fill="none" stroke-width="1.701" stroke-linecap="round" stroke-linejoin="round" stroke="rgb(0%, 0%, 0%)" stroke-opacity="1" stroke-miterlimit="10" d="M 406.78125 348.535156 L 409.472656 348.21875 L 412.222656 347.863281 L 413.203125 347.734375 "/>
<path fill="none" stroke-width="1.701" stroke-linecap="round" stroke-linejoin="round" stroke="rgb(0%, 0%, 0%)" stroke-opacity="1" stroke-miterlimit="10" d="M 419.625 346.925781 L 420.476562 346.824219 L 423.257812 346.46875 L 426.011719 346.144531 L 426.050781 346.140625 "/>
<path fill="none" stroke-width="1.701" stroke-linecap="round" stroke-linejoin="round" stroke="rgb(0%, 0%, 0%)" stroke-opacity="1" stroke-miterlimit="10" d="M 432.476562 345.351562 L 434.265625 345.144531 L 437.015625 344.820312 L 438.90625 344.597656 "/>
<path fill="none" stroke-width="1.701" stroke-linecap="round" stroke-linejoin="round" stroke="rgb(0%, 0%, 0%)" stroke-opacity="1" stroke-miterlimit="10" d="M 445.335938 343.839844 L 448.019531 343.523438 L 450.769531 343.234375 L 451.765625 343.117188 "/>
<path fill="none" stroke-width="1.701" stroke-linecap="round" stroke-linejoin="round" stroke="rgb(0%, 0%, 0%)" stroke-opacity="1" stroke-miterlimit="10" d="M 458.199219 342.382812 L 459.023438 342.292969 L 461.777344 341.972656 L 464.527344 341.679688 L 464.632812 341.667969 "/>
<path fill="none" stroke-width="1.701" stroke-linecap="round" stroke-linejoin="round" stroke="rgb(0%, 0%, 0%)" stroke-opacity="1" stroke-miterlimit="10" d="M 471.066406 340.957031 L 472.78125 340.773438 L 475.53125 340.480469 L 477.5 340.253906 "/>
<path fill="none" stroke-width="1.701" stroke-linecap="round" stroke-linejoin="round" stroke="rgb(0%, 0%, 0%)" stroke-opacity="1" stroke-miterlimit="10" d="M 483.9375 339.5625 L 486.566406 339.285156 L 489.320312 338.992188 L 490.375 338.882812 "/>
<path fill="none" stroke-width="1.701" stroke-linecap="round" stroke-linejoin="round" stroke="rgb(0%, 0%, 0%)" stroke-opacity="1" stroke-miterlimit="10" d="M 496.816406 338.230469 L 497.574219 338.152344 L 500.324219 337.859375 L 503.074219 337.570312 L 503.253906 337.550781 "/>
<path fill="none" stroke-width="1.701" stroke-linecap="round" stroke-linejoin="round" stroke="rgb(0%, 0%, 0%)" stroke-opacity="1" stroke-miterlimit="10" d="M 509.695312 336.914062 L 511.328125 336.761719 L 514.078125 336.46875 L 516.136719 336.277344 "/>
<path fill="none" stroke-width="1.701" stroke-linecap="round" stroke-linejoin="round" stroke="rgb(0%, 0%, 0%)" stroke-opacity="1" stroke-miterlimit="10" d="M 522.578125 335.636719 L 525.085938 335.402344 L 527.835938 335.109375 L 529.019531 335 "/>
<path fill="none" stroke-width="1.701" stroke-linecap="round" stroke-linejoin="round" stroke="rgb(0%, 0%, 0%)" stroke-opacity="1" stroke-miterlimit="10" d="M 535.464844 334.394531 L 536.121094 334.332031 L 538.871094 334.074219 L 541.625 333.816406 L 541.910156 333.789062 "/>
<path fill="none" stroke-width="1.701" stroke-linecap="round" stroke-linejoin="round" stroke="rgb(0%, 0%, 0%)" stroke-opacity="1" stroke-miterlimit="10" d="M 548.355469 333.179688 L 549.878906 333.039062 L 552.628906 332.777344 L 554.796875 332.574219 "/>
<path fill="none" stroke-width="1.701" stroke-linecap="round" stroke-linejoin="round" stroke="rgb(0%, 0%, 0%)" stroke-opacity="1" stroke-miterlimit="10" d="M 561.242188 331.972656 L 563.632812 331.777344 L 566.382812 331.515625 L 567.691406 331.394531 "/>
<path fill="none" stroke-width="1.701" stroke-linecap="round" stroke-linejoin="round" stroke="rgb(0%, 0%, 0%)" stroke-opacity="1" stroke-miterlimit="10" d="M 574.136719 330.820312 L 574.636719 330.773438 L 577.390625 330.546875 L 580.140625 330.285156 L 580.585938 330.25 "/>
<path fill="none" stroke-width="1.701" stroke-linecap="round" stroke-linejoin="round" stroke="rgb(0%, 0%, 0%)" stroke-opacity="1" stroke-miterlimit="10" d="M 587.035156 329.6875 L 588.425781 329.574219 L 591.175781 329.316406 L 593.484375 329.125 "/>
<path fill="none" stroke-width="1.701" stroke-linecap="round" stroke-linejoin="round" stroke="rgb(0%, 0%, 0%)" stroke-opacity="1" stroke-miterlimit="10" d="M 599.933594 328.589844 L 602.179688 328.378906 L 604.933594 328.152344 L 606.382812 328.03125 "/>
<path fill="none" stroke-width="1.701" stroke-linecap="round" stroke-linejoin="round" stroke="rgb(0%, 0%, 0%)" stroke-opacity="1" stroke-miterlimit="10" d="M 612.835938 327.5 L 613.1875 327.472656 L 618.6875 327.019531 L 619.289062 326.96875 "/>
<path fill="none" stroke-width="1.701" stroke-linecap="round" stroke-linejoin="round" stroke="rgb(0%, 0%, 0%)" stroke-opacity="1" stroke-miterlimit="10" d="M 625.738281 326.4375 L 626.941406 326.339844 L 629.691406 326.113281 L 632.191406 325.90625 "/>
<path fill="none" stroke-width="1.701" stroke-linecap="round" stroke-linejoin="round" stroke="rgb(0%, 0%, 0%)" stroke-opacity="1" stroke-miterlimit="10" d="M 638.640625 325.375 L 640.699219 325.207031 L 643.480469 325.011719 L 645.09375 324.878906 "/>
<path fill="none" stroke-width="1.701" stroke-linecap="round" stroke-linejoin="round" stroke="rgb(0%, 0%, 0%)" stroke-opacity="1" stroke-miterlimit="10" d="M 651.546875 324.347656 L 651.734375 324.332031 L 654.484375 324.136719 L 657.238281 323.910156 L 658 323.855469 "/>
<path fill="none" stroke-width="1.701" stroke-linecap="round" stroke-linejoin="round" stroke="rgb(0%, 0%, 0%)" stroke-opacity="1" stroke-miterlimit="10" d="M 664.453125 323.347656 L 665.492188 323.261719 L 668.242188 323.070312 L 670.910156 322.847656 "/>
<path fill="none" stroke-width="1.701" stroke-linecap="round" stroke-linejoin="round" stroke="rgb(0%, 0%, 0%)" stroke-opacity="1" stroke-miterlimit="10" d="M 677.363281 322.359375 L 679.246094 322.226562 L 681.996094 322.035156 L 683.820312 321.882812 "/>
<path fill="none" stroke-width="1.701" stroke-linecap="round" stroke-linejoin="round" stroke="rgb(0%, 0%, 0%)" stroke-opacity="1" stroke-miterlimit="10" d="M 690.277344 321.417969 L 693 321.191406 L 695.753906 320.996094 L 696.730469 320.929688 "/>
<path fill="none" stroke-width="1.701" stroke-linecap="round" stroke-linejoin="round" stroke="rgb(0%, 0%, 0%)" stroke-opacity="1" stroke-miterlimit="10" d="M 703.1875 320.453125 L 704.039062 320.382812 L 706.789062 320.1875 L 709.542969 319.996094 L 709.640625 319.988281 "/>
<path fill="none" stroke-width="1.701" stroke-linecap="round" stroke-linejoin="round" stroke="rgb(0%, 0%, 0%)" stroke-opacity="1" stroke-miterlimit="10" d="M 716.101562 319.53125 L 717.792969 319.410156 L 720.546875 319.21875 L 722.558594 319.074219 "/>
<path fill="none" stroke-width="1.701" stroke-linecap="round" stroke-linejoin="round" stroke="rgb(0%, 0%, 0%)" stroke-opacity="1" stroke-miterlimit="10" d="M 729.015625 318.621094 L 731.550781 318.441406 L 734.300781 318.246094 L 735.472656 318.164062 "/>
<path fill="none" stroke-width="1.701" stroke-linecap="round" stroke-linejoin="round" stroke="rgb(0%, 0%, 0%)" stroke-opacity="1" stroke-miterlimit="10" d="M 741.929688 317.707031 L 742.554688 317.664062 L 745.304688 317.46875 L 748.058594 317.277344 L 748.386719 317.253906 "/>
<path fill="none" stroke-width="1.701" stroke-linecap="round" stroke-linejoin="round" stroke="rgb(0%, 0%, 0%)" stroke-opacity="1" stroke-miterlimit="10" d="M 754.84375 316.8125 L 756.34375 316.726562 L 759.09375 316.53125 L 761.300781 316.375 "/>
<path fill="none" stroke-width="1.701" stroke-linecap="round" stroke-linejoin="round" stroke="rgb(0%, 0%, 0%)" stroke-opacity="1" stroke-miterlimit="10" d="M 767.761719 315.953125 L 770.097656 315.785156 L 772.851562 315.59375 L 774.21875 315.511719 "/>
<path fill="none" stroke-width="1.701" stroke-linecap="round" stroke-linejoin="round" stroke="rgb(0%, 0%, 0%)" stroke-opacity="1" stroke-miterlimit="10" d="M 780.679688 315.070312 L 781.101562 315.042969 L 783.855469 314.878906 L 786.605469 314.6875 L 787.136719 314.65625 "/>
<path fill="none" stroke-width="1.701" stroke-linecap="round" stroke-linejoin="round" stroke="rgb(0%, 0%, 0%)" stroke-opacity="1" stroke-miterlimit="10" d="M 793.597656 314.242188 L 794.859375 314.167969 L 797.609375 313.972656 L 800.058594 313.832031 "/>
<path fill="none" stroke-width="1.701" stroke-linecap="round" stroke-linejoin="round" stroke="rgb(0%, 0%, 0%)" stroke-opacity="1" stroke-miterlimit="10" d="M 806.519531 313.410156 L 808.648438 313.261719 L 811.398438 313.101562 L 812.976562 312.988281 "/>
<path fill="none" stroke-width="1.701" stroke-linecap="round" stroke-linejoin="round" stroke="rgb(0%, 0%, 0%)" stroke-opacity="1" stroke-miterlimit="10" d="M 819.4375 312.59375 L 819.652344 312.582031 L 822.402344 312.386719 L 825.152344 312.226562 L 825.898438 312.183594 "/>
<path fill="none" stroke-width="1.701" stroke-linecap="round" stroke-linejoin="round" stroke="rgb(0%, 0%, 0%)" stroke-opacity="1" stroke-miterlimit="10" d="M 832.359375 311.769531 L 833.40625 311.707031 L 836.160156 311.546875 L 838.820312 311.359375 "/>
<path fill="none" stroke-width="1.701" stroke-linecap="round" stroke-linejoin="round" stroke="rgb(0%, 0%, 0%)" stroke-opacity="1" stroke-miterlimit="10" d="M 845.28125 310.976562 L 847.164062 310.867188 L 849.914062 310.707031 L 851.742188 310.578125 "/>
<path fill="none" stroke-width="1.701" stroke-linecap="round" stroke-linejoin="round" stroke="rgb(0%, 0%, 0%)" stroke-opacity="1" stroke-miterlimit="10" d="M 858.203125 310.183594 L 860.917969 310.027344 L 863.703125 309.863281 L 864.664062 309.808594 "/>
<path fill="none" stroke-width="1.701" stroke-linecap="round" stroke-linejoin="round" stroke="rgb(0%, 0%, 0%)" stroke-opacity="1" stroke-miterlimit="10" d="M 871.128906 309.425781 L 871.957031 309.378906 L 874.707031 309.214844 L 877.457031 309.054688 L 877.589844 309.046875 "/>
<path fill="none" stroke-width="1.701" stroke-linecap="round" stroke-linejoin="round" stroke="rgb(0%, 0%, 0%)" stroke-opacity="1" stroke-miterlimit="10" d="M 884.050781 308.632812 L 885.710938 308.535156 L 888.464844 308.375 L 890.511719 308.277344 "/>
<path fill="none" stroke-width="1.701" stroke-linecap="round" stroke-linejoin="round" stroke="rgb(0%, 0%, 0%)" stroke-opacity="1" stroke-miterlimit="10" d="M 896.976562 307.90625 L 899.46875 307.761719 L 902.21875 307.597656 L 903.4375 307.527344 "/>
<path fill="none" stroke-width="1.701" stroke-linecap="round" stroke-linejoin="round" stroke="rgb(0%, 0%, 0%)" stroke-opacity="1" stroke-miterlimit="10" d="M 909.898438 307.144531 L 910.472656 307.113281 L 913.222656 306.949219 L 915.976562 306.789062 L 916.363281 306.769531 "/>
<path fill="none" stroke-width="1.701" stroke-linecap="round" stroke-linejoin="round" stroke="rgb(0%, 0%, 0%)" stroke-opacity="1" stroke-miterlimit="10" d="M 922.824219 306.421875 L 924.261719 306.335938 L 927.011719 306.175781 L 929.289062 306.039062 "/>
<path fill="none" stroke-width="1.701" stroke-linecap="round" stroke-linejoin="round" stroke="rgb(0%, 0%, 0%)" stroke-opacity="1" stroke-miterlimit="10" d="M 935.75 305.691406 L 938.015625 305.558594 L 940.765625 305.398438 L 942.214844 305.328125 "/>
<path fill="none" stroke-width="1.701" stroke-linecap="round" stroke-linejoin="round" stroke="rgb(0%, 0%, 0%)" stroke-opacity="1" stroke-miterlimit="10" d="M 120.4375 510.925781 L 123.191406 501.441406 L 124.269531 498.566406 "/>
<path fill="none" stroke-width="1.701" stroke-linecap="round" stroke-linejoin="round" stroke="rgb(0%, 0%, 0%)" stroke-opacity="1" stroke-miterlimit="10" d="M 126.652344 492.546875 L 128.691406 488.007812 L 131.441406 482.570312 L 132.363281 480.9375 "/>
<path fill="none" stroke-width="1.701" stroke-linecap="round" stroke-linejoin="round" stroke="rgb(0%, 0%, 0%)" stroke-opacity="1" stroke-miterlimit="10" d="M 135.625 475.347656 L 136.945312 473.183594 L 139.695312 468.976562 L 142.449219 465.0625 L 142.804688 464.578125 "/>
<path fill="none" stroke-width="1.701" stroke-linecap="round" stroke-linejoin="round" stroke="rgb(0%, 0%, 0%)" stroke-opacity="1" stroke-miterlimit="10" d="M 146.703125 459.414062 L 147.984375 457.777344 L 150.734375 454.414062 L 153.484375 451.175781 L 154.984375 449.464844 "/>
<path fill="none" stroke-width="1.701" stroke-linecap="round" stroke-linejoin="round" stroke="rgb(0%, 0%, 0%)" stroke-opacity="1" stroke-miterlimit="10" d="M 159.328125 444.664062 L 161.738281 442.113281 L 164.488281 439.296875 L 167.242188 436.546875 L 168.398438 435.429688 "/>
<path fill="none" stroke-width="1.701" stroke-linecap="round" stroke-linejoin="round" stroke="rgb(0%, 0%, 0%)" stroke-opacity="1" stroke-miterlimit="10" d="M 173.082031 430.957031 L 175.492188 428.746094 L 178.246094 426.285156 L 180.996094 423.859375 L 182.75 422.351562 "/>
<path fill="none" stroke-width="1.701" stroke-linecap="round" stroke-linejoin="round" stroke="rgb(0%, 0%, 0%)" stroke-opacity="1" stroke-miterlimit="10" d="M 187.699219 418.175781 L 189.25 416.898438 L 192 414.667969 L 194.753906 412.496094 L 197.503906 410.328125 L 197.8125 410.09375 "/>
<path fill="none" stroke-width="1.701" stroke-linecap="round" stroke-linejoin="round" stroke="rgb(0%, 0%, 0%)" stroke-opacity="1" stroke-miterlimit="10" d="M 202.980469 406.195312 L 203.039062 406.152344 L 205.789062 404.113281 L 208.539062 402.109375 L 211.292969 400.101562 L 213.449219 398.578125 "/>
<path fill="none" stroke-width="1.701" stroke-linecap="round" stroke-linejoin="round" stroke="rgb(0%, 0%, 0%)" stroke-opacity="1" stroke-miterlimit="10" d="M 218.761719 394.882812 L 219.542969 394.339844 L 222.296875 392.464844 L 225.046875 390.617188 L 227.796875 388.773438 L 229.511719 387.664062 "/>
<path fill="none" stroke-width="1.701" stroke-linecap="round" stroke-linejoin="round" stroke="rgb(0%, 0%, 0%)" stroke-opacity="1" stroke-miterlimit="10" d="M 234.945312 384.148438 L 236.050781 383.433594 L 238.804688 381.71875 L 241.554688 380 L 244.304688 378.285156 L 245.925781 377.292969 "/>
<path fill="none" stroke-width="1.701" stroke-linecap="round" stroke-linejoin="round" stroke="rgb(0%, 0%, 0%)" stroke-opacity="1" stroke-miterlimit="10" d="M 251.472656 373.953125 L 252.558594 373.300781 L 255.308594 371.652344 L 258.09375 370.066406 L 260.84375 368.445312 L 262.644531 367.410156 "/>
<path fill="none" stroke-width="1.701" stroke-linecap="round" stroke-linejoin="round" stroke="rgb(0%, 0%, 0%)" stroke-opacity="1" stroke-miterlimit="10" d="M 268.273438 364.21875 L 269.097656 363.753906 L 271.847656 362.199219 L 274.601562 360.679688 L 277.351562 359.15625 L 279.597656 357.941406 "/>
<path fill="none" stroke-width="1.701" stroke-linecap="round" stroke-linejoin="round" stroke="rgb(0%, 0%, 0%)" stroke-opacity="1" stroke-miterlimit="10" d="M 285.292969 354.859375 L 285.605469 354.691406 L 291.105469 351.777344 L 293.859375 350.355469 L 296.609375 348.929688 L 296.757812 348.851562 "/>
<path fill="none" stroke-width="1.701" stroke-linecap="round" stroke-linejoin="round" stroke="rgb(0%, 0%, 0%)" stroke-opacity="1" stroke-miterlimit="10" d="M 302.519531 345.902344 L 304.863281 344.691406 L 307.613281 343.332031 L 310.363281 341.9375 L 313.148438 340.578125 L 314.097656 340.109375 "/>
<path fill="none" stroke-width="1.701" stroke-linecap="round" stroke-linejoin="round" stroke="rgb(0%, 0%, 0%)" stroke-opacity="1" stroke-miterlimit="10" d="M 319.90625 337.253906 L 321.402344 336.535156 L 324.152344 335.207031 L 326.90625 333.878906 L 329.65625 332.585938 L 331.582031 331.65625 "/>
<path fill="none" stroke-width="1.701" stroke-linecap="round" stroke-linejoin="round" stroke="rgb(0%, 0%, 0%)" stroke-opacity="1" stroke-miterlimit="10" d="M 337.445312 328.914062 L 337.910156 328.699219 L 340.660156 327.40625 L 343.410156 326.144531 L 346.164062 324.882812 L 348.914062 323.621094 L 349.199219 323.492188 "/>
<path fill="none" stroke-width="1.701" stroke-linecap="round" stroke-linejoin="round" stroke="rgb(0%, 0%, 0%)" stroke-opacity="1" stroke-miterlimit="10" d="M 355.097656 320.820312 L 357.167969 319.898438 L 359.917969 318.667969 L 362.667969 317.46875 L 365.421875 316.238281 L 366.9375 315.585938 "/>
<path fill="none" stroke-width="1.701" stroke-linecap="round" stroke-linejoin="round" stroke="rgb(0%, 0%, 0%)" stroke-opacity="1" stroke-miterlimit="10" d="M 372.875 313.007812 L 373.707031 312.648438 L 376.457031 311.449219 L 379.207031 310.285156 L 381.960938 309.121094 L 384.710938 307.953125 L 384.78125 307.921875 "/>
<path fill="none" stroke-width="1.701" stroke-linecap="round" stroke-linejoin="round" stroke="rgb(0%, 0%, 0%)" stroke-opacity="1" stroke-miterlimit="10" d="M 390.746094 305.40625 L 392.964844 304.492188 L 395.714844 303.324219 L 398.464844 302.191406 L 401.21875 301.058594 L 402.707031 300.449219 "/>
<path fill="none" stroke-width="1.701" stroke-linecap="round" stroke-linejoin="round" stroke="rgb(0%, 0%, 0%)" stroke-opacity="1" stroke-miterlimit="10" d="M 408.699219 298.003906 L 409.472656 297.695312 L 412.222656 296.59375 L 414.972656 295.460938 L 417.726562 294.359375 L 420.476562 293.292969 L 420.71875 293.195312 "/>
<path fill="none" stroke-width="1.701" stroke-linecap="round" stroke-linejoin="round" stroke="rgb(0%, 0%, 0%)" stroke-opacity="1" stroke-miterlimit="10" d="M 426.738281 290.808594 L 428.761719 290.023438 L 431.511719 288.953125 L 434.265625 287.886719 L 437.015625 286.820312 L 438.804688 286.125 "/>
<path fill="none" stroke-width="1.701" stroke-linecap="round" stroke-linejoin="round" stroke="rgb(0%, 0%, 0%)" stroke-opacity="1" stroke-miterlimit="10" d="M 444.839844 283.78125 L 445.269531 283.613281 L 450.769531 281.542969 L 453.523438 280.507812 L 456.273438 279.472656 L 456.957031 279.214844 "/>
<path fill="none" stroke-width="1.701" stroke-linecap="round" stroke-linejoin="round" stroke="rgb(0%, 0%, 0%)" stroke-opacity="1" stroke-miterlimit="10" d="M 463.015625 276.933594 L 464.527344 276.363281 L 467.277344 275.359375 L 470.027344 274.324219 L 472.78125 273.320312 L 475.160156 272.453125 "/>
<path fill="none" stroke-width="1.701" stroke-linecap="round" stroke-linejoin="round" stroke="rgb(0%, 0%, 0%)" stroke-opacity="1" stroke-miterlimit="10" d="M 481.246094 270.246094 L 483.816406 269.308594 L 486.566406 268.335938 L 489.320312 267.335938 L 492.070312 266.363281 L 493.429688 265.867188 "/>
<path fill="none" stroke-width="1.701" stroke-linecap="round" stroke-linejoin="round" stroke="rgb(0%, 0%, 0%)" stroke-opacity="1" stroke-miterlimit="10" d="M 499.527344 263.699219 L 500.324219 263.417969 L 503.074219 262.445312 L 505.828125 261.476562 L 508.578125 260.503906 L 511.328125 259.566406 L 511.746094 259.417969 "/>
<path fill="none" stroke-width="1.701" stroke-linecap="round" stroke-linejoin="round" stroke="rgb(0%, 0%, 0%)" stroke-opacity="1" stroke-miterlimit="10" d="M 517.859375 257.292969 L 519.582031 256.683594 L 522.332031 255.746094 L 525.085938 254.808594 L 527.835938 253.871094 L 530.109375 253.09375 "/>
<path fill="none" stroke-width="1.701" stroke-linecap="round" stroke-linejoin="round" stroke="rgb(0%, 0%, 0%)" stroke-opacity="1" stroke-miterlimit="10" d="M 536.238281 251.015625 L 538.871094 250.113281 L 541.625 249.207031 L 544.375 248.269531 L 547.125 247.363281 L 548.511719 246.890625 "/>
<path fill="none" stroke-width="1.701" stroke-linecap="round" stroke-linejoin="round" stroke="rgb(0%, 0%, 0%)" stroke-opacity="1" stroke-miterlimit="10" d="M 554.652344 244.851562 L 555.378906 244.613281 L 558.128906 243.707031 L 560.882812 242.800781 L 566.382812 240.988281 L 566.953125 240.808594 "/>
<path fill="none" stroke-width="1.701" stroke-linecap="round" stroke-linejoin="round" stroke="rgb(0%, 0%, 0%)" stroke-opacity="1" stroke-miterlimit="10" d="M 573.109375 238.804688 L 574.636719 238.300781 L 577.390625 237.425781 L 580.140625 236.554688 L 582.890625 235.648438 L 585.433594 234.839844 "/>
<path fill="none" stroke-width="1.701" stroke-linecap="round" stroke-linejoin="round" stroke="rgb(0%, 0%, 0%)" stroke-opacity="1" stroke-miterlimit="10" d="M 591.605469 232.890625 L 593.929688 232.152344 L 599.429688 230.402344 L 602.179688 229.53125 L 603.949219 228.988281 "/>
<path fill="none" stroke-width="1.701" stroke-linecap="round" stroke-linejoin="round" stroke="rgb(0%, 0%, 0%)" stroke-opacity="1" stroke-miterlimit="10" d="M 610.128906 227.066406 L 610.433594 226.972656 L 613.1875 226.097656 L 615.9375 225.257812 L 618.6875 224.382812 L 621.441406 223.542969 L 622.492188 223.21875 "/>
<path fill="none" stroke-width="1.701" stroke-linecap="round" stroke-linejoin="round" stroke="rgb(0%, 0%, 0%)" stroke-opacity="1" stroke-miterlimit="10" d="M 628.683594 221.328125 L 629.691406 221.019531 L 632.445312 220.175781 L 635.195312 219.335938 L 637.945312 218.492188 L 640.699219 217.683594 L 641.074219 217.570312 "/>
<path fill="none" stroke-width="1.701" stroke-linecap="round" stroke-linejoin="round" stroke="rgb(0%, 0%, 0%)" stroke-opacity="1" stroke-miterlimit="10" d="M 647.269531 215.695312 L 648.984375 215.191406 L 651.734375 214.351562 L 654.484375 213.539062 L 657.238281 212.730469 L 659.671875 211.988281 "/>
<path fill="none" stroke-width="1.701" stroke-linecap="round" stroke-linejoin="round" stroke="rgb(0%, 0%, 0%)" stroke-opacity="1" stroke-miterlimit="10" d="M 665.882812 210.15625 L 668.242188 209.460938 L 673.742188 207.84375 L 676.496094 207.035156 L 678.300781 206.503906 "/>
<path fill="none" stroke-width="1.701" stroke-linecap="round" stroke-linejoin="round" stroke="rgb(0%, 0%, 0%)" stroke-opacity="1" stroke-miterlimit="10" d="M 684.519531 204.703125 L 684.75 204.640625 L 690.25 203.023438 L 693 202.246094 L 695.753906 201.4375 L 696.953125 201.101562 "/>
<path fill="none" stroke-width="1.701" stroke-linecap="round" stroke-linejoin="round" stroke="rgb(0%, 0%, 0%)" stroke-opacity="1" stroke-miterlimit="10" d="M 703.175781 199.316406 L 704.039062 199.074219 L 706.789062 198.296875 L 709.542969 197.519531 L 712.292969 196.742188 L 715.042969 195.933594 L 715.628906 195.769531 "/>
<path fill="none" stroke-width="1.701" stroke-linecap="round" stroke-linejoin="round" stroke="rgb(0%, 0%, 0%)" stroke-opacity="1" stroke-miterlimit="10" d="M 721.863281 194.023438 L 723.296875 193.636719 L 726.046875 192.859375 L 728.800781 192.082031 L 734.300781 190.527344 L 734.324219 190.523438 "/>
<path fill="none" stroke-width="1.701" stroke-linecap="round" stroke-linejoin="round" stroke="rgb(0%, 0%, 0%)" stroke-opacity="1" stroke-miterlimit="10" d="M 740.566406 188.800781 L 742.554688 188.261719 L 745.304688 187.484375 L 748.058594 186.742188 L 750.808594 185.964844 L 753.046875 185.367188 "/>
<path fill="none" stroke-width="1.701" stroke-linecap="round" stroke-linejoin="round" stroke="rgb(0%, 0%, 0%)" stroke-opacity="1" stroke-miterlimit="10" d="M 759.289062 183.644531 L 761.84375 182.953125 L 764.597656 182.210938 L 767.347656 181.464844 L 770.097656 180.722656 L 771.785156 180.265625 "/>
<path fill="none" stroke-width="1.701" stroke-linecap="round" stroke-linejoin="round" stroke="rgb(0%, 0%, 0%)" stroke-opacity="1" stroke-miterlimit="10" d="M 778.035156 178.574219 L 778.351562 178.488281 L 781.101562 177.742188 L 783.855469 177 L 786.605469 176.285156 L 789.355469 175.542969 L 790.539062 175.222656 "/>
<path fill="none" stroke-width="1.701" stroke-linecap="round" stroke-linejoin="round" stroke="rgb(0%, 0%, 0%)" stroke-opacity="1" stroke-miterlimit="10" d="M 796.796875 173.5625 L 797.609375 173.339844 L 800.363281 172.628906 L 803.113281 171.886719 L 805.863281 171.171875 L 808.648438 170.429688 L 809.3125 170.257812 "/>
<path fill="none" stroke-width="1.701" stroke-linecap="round" stroke-linejoin="round" stroke="rgb(0%, 0%, 0%)" stroke-opacity="1" stroke-miterlimit="10" d="M 815.578125 168.617188 L 816.902344 168.261719 L 819.652344 167.546875 L 825.152344 166.125 L 827.90625 165.410156 L 828.105469 165.359375 "/>
<path fill="none" stroke-width="1.701" stroke-linecap="round" stroke-linejoin="round" stroke="rgb(0%, 0%, 0%)" stroke-opacity="1" stroke-miterlimit="10" d="M 834.371094 163.738281 L 836.160156 163.277344 L 838.910156 162.5625 L 841.660156 161.851562 L 844.414062 161.140625 L 846.90625 160.492188 "/>
<path fill="none" stroke-width="1.701" stroke-linecap="round" stroke-linejoin="round" stroke="rgb(0%, 0%, 0%)" stroke-opacity="1" stroke-miterlimit="10" d="M 853.179688 158.902344 L 855.417969 158.324219 L 858.167969 157.644531 L 860.917969 156.933594 L 863.703125 156.253906 L 865.730469 155.726562 "/>
<path fill="none" stroke-width="1.701" stroke-linecap="round" stroke-linejoin="round" stroke="rgb(0%, 0%, 0%)" stroke-opacity="1" stroke-miterlimit="10" d="M 872.007812 154.136719 L 874.707031 153.46875 L 877.457031 152.757812 L 880.210938 152.078125 L 882.960938 151.398438 L 884.566406 151 "/>
<path fill="none" stroke-width="1.701" stroke-linecap="round" stroke-linejoin="round" stroke="rgb(0%, 0%, 0%)" stroke-opacity="1" stroke-miterlimit="10" d="M 890.84375 149.417969 L 891.214844 149.324219 L 896.714844 147.964844 L 899.46875 147.285156 L 902.21875 146.605469 L 903.414062 146.3125 "/>
<path fill="none" stroke-width="1.701" stroke-linecap="round" stroke-linejoin="round" stroke="rgb(0%, 0%, 0%)" stroke-opacity="1" stroke-miterlimit="10" d="M 909.695312 144.757812 L 910.472656 144.566406 L 913.222656 143.886719 L 915.976562 143.207031 L 918.757812 142.5625 L 921.507812 141.882812 L 922.273438 141.691406 "/>
<path fill="none" stroke-width="1.701" stroke-linecap="round" stroke-linejoin="round" stroke="rgb(0%, 0%, 0%)" stroke-opacity="1" stroke-miterlimit="10" d="M 928.5625 140.15625 L 929.761719 139.875 L 932.515625 139.195312 L 935.265625 138.546875 L 938.015625 137.867188 L 940.765625 137.222656 L 941.148438 137.125 "/>
<path fill="none" stroke-width="1.701" stroke-linecap="round" stroke-linejoin="round" stroke="rgb(0%, 0%, 0%)" stroke-opacity="1" stroke-miterlimit="10" d="M 120.4375 107.703125 L 120.660156 114.171875 "/>
<path fill="none" stroke-width="1.701" stroke-linecap="round" stroke-linejoin="round" stroke="rgb(0%, 0%, 0%)" stroke-opacity="1" stroke-miterlimit="10" d="M 120.882812 120.640625 L 121.105469 127.109375 "/>
<path fill="none" stroke-width="1.701" stroke-linecap="round" stroke-linejoin="round" stroke="rgb(0%, 0%, 0%)" stroke-opacity="1" stroke-miterlimit="10" d="M 121.328125 133.582031 L 121.550781 140.050781 "/>
<path fill="none" stroke-width="1.701" stroke-linecap="round" stroke-linejoin="round" stroke="rgb(0%, 0%, 0%)" stroke-opacity="1" stroke-miterlimit="10" d="M 121.773438 146.519531 L 121.996094 152.988281 "/>
<path fill="none" stroke-width="1.701" stroke-linecap="round" stroke-linejoin="round" stroke="rgb(0%, 0%, 0%)" stroke-opacity="1" stroke-miterlimit="10" d="M 122.21875 159.457031 L 122.441406 165.929688 "/>
<path fill="none" stroke-width="1.701" stroke-linecap="round" stroke-linejoin="round" stroke="rgb(0%, 0%, 0%)" stroke-opacity="1" stroke-miterlimit="10" d="M 122.664062 172.398438 L 122.886719 178.867188 "/>
<path fill="none" stroke-width="1.701" stroke-linecap="round" stroke-linejoin="round" stroke="rgb(0%, 0%, 0%)" stroke-opacity="1" stroke-miterlimit="10" d="M 123.109375 185.335938 L 123.191406 187.710938 L 123.472656 191.796875 "/>
<path fill="none" stroke-width="1.701" stroke-linecap="round" stroke-linejoin="round" stroke="rgb(0%, 0%, 0%)" stroke-opacity="1" stroke-miterlimit="10" d="M 123.921875 198.257812 L 124.371094 204.714844 "/>
<path fill="none" stroke-width="1.701" stroke-linecap="round" stroke-linejoin="round" stroke="rgb(0%, 0%, 0%)" stroke-opacity="1" stroke-miterlimit="10" d="M 124.816406 211.171875 L 125.265625 217.628906 "/>
<path fill="none" stroke-width="1.701" stroke-linecap="round" stroke-linejoin="round" stroke="rgb(0%, 0%, 0%)" stroke-opacity="1" stroke-miterlimit="10" d="M 125.714844 224.085938 L 125.941406 227.363281 L 126.285156 230.535156 "/>
<path fill="none" stroke-width="1.701" stroke-linecap="round" stroke-linejoin="round" stroke="rgb(0%, 0%, 0%)" stroke-opacity="1" stroke-miterlimit="10" d="M 126.984375 236.96875 L 127.683594 243.40625 "/>
<path fill="none" stroke-width="1.701" stroke-linecap="round" stroke-linejoin="round" stroke="rgb(0%, 0%, 0%)" stroke-opacity="1" stroke-miterlimit="10" d="M 128.382812 249.839844 L 128.691406 252.703125 L 129.230469 256.257812 "/>
<path fill="none" stroke-width="1.701" stroke-linecap="round" stroke-linejoin="round" stroke="rgb(0%, 0%, 0%)" stroke-opacity="1" stroke-miterlimit="10" d="M 130.199219 262.65625 L 131.164062 269.058594 "/>
<path fill="none" stroke-width="1.701" stroke-linecap="round" stroke-linejoin="round" stroke="rgb(0%, 0%, 0%)" stroke-opacity="1" stroke-miterlimit="10" d="M 132.332031 275.421875 L 133.578125 281.777344 "/>
<path fill="none" stroke-width="1.701" stroke-linecap="round" stroke-linejoin="round" stroke="rgb(0%, 0%, 0%)" stroke-opacity="1" stroke-miterlimit="10" d="M 134.976562 288.09375 L 136.515625 294.382812 "/>
<path fill="none" stroke-width="1.701" stroke-linecap="round" stroke-linejoin="round" stroke="rgb(0%, 0%, 0%)" stroke-opacity="1" stroke-miterlimit="10" d="M 138.261719 300.613281 L 139.695312 305.496094 L 140.152344 306.804688 "/>
<path fill="none" stroke-width="1.701" stroke-linecap="round" stroke-linejoin="round" stroke="rgb(0%, 0%, 0%)" stroke-opacity="1" stroke-miterlimit="10" d="M 142.273438 312.917969 L 142.449219 313.425781 L 144.65625 318.9375 "/>
<path fill="none" stroke-width="1.701" stroke-linecap="round" stroke-linejoin="round" stroke="rgb(0%, 0%, 0%)" stroke-opacity="1" stroke-miterlimit="10" d="M 147.304688 324.84375 L 147.984375 326.304688 L 150.207031 330.628906 "/>
<path fill="none" stroke-width="1.701" stroke-linecap="round" stroke-linejoin="round" stroke="rgb(0%, 0%, 0%)" stroke-opacity="1" stroke-miterlimit="10" d="M 153.386719 336.265625 L 153.484375 336.4375 L 156.234375 340.773438 L 156.882812 341.710938 "/>
<path fill="none" stroke-width="1.701" stroke-linecap="round" stroke-linejoin="round" stroke="rgb(0%, 0%, 0%)" stroke-opacity="1" stroke-miterlimit="10" d="M 160.664062 346.964844 L 161.738281 348.378906 L 164.488281 351.714844 L 164.738281 351.992188 "/>
<path fill="none" stroke-width="1.701" stroke-linecap="round" stroke-linejoin="round" stroke="rgb(0%, 0%, 0%)" stroke-opacity="1" stroke-miterlimit="10" d="M 169.105469 356.769531 L 169.992188 357.703125 L 172.742188 360.386719 L 173.730469 361.296875 "/>
<path fill="none" stroke-width="1.701" stroke-linecap="round" stroke-linejoin="round" stroke="rgb(0%, 0%, 0%)" stroke-opacity="1" stroke-miterlimit="10" d="M 178.597656 365.5625 L 180.996094 367.507812 L 183.683594 369.566406 "/>
<path fill="none" stroke-width="1.701" stroke-linecap="round" stroke-linejoin="round" stroke="rgb(0%, 0%, 0%)" stroke-opacity="1" stroke-miterlimit="10" d="M 188.96875 373.304688 L 189.25 373.496094 L 192 375.308594 L 194.410156 376.808594 "/>
<path fill="none" stroke-width="1.701" stroke-linecap="round" stroke-linejoin="round" stroke="rgb(0%, 0%, 0%)" stroke-opacity="1" stroke-miterlimit="10" d="M 199.980469 380.101562 L 200.253906 380.261719 L 203.039062 381.75 L 205.691406 383.152344 "/>
<path fill="none" stroke-width="1.701" stroke-linecap="round" stroke-linejoin="round" stroke="rgb(0%, 0%, 0%)" stroke-opacity="1" stroke-miterlimit="10" d="M 211.496094 386.019531 L 214.042969 387.1875 L 216.792969 388.417969 L 217.394531 388.679688 "/>
<path fill="none" stroke-width="1.701" stroke-linecap="round" stroke-linejoin="round" stroke="rgb(0%, 0%, 0%)" stroke-opacity="1" stroke-miterlimit="10" d="M 223.355469 391.203125 L 225.046875 391.878906 L 227.796875 392.949219 L 229.390625 393.546875 "/>
<path fill="none" stroke-width="1.701" stroke-linecap="round" stroke-linejoin="round" stroke="rgb(0%, 0%, 0%)" stroke-opacity="1" stroke-miterlimit="10" d="M 235.46875 395.777344 L 236.050781 395.992188 L 238.804688 396.929688 L 241.554688 397.835938 L 241.601562 397.851562 "/>
<path fill="none" stroke-width="1.701" stroke-linecap="round" stroke-linejoin="round" stroke="rgb(0%, 0%, 0%)" stroke-opacity="1" stroke-miterlimit="10" d="M 247.761719 399.832031 L 249.808594 400.457031 L 252.558594 401.265625 L 253.964844 401.679688 "/>
<path fill="none" stroke-width="1.701" stroke-linecap="round" stroke-linejoin="round" stroke="rgb(0%, 0%, 0%)" stroke-opacity="1" stroke-miterlimit="10" d="M 260.195312 403.445312 L 260.84375 403.628906 L 263.59375 404.375 L 266.347656 405.085938 L 266.449219 405.113281 "/>
<path fill="none" stroke-width="1.701" stroke-linecap="round" stroke-linejoin="round" stroke="rgb(0%, 0%, 0%)" stroke-opacity="1" stroke-miterlimit="10" d="M 272.726562 406.695312 L 274.601562 407.15625 L 277.351562 407.804688 L 279.023438 408.199219 "/>
<path fill="none" stroke-width="1.701" stroke-linecap="round" stroke-linejoin="round" stroke="rgb(0%, 0%, 0%)" stroke-opacity="1" stroke-miterlimit="10" d="M 285.328125 409.652344 L 285.605469 409.714844 L 288.355469 410.296875 L 291.105469 410.910156 L 291.65625 411.027344 "/>
<path fill="none" stroke-width="1.701" stroke-linecap="round" stroke-linejoin="round" stroke="rgb(0%, 0%, 0%)" stroke-opacity="1" stroke-miterlimit="10" d="M 297.996094 412.320312 L 299.359375 412.59375 L 302.113281 413.144531 L 304.34375 413.589844 "/>
<path fill="none" stroke-width="1.701" stroke-linecap="round" stroke-linejoin="round" stroke="rgb(0%, 0%, 0%)" stroke-opacity="1" stroke-miterlimit="10" d="M 310.707031 414.792969 L 313.148438 415.25 L 315.898438 415.734375 L 317.074219 415.941406 "/>
<path fill="none" stroke-width="1.701" stroke-linecap="round" stroke-linejoin="round" stroke="rgb(0%, 0%, 0%)" stroke-opacity="1" stroke-miterlimit="10" d="M 323.453125 417.042969 L 324.152344 417.160156 L 326.90625 417.644531 L 329.65625 418.097656 L 329.835938 418.128906 "/>
<path fill="none" stroke-width="1.701" stroke-linecap="round" stroke-linejoin="round" stroke="rgb(0%, 0%, 0%)" stroke-opacity="1" stroke-miterlimit="10" d="M 336.230469 419.148438 L 337.910156 419.425781 L 340.660156 419.84375 L 342.625 420.144531 "/>
<path fill="none" stroke-width="1.701" stroke-linecap="round" stroke-linejoin="round" stroke="rgb(0%, 0%, 0%)" stroke-opacity="1" stroke-miterlimit="10" d="M 349.027344 421.089844 L 351.664062 421.464844 L 354.414062 421.851562 L 355.4375 421.996094 "/>
<path fill="none" stroke-width="1.701" stroke-linecap="round" stroke-linejoin="round" stroke="rgb(0%, 0%, 0%)" stroke-opacity="1" stroke-miterlimit="10" d="M 361.847656 422.902344 L 362.667969 423.015625 L 365.421875 423.371094 L 368.203125 423.761719 L 368.261719 423.769531 "/>
<path fill="none" stroke-width="1.701" stroke-linecap="round" stroke-linejoin="round" stroke="rgb(0%, 0%, 0%)" stroke-opacity="1" stroke-miterlimit="10" d="M 374.683594 424.601562 L 376.457031 424.828125 L 379.207031 425.152344 L 381.105469 425.398438 "/>
<path fill="none" stroke-width="1.701" stroke-linecap="round" stroke-linejoin="round" stroke="rgb(0%, 0%, 0%)" stroke-opacity="1" stroke-miterlimit="10" d="M 387.535156 426.164062 L 390.214844 426.511719 L 392.964844 426.804688 L 393.960938 426.921875 "/>
<path fill="none" stroke-width="1.701" stroke-linecap="round" stroke-linejoin="round" stroke="rgb(0%, 0%, 0%)" stroke-opacity="1" stroke-miterlimit="10" d="M 400.390625 427.675781 L 401.21875 427.773438 L 403.96875 428.066406 L 406.71875 428.390625 L 406.824219 428.402344 "/>
<path fill="none" stroke-width="1.701" stroke-linecap="round" stroke-linejoin="round" stroke="rgb(0%, 0%, 0%)" stroke-opacity="1" stroke-miterlimit="10" d="M 413.261719 429.082031 L 414.972656 429.261719 L 417.726562 429.554688 L 419.699219 429.765625 "/>
<path fill="none" stroke-width="1.701" stroke-linecap="round" stroke-linejoin="round" stroke="rgb(0%, 0%, 0%)" stroke-opacity="1" stroke-miterlimit="10" d="M 426.140625 430.410156 L 428.761719 430.6875 L 431.511719 430.945312 L 432.582031 431.046875 "/>
<path fill="none" stroke-width="1.701" stroke-linecap="round" stroke-linejoin="round" stroke="rgb(0%, 0%, 0%)" stroke-opacity="1" stroke-miterlimit="10" d="M 439.023438 431.6875 L 439.765625 431.753906 L 442.515625 432.015625 L 445.269531 432.273438 L 445.46875 432.292969 "/>
<path fill="none" stroke-width="1.701" stroke-linecap="round" stroke-linejoin="round" stroke="rgb(0%, 0%, 0%)" stroke-opacity="1" stroke-miterlimit="10" d="M 451.914062 432.867188 L 453.523438 433.019531 L 456.273438 433.277344 L 458.363281 433.449219 "/>
<path fill="none" stroke-width="1.701" stroke-linecap="round" stroke-linejoin="round" stroke="rgb(0%, 0%, 0%)" stroke-opacity="1" stroke-miterlimit="10" d="M 464.8125 434.011719 L 467.277344 434.214844 L 470.027344 434.476562 L 471.261719 434.574219 "/>
<path fill="none" stroke-width="1.701" stroke-linecap="round" stroke-linejoin="round" stroke="rgb(0%, 0%, 0%)" stroke-opacity="1" stroke-miterlimit="10" d="M 477.710938 435.105469 L 478.316406 435.15625 L 483.816406 435.609375 L 484.164062 435.636719 "/>
<path fill="none" stroke-width="1.701" stroke-linecap="round" stroke-linejoin="round" stroke="rgb(0%, 0%, 0%)" stroke-opacity="1" stroke-miterlimit="10" d="M 490.617188 436.136719 L 492.070312 436.253906 L 494.820312 436.480469 L 497.070312 436.640625 "/>
<path fill="none" stroke-width="1.701" stroke-linecap="round" stroke-linejoin="round" stroke="rgb(0%, 0%, 0%)" stroke-opacity="1" stroke-miterlimit="10" d="M 503.523438 437.128906 L 505.828125 437.289062 L 508.578125 437.515625 L 509.980469 437.617188 "/>
<path fill="none" stroke-width="1.701" stroke-linecap="round" stroke-linejoin="round" stroke="rgb(0%, 0%, 0%)" stroke-opacity="1" stroke-miterlimit="10" d="M 516.4375 438.070312 L 516.832031 438.101562 L 519.582031 438.292969 L 522.332031 438.519531 L 522.890625 438.554688 "/>
<path fill="none" stroke-width="1.701" stroke-linecap="round" stroke-linejoin="round" stroke="rgb(0%, 0%, 0%)" stroke-opacity="1" stroke-miterlimit="10" d="M 529.351562 438.984375 L 530.585938 439.070312 L 533.371094 439.265625 L 535.808594 439.4375 "/>
<path fill="none" stroke-width="1.701" stroke-linecap="round" stroke-linejoin="round" stroke="rgb(0%, 0%, 0%)" stroke-opacity="1" stroke-miterlimit="10" d="M 542.269531 439.859375 L 544.375 440.007812 L 547.125 440.203125 L 548.726562 440.296875 "/>
<path fill="none" stroke-width="1.701" stroke-linecap="round" stroke-linejoin="round" stroke="rgb(0%, 0%, 0%)" stroke-opacity="1" stroke-miterlimit="10" d="M 555.1875 440.710938 L 555.378906 440.722656 L 558.128906 440.882812 L 560.882812 441.078125 L 561.644531 441.121094 "/>
<path fill="none" stroke-width="1.701" stroke-linecap="round" stroke-linejoin="round" stroke="rgb(0%, 0%, 0%)" stroke-opacity="1" stroke-miterlimit="10" d="M 568.105469 441.523438 L 569.136719 441.59375 L 571.886719 441.757812 L 574.570312 441.914062 "/>
<path fill="none" stroke-width="1.701" stroke-linecap="round" stroke-linejoin="round" stroke="rgb(0%, 0%, 0%)" stroke-opacity="1" stroke-miterlimit="10" d="M 581.03125 442.296875 L 582.890625 442.40625 L 585.640625 442.566406 L 587.492188 442.675781 "/>
<path fill="none" stroke-width="1.701" stroke-linecap="round" stroke-linejoin="round" stroke="rgb(0%, 0%, 0%)" stroke-opacity="1" stroke-miterlimit="10" d="M 593.957031 443.054688 L 596.679688 443.214844 L 599.429688 443.375 L 600.417969 443.421875 "/>
<path fill="none" stroke-width="1.701" stroke-linecap="round" stroke-linejoin="round" stroke="rgb(0%, 0%, 0%)" stroke-opacity="1" stroke-miterlimit="10" d="M 606.882812 443.78125 L 607.683594 443.828125 L 610.433594 443.992188 L 613.1875 444.121094 L 613.34375 444.128906 "/>
<path fill="none" stroke-width="1.701" stroke-linecap="round" stroke-linejoin="round" stroke="rgb(0%, 0%, 0%)" stroke-opacity="1" stroke-miterlimit="10" d="M 619.808594 444.476562 L 621.441406 444.574219 L 624.191406 444.703125 L 626.273438 444.824219 "/>
<path fill="none" stroke-width="1.701" stroke-linecap="round" stroke-linejoin="round" stroke="rgb(0%, 0%, 0%)" stroke-opacity="1" stroke-miterlimit="10" d="M 632.738281 445.167969 L 635.195312 445.285156 L 637.945312 445.414062 L 639.203125 445.488281 "/>
<path fill="none" stroke-width="1.701" stroke-linecap="round" stroke-linejoin="round" stroke="rgb(0%, 0%, 0%)" stroke-opacity="1" stroke-miterlimit="10" d="M 645.667969 445.808594 L 646.230469 445.835938 L 648.984375 445.996094 L 651.734375 446.125 L 652.132812 446.144531 "/>
<path fill="none" stroke-width="1.701" stroke-linecap="round" stroke-linejoin="round" stroke="rgb(0%, 0%, 0%)" stroke-opacity="1" stroke-miterlimit="10" d="M 658.597656 446.449219 L 659.988281 446.515625 L 662.738281 446.644531 L 665.0625 446.753906 "/>
<path fill="none" stroke-width="1.701" stroke-linecap="round" stroke-linejoin="round" stroke="rgb(0%, 0%, 0%)" stroke-opacity="1" stroke-miterlimit="10" d="M 671.53125 447.058594 L 673.742188 447.164062 L 676.496094 447.292969 L 677.996094 447.363281 "/>
<path fill="none" stroke-width="1.701" stroke-linecap="round" stroke-linejoin="round" stroke="rgb(0%, 0%, 0%)" stroke-opacity="1" stroke-miterlimit="10" d="M 684.460938 447.667969 L 684.75 447.679688 L 690.25 447.9375 L 690.929688 447.972656 "/>
<path fill="none" stroke-width="1.701" stroke-linecap="round" stroke-linejoin="round" stroke="rgb(0%, 0%, 0%)" stroke-opacity="1" stroke-miterlimit="10" d="M 697.394531 448.253906 L 698.535156 448.296875 L 701.289062 448.425781 L 703.863281 448.546875 "/>
<path fill="none" stroke-width="1.701" stroke-linecap="round" stroke-linejoin="round" stroke="rgb(0%, 0%, 0%)" stroke-opacity="1" stroke-miterlimit="10" d="M 710.328125 448.816406 L 712.292969 448.910156 L 715.042969 449.007812 L 716.796875 449.089844 "/>
<path fill="none" stroke-width="1.701" stroke-linecap="round" stroke-linejoin="round" stroke="rgb(0%, 0%, 0%)" stroke-opacity="1" stroke-miterlimit="10" d="M 723.265625 449.363281 L 723.296875 449.363281 L 726.046875 449.492188 L 728.800781 449.589844 L 729.730469 449.632812 "/>
<path fill="none" stroke-width="1.701" stroke-linecap="round" stroke-linejoin="round" stroke="rgb(0%, 0%, 0%)" stroke-opacity="1" stroke-miterlimit="10" d="M 736.199219 449.90625 L 737.050781 449.945312 L 739.804688 450.042969 L 742.554688 450.171875 L 742.667969 450.175781 "/>
<path fill="none" stroke-width="1.701" stroke-linecap="round" stroke-linejoin="round" stroke="rgb(0%, 0%, 0%)" stroke-opacity="1" stroke-miterlimit="10" d="M 749.136719 450.417969 L 750.808594 450.496094 L 753.59375 450.59375 L 755.605469 450.664062 "/>
<path fill="none" stroke-width="1.701" stroke-linecap="round" stroke-linejoin="round" stroke="rgb(0%, 0%, 0%)" stroke-opacity="1" stroke-miterlimit="10" d="M 762.074219 450.925781 L 764.597656 451.015625 L 767.347656 451.144531 L 768.539062 451.183594 "/>
<path fill="none" stroke-width="1.701" stroke-linecap="round" stroke-linejoin="round" stroke="rgb(0%, 0%, 0%)" stroke-opacity="1" stroke-miterlimit="10" d="M 775.007812 451.414062 L 775.601562 451.433594 L 778.351562 451.53125 L 781.101562 451.660156 L 781.476562 451.675781 "/>
<path fill="none" stroke-width="1.701" stroke-linecap="round" stroke-linejoin="round" stroke="rgb(0%, 0%, 0%)" stroke-opacity="1" stroke-miterlimit="10" d="M 787.945312 451.902344 L 789.355469 451.953125 L 792.109375 452.050781 L 794.414062 452.132812 "/>
<path fill="none" stroke-width="1.701" stroke-linecap="round" stroke-linejoin="round" stroke="rgb(0%, 0%, 0%)" stroke-opacity="1" stroke-miterlimit="10" d="M 800.886719 452.359375 L 803.113281 452.4375 L 805.863281 452.535156 L 807.355469 452.585938 "/>
<path fill="none" stroke-width="1.701" stroke-linecap="round" stroke-linejoin="round" stroke="rgb(0%, 0%, 0%)" stroke-opacity="1" stroke-miterlimit="10" d="M 813.824219 452.816406 L 814.148438 452.828125 L 816.902344 452.921875 L 819.652344 453.019531 L 820.292969 453.042969 "/>
<path fill="none" stroke-width="1.701" stroke-linecap="round" stroke-linejoin="round" stroke="rgb(0%, 0%, 0%)" stroke-opacity="1" stroke-miterlimit="10" d="M 826.761719 453.273438 L 827.90625 453.3125 L 830.65625 453.410156 L 833.230469 453.5 "/>
<path fill="none" stroke-width="1.701" stroke-linecap="round" stroke-linejoin="round" stroke="rgb(0%, 0%, 0%)" stroke-opacity="1" stroke-miterlimit="10" d="M 839.703125 453.71875 L 841.660156 453.765625 L 844.414062 453.863281 L 846.171875 453.925781 "/>
<path fill="none" stroke-width="1.701" stroke-linecap="round" stroke-linejoin="round" stroke="rgb(0%, 0%, 0%)" stroke-opacity="1" stroke-miterlimit="10" d="M 852.640625 454.152344 L 852.664062 454.152344 L 855.417969 454.21875 L 858.167969 454.316406 L 859.109375 454.347656 "/>
<path fill="none" stroke-width="1.701" stroke-linecap="round" stroke-linejoin="round" stroke="rgb(0%, 0%, 0%)" stroke-opacity="1" stroke-miterlimit="10" d="M 865.582031 454.542969 L 866.453125 454.574219 L 869.203125 454.671875 L 871.957031 454.769531 L 872.050781 454.769531 "/>
<path fill="none" stroke-width="1.701" stroke-linecap="round" stroke-linejoin="round" stroke="rgb(0%, 0%, 0%)" stroke-opacity="1" stroke-miterlimit="10" d="M 878.519531 454.96875 L 880.210938 455.027344 L 882.960938 455.09375 L 884.992188 455.164062 "/>
<path fill="none" stroke-width="1.701" stroke-linecap="round" stroke-linejoin="round" stroke="rgb(0%, 0%, 0%)" stroke-opacity="1" stroke-miterlimit="10" d="M 891.460938 455.359375 L 893.964844 455.449219 L 896.714844 455.511719 L 897.929688 455.554688 "/>
<path fill="none" stroke-width="1.701" stroke-linecap="round" stroke-linejoin="round" stroke="rgb(0%, 0%, 0%)" stroke-opacity="1" stroke-miterlimit="10" d="M 904.402344 455.75 L 904.96875 455.773438 L 907.722656 455.835938 L 910.472656 455.933594 L 910.871094 455.941406 "/>
<path fill="none" stroke-width="1.701" stroke-linecap="round" stroke-linejoin="round" stroke="rgb(0%, 0%, 0%)" stroke-opacity="1" stroke-miterlimit="10" d="M 917.34375 456.128906 L 918.757812 456.160156 L 921.507812 456.257812 L 923.8125 456.3125 "/>
<path fill="none" stroke-width="1.701" stroke-linecap="round" stroke-linejoin="round" stroke="rgb(0%, 0%, 0%)" stroke-opacity="1" stroke-miterlimit="10" d="M 930.28125 456.503906 L 932.515625 456.582031 L 935.265625 456.644531 L 936.753906 456.679688 "/>
<path fill="none" stroke-width="1.701" stroke-linecap="round" stroke-linejoin="round" stroke="rgb(0%, 0%, 0%)" stroke-opacity="1" stroke-miterlimit="10" d="M 943.222656 456.867188 L 943.519531 456.871094 "/>
<path fill="none" stroke-width="1.701" stroke-linecap="round" stroke-linejoin="round" stroke="rgb(0%, 0%, 0%)" stroke-opacity="1" stroke-miterlimit="10" d="M 125.460938 75.078125 L 125.820312 88.019531 "/>
<path fill="none" stroke-width="1.701" stroke-linecap="round" stroke-linejoin="round" stroke="rgb(0%, 0%, 0%)" stroke-opacity="1" stroke-miterlimit="10" d="M 126.039062 94.488281 L 126.640625 107.421875 "/>
<path fill="none" stroke-width="1.701" stroke-linecap="round" stroke-linejoin="round" stroke="rgb(0%, 0%, 0%)" stroke-opacity="1" stroke-miterlimit="10" d="M 126.941406 113.886719 L 127.542969 126.820312 "/>
<path fill="none" stroke-width="1.701" stroke-linecap="round" stroke-linejoin="round" stroke="rgb(0%, 0%, 0%)" stroke-opacity="1" stroke-miterlimit="10" d="M 127.84375 133.285156 L 128.445312 146.21875 "/>
<path fill="none" stroke-width="1.701" stroke-linecap="round" stroke-linejoin="round" stroke="rgb(0%, 0%, 0%)" stroke-opacity="1" stroke-miterlimit="10" d="M 128.769531 152.683594 L 129.652344 165.601562 "/>
<path fill="none" stroke-width="1.701" stroke-linecap="round" stroke-linejoin="round" stroke="rgb(0%, 0%, 0%)" stroke-opacity="1" stroke-miterlimit="10" d="M 130.089844 172.058594 L 130.96875 184.976562 "/>
<path fill="none" stroke-width="1.701" stroke-linecap="round" stroke-linejoin="round" stroke="rgb(0%, 0%, 0%)" stroke-opacity="1" stroke-miterlimit="10" d="M 131.410156 191.433594 L 131.441406 191.921875 L 132.589844 204.324219 "/>
<path fill="none" stroke-width="1.701" stroke-linecap="round" stroke-linejoin="round" stroke="rgb(0%, 0%, 0%)" stroke-opacity="1" stroke-miterlimit="10" d="M 133.183594 210.773438 L 134.195312 221.699219 L 134.425781 223.65625 "/>
<path fill="none" stroke-width="1.701" stroke-linecap="round" stroke-linejoin="round" stroke="rgb(0%, 0%, 0%)" stroke-opacity="1" stroke-miterlimit="10" d="M 135.191406 230.085938 L 136.714844 242.941406 "/>
<path fill="none" stroke-width="1.701" stroke-linecap="round" stroke-linejoin="round" stroke="rgb(0%, 0%, 0%)" stroke-opacity="1" stroke-miterlimit="10" d="M 137.605469 249.355469 L 139.496094 262.160156 "/>
<path fill="none" stroke-width="1.701" stroke-linecap="round" stroke-linejoin="round" stroke="rgb(0%, 0%, 0%)" stroke-opacity="1" stroke-miterlimit="10" d="M 140.589844 268.542969 L 142.449219 278.984375 L 142.929688 281.273438 "/>
<path fill="none" stroke-width="1.701" stroke-linecap="round" stroke-linejoin="round" stroke="rgb(0%, 0%, 0%)" stroke-opacity="1" stroke-miterlimit="10" d="M 144.261719 287.609375 L 145.199219 292.0625 L 147.214844 300.210938 "/>
<path fill="none" stroke-width="1.701" stroke-linecap="round" stroke-linejoin="round" stroke="rgb(0%, 0%, 0%)" stroke-opacity="1" stroke-miterlimit="10" d="M 148.863281 306.472656 L 150.734375 313.132812 L 152.554688 318.878906 "/>
<path fill="none" stroke-width="1.701" stroke-linecap="round" stroke-linejoin="round" stroke="rgb(0%, 0%, 0%)" stroke-opacity="1" stroke-miterlimit="10" d="M 154.628906 325.007812 L 156.234375 329.511719 L 158.988281 336.4375 L 159.273438 337.089844 "/>
<path fill="none" stroke-width="1.701" stroke-linecap="round" stroke-linejoin="round" stroke="rgb(0%, 0%, 0%)" stroke-opacity="1" stroke-miterlimit="10" d="M 161.882812 343.015625 L 164.488281 348.414062 L 167.242188 353.65625 L 167.753906 354.550781 "/>
<path fill="none" stroke-width="1.701" stroke-linecap="round" stroke-linejoin="round" stroke="rgb(0%, 0%, 0%)" stroke-opacity="1" stroke-miterlimit="10" d="M 171.035156 360.128906 L 172.742188 362.878906 L 175.492188 367.023438 L 178.246094 370.84375 L 178.261719 370.867188 "/>
<path fill="none" stroke-width="1.701" stroke-linecap="round" stroke-linejoin="round" stroke="rgb(0%, 0%, 0%)" stroke-opacity="1" stroke-miterlimit="10" d="M 182.246094 375.964844 L 183.746094 377.800781 L 186.5 380.941406 L 189.25 383.917969 L 190.902344 385.589844 "/>
<path fill="none" stroke-width="1.701" stroke-linecap="round" stroke-linejoin="round" stroke="rgb(0%, 0%, 0%)" stroke-opacity="1" stroke-miterlimit="10" d="M 195.550781 390.089844 L 197.503906 391.878906 L 200.253906 394.277344 L 203.039062 396.542969 L 205.441406 398.4375 "/>
<path fill="none" stroke-width="1.701" stroke-linecap="round" stroke-linejoin="round" stroke="rgb(0%, 0%, 0%)" stroke-opacity="1" stroke-miterlimit="10" d="M 210.660156 402.269531 L 211.292969 402.722656 L 214.042969 404.632812 L 216.792969 406.414062 L 219.542969 408.160156 L 221.492188 409.351562 "/>
<path fill="none" stroke-width="1.701" stroke-linecap="round" stroke-linejoin="round" stroke="rgb(0%, 0%, 0%)" stroke-opacity="1" stroke-miterlimit="10" d="M 227.097656 412.585938 L 227.796875 412.984375 L 230.550781 414.441406 L 233.300781 415.894531 L 236.050781 417.253906 L 238.617188 418.492188 "/>
<path fill="none" stroke-width="1.701" stroke-linecap="round" stroke-linejoin="round" stroke="rgb(0%, 0%, 0%)" stroke-opacity="1" stroke-miterlimit="10" d="M 244.488281 421.21875 L 247.054688 422.335938 L 249.808594 423.503906 L 252.558594 424.636719 L 255.308594 425.734375 L 256.449219 426.171875 "/>
<path fill="none" stroke-width="1.701" stroke-linecap="round" stroke-linejoin="round" stroke="rgb(0%, 0%, 0%)" stroke-opacity="1" stroke-miterlimit="10" d="M 262.507812 428.445312 L 263.59375 428.84375 L 266.347656 429.8125 L 269.097656 430.753906 L 271.847656 431.691406 L 274.601562 432.597656 L 274.753906 432.644531 "/>
<path fill="none" stroke-width="1.701" stroke-linecap="round" stroke-linejoin="round" stroke="rgb(0%, 0%, 0%)" stroke-opacity="1" stroke-miterlimit="10" d="M 280.9375 434.566406 L 282.855469 435.15625 L 288.355469 436.773438 L 291.105469 437.550781 L 293.371094 438.164062 "/>
<path fill="none" stroke-width="1.701" stroke-linecap="round" stroke-linejoin="round" stroke="rgb(0%, 0%, 0%)" stroke-opacity="1" stroke-miterlimit="10" d="M 299.628906 439.820312 L 302.113281 440.460938 L 307.613281 441.820312 L 310.363281 442.46875 L 312.203125 442.898438 "/>
<path fill="none" stroke-width="1.701" stroke-linecap="round" stroke-linejoin="round" stroke="rgb(0%, 0%, 0%)" stroke-opacity="1" stroke-miterlimit="10" d="M 318.511719 444.347656 L 318.652344 444.378906 L 321.402344 444.992188 L 324.152344 445.578125 L 326.90625 446.160156 L 329.65625 446.742188 L 331.175781 447.046875 "/>
<path fill="none" stroke-width="1.701" stroke-linecap="round" stroke-linejoin="round" stroke="rgb(0%, 0%, 0%)" stroke-opacity="1" stroke-miterlimit="10" d="M 337.523438 448.316406 L 337.910156 448.390625 L 343.410156 449.429688 L 346.164062 449.945312 L 348.914062 450.429688 L 350.25 450.683594 "/>
<path fill="none" stroke-width="1.701" stroke-linecap="round" stroke-linejoin="round" stroke="rgb(0%, 0%, 0%)" stroke-opacity="1" stroke-miterlimit="10" d="M 356.628906 451.792969 L 357.167969 451.886719 L 359.917969 452.375 L 362.667969 452.828125 L 365.421875 453.28125 L 368.203125 453.699219 L 369.402344 453.898438 "/>
<path fill="none" stroke-width="1.701" stroke-linecap="round" stroke-linejoin="round" stroke="rgb(0%, 0%, 0%)" stroke-opacity="1" stroke-miterlimit="10" d="M 375.796875 454.894531 L 376.457031 454.996094 L 379.207031 455.414062 L 381.960938 455.835938 L 384.710938 456.226562 L 387.460938 456.644531 L 388.601562 456.808594 "/>
<path fill="none" stroke-width="1.701" stroke-linecap="round" stroke-linejoin="round" stroke="rgb(0%, 0%, 0%)" stroke-opacity="1" stroke-miterlimit="10" d="M 395.015625 457.679688 L 395.714844 457.777344 L 398.464844 458.167969 L 401.21875 458.523438 L 406.71875 459.234375 L 407.851562 459.382812 "/>
<path fill="none" stroke-width="1.701" stroke-linecap="round" stroke-linejoin="round" stroke="rgb(0%, 0%, 0%)" stroke-opacity="1" stroke-miterlimit="10" d="M 414.269531 460.210938 L 414.972656 460.304688 L 417.726562 460.625 L 420.476562 460.949219 L 423.257812 461.304688 L 426.011719 461.628906 L 427.125 461.761719 "/>
<path fill="none" stroke-width="1.701" stroke-linecap="round" stroke-linejoin="round" stroke="rgb(0%, 0%, 0%)" stroke-opacity="1" stroke-miterlimit="10" d="M 433.558594 462.484375 L 434.265625 462.570312 L 437.015625 462.859375 L 439.765625 463.183594 L 442.515625 463.476562 L 445.269531 463.765625 L 446.425781 463.890625 "/>
<path fill="none" stroke-width="1.701" stroke-linecap="round" stroke-linejoin="round" stroke="rgb(0%, 0%, 0%)" stroke-opacity="1" stroke-miterlimit="10" d="M 452.863281 464.570312 L 453.523438 464.640625 L 456.273438 464.929688 L 459.023438 465.191406 L 461.777344 465.480469 L 464.527344 465.742188 L 465.746094 465.871094 "/>
<path fill="none" stroke-width="1.701" stroke-linecap="round" stroke-linejoin="round" stroke="rgb(0%, 0%, 0%)" stroke-opacity="1" stroke-miterlimit="10" d="M 472.1875 466.492188 L 472.78125 466.550781 L 475.53125 466.808594 L 478.316406 467.066406 L 481.066406 467.328125 L 483.816406 467.554688 L 485.082031 467.671875 "/>
<path fill="none" stroke-width="1.701" stroke-linecap="round" stroke-linejoin="round" stroke="rgb(0%, 0%, 0%)" stroke-opacity="1" stroke-miterlimit="10" d="M 491.527344 468.253906 L 492.070312 468.296875 L 494.820312 468.554688 L 497.574219 468.78125 L 503.074219 469.234375 L 504.429688 469.347656 "/>
<path fill="none" stroke-width="1.701" stroke-linecap="round" stroke-linejoin="round" stroke="rgb(0%, 0%, 0%)" stroke-opacity="1" stroke-miterlimit="10" d="M 510.878906 469.878906 L 511.328125 469.914062 L 514.078125 470.140625 L 516.832031 470.367188 L 519.582031 470.59375 L 522.332031 470.789062 L 523.785156 470.910156 "/>
<path fill="none" stroke-width="1.701" stroke-linecap="round" stroke-linejoin="round" stroke="rgb(0%, 0%, 0%)" stroke-opacity="1" stroke-miterlimit="10" d="M 530.238281 471.414062 L 530.585938 471.4375 L 533.371094 471.632812 L 536.121094 471.859375 L 538.871094 472.050781 L 541.625 472.246094 L 543.152344 472.355469 "/>
<path fill="none" stroke-width="1.701" stroke-linecap="round" stroke-linejoin="round" stroke="rgb(0%, 0%, 0%)" stroke-opacity="1" stroke-miterlimit="10" d="M 549.605469 472.839844 L 549.878906 472.859375 L 552.628906 473.023438 L 555.378906 473.21875 L 558.128906 473.410156 L 560.882812 473.605469 L 562.523438 473.722656 "/>
<path fill="none" stroke-width="1.701" stroke-linecap="round" stroke-linejoin="round" stroke="rgb(0%, 0%, 0%)" stroke-opacity="1" stroke-miterlimit="10" d="M 568.980469 474.148438 L 569.136719 474.15625 L 571.886719 474.351562 L 574.636719 474.511719 L 577.390625 474.707031 L 580.140625 474.867188 L 581.898438 474.992188 "/>
<path fill="none" stroke-width="1.701" stroke-linecap="round" stroke-linejoin="round" stroke="rgb(0%, 0%, 0%)" stroke-opacity="1" stroke-miterlimit="10" d="M 588.363281 475.382812 L 588.425781 475.386719 L 591.175781 475.578125 L 593.929688 475.742188 L 596.679688 475.902344 L 599.429688 476.066406 L 601.285156 476.175781 "/>
<path fill="none" stroke-width="1.701" stroke-linecap="round" stroke-linejoin="round" stroke="rgb(0%, 0%, 0%)" stroke-opacity="1" stroke-miterlimit="10" d="M 607.746094 476.554688 L 610.433594 476.714844 L 613.1875 476.875 L 615.9375 477.035156 L 618.6875 477.199219 L 620.671875 477.316406 "/>
<path fill="none" stroke-width="1.701" stroke-linecap="round" stroke-linejoin="round" stroke="rgb(0%, 0%, 0%)" stroke-opacity="1" stroke-miterlimit="10" d="M 627.132812 477.664062 L 629.691406 477.8125 L 632.445312 477.941406 L 635.195312 478.105469 L 637.945312 478.265625 L 640.0625 478.367188 "/>
<path fill="none" stroke-width="1.701" stroke-linecap="round" stroke-linejoin="round" stroke="rgb(0%, 0%, 0%)" stroke-opacity="1" stroke-miterlimit="10" d="M 646.527344 478.699219 L 648.984375 478.816406 L 651.734375 478.980469 L 654.484375 479.109375 L 657.238281 479.238281 L 659.453125 479.367188 "/>
<path fill="none" stroke-width="1.701" stroke-linecap="round" stroke-linejoin="round" stroke="rgb(0%, 0%, 0%)" stroke-opacity="1" stroke-miterlimit="10" d="M 665.921875 479.679688 L 668.242188 479.789062 L 670.992188 479.949219 L 673.742188 480.078125 L 676.496094 480.207031 L 678.851562 480.320312 "/>
<path fill="none" stroke-width="1.701" stroke-linecap="round" stroke-linejoin="round" stroke="rgb(0%, 0%, 0%)" stroke-opacity="1" stroke-miterlimit="10" d="M 685.316406 480.625 L 687.5 480.726562 L 693 480.984375 L 695.753906 481.113281 L 698.25 481.230469 "/>
<path fill="none" stroke-width="1.701" stroke-linecap="round" stroke-linejoin="round" stroke="rgb(0%, 0%, 0%)" stroke-opacity="1" stroke-miterlimit="10" d="M 704.71875 481.503906 L 706.789062 481.601562 L 709.542969 481.730469 L 712.292969 481.859375 L 715.042969 481.957031 L 717.652344 482.078125 "/>
<path fill="none" stroke-width="1.701" stroke-linecap="round" stroke-linejoin="round" stroke="rgb(0%, 0%, 0%)" stroke-opacity="1" stroke-miterlimit="10" d="M 724.117188 482.351562 L 726.046875 482.441406 L 728.800781 482.539062 L 731.550781 482.667969 L 734.300781 482.765625 L 737.050781 482.894531 L 737.054688 482.894531 "/>
<path fill="none" stroke-width="1.701" stroke-linecap="round" stroke-linejoin="round" stroke="rgb(0%, 0%, 0%)" stroke-opacity="1" stroke-miterlimit="10" d="M 743.519531 483.15625 L 745.304688 483.21875 L 748.058594 483.347656 L 750.808594 483.445312 L 753.59375 483.574219 L 756.34375 483.671875 L 756.457031 483.675781 "/>
<path fill="none" stroke-width="1.701" stroke-linecap="round" stroke-linejoin="round" stroke="rgb(0%, 0%, 0%)" stroke-opacity="1" stroke-miterlimit="10" d="M 762.925781 483.9375 L 764.597656 483.996094 L 770.097656 484.191406 L 772.851562 484.320312 L 775.601562 484.417969 L 775.863281 484.425781 "/>
<path fill="none" stroke-width="1.701" stroke-linecap="round" stroke-linejoin="round" stroke="rgb(0%, 0%, 0%)" stroke-opacity="1" stroke-miterlimit="10" d="M 782.332031 484.652344 L 783.855469 484.707031 L 786.605469 484.804688 L 789.355469 484.933594 L 792.109375 485.03125 L 794.859375 485.128906 L 795.269531 485.144531 "/>
<path fill="none" stroke-width="1.701" stroke-linecap="round" stroke-linejoin="round" stroke="rgb(0%, 0%, 0%)" stroke-opacity="1" stroke-miterlimit="10" d="M 801.738281 485.371094 L 803.113281 485.417969 L 805.863281 485.515625 L 808.648438 485.613281 L 814.148438 485.808594 L 814.675781 485.828125 "/>
<path fill="none" stroke-width="1.701" stroke-linecap="round" stroke-linejoin="round" stroke="rgb(0%, 0%, 0%)" stroke-opacity="1" stroke-miterlimit="10" d="M 821.144531 486.039062 L 822.402344 486.066406 L 825.152344 486.164062 L 827.90625 486.261719 L 833.40625 486.457031 L 834.085938 486.480469 "/>
<path fill="none" stroke-width="1.701" stroke-linecap="round" stroke-linejoin="round" stroke="rgb(0%, 0%, 0%)" stroke-opacity="1" stroke-miterlimit="10" d="M 840.554688 486.675781 L 841.660156 486.714844 L 844.414062 486.8125 L 847.164062 486.910156 L 849.914062 486.972656 L 852.664062 487.070312 L 853.496094 487.097656 "/>
<path fill="none" stroke-width="1.701" stroke-linecap="round" stroke-linejoin="round" stroke="rgb(0%, 0%, 0%)" stroke-opacity="1" stroke-miterlimit="10" d="M 859.964844 487.308594 L 860.917969 487.328125 L 863.703125 487.425781 L 866.453125 487.523438 L 869.203125 487.589844 L 871.957031 487.683594 L 872.90625 487.707031 "/>
<path fill="none" stroke-width="1.701" stroke-linecap="round" stroke-linejoin="round" stroke="rgb(0%, 0%, 0%)" stroke-opacity="1" stroke-miterlimit="10" d="M 879.375 487.914062 L 880.210938 487.945312 L 882.960938 488.007812 L 885.710938 488.105469 L 888.464844 488.171875 L 891.214844 488.269531 L 892.316406 488.292969 "/>
<path fill="none" stroke-width="1.701" stroke-linecap="round" stroke-linejoin="round" stroke="rgb(0%, 0%, 0%)" stroke-opacity="1" stroke-miterlimit="10" d="M 898.785156 488.476562 L 899.46875 488.496094 L 902.21875 488.589844 L 904.96875 488.65625 L 907.722656 488.722656 L 910.472656 488.816406 L 911.726562 488.847656 "/>
<path fill="none" stroke-width="1.701" stroke-linecap="round" stroke-linejoin="round" stroke="rgb(0%, 0%, 0%)" stroke-opacity="1" stroke-miterlimit="10" d="M 918.199219 489.03125 L 918.757812 489.042969 L 921.507812 489.109375 L 924.261719 489.207031 L 927.011719 489.269531 L 929.761719 489.335938 L 931.140625 489.382812 "/>
<path fill="none" stroke-width="1.701" stroke-linecap="round" stroke-linejoin="round" stroke="rgb(0%, 0%, 0%)" stroke-opacity="1" stroke-miterlimit="10" d="M 937.609375 489.554688 L 938.015625 489.5625 L 940.765625 489.660156 L 943.519531 489.722656 "/>
<g fill="rgb(0%, 0%, 0%)" fill-opacity="1">
<use xlink:href="#glyph-0-4" x="833.40625" y="364.329102"/>
<use xlink:href="#glyph-0-5" x="845.40625" y="364.329102"/>
<use xlink:href="#glyph-0-6" x="851.40625" y="364.329102"/>
<use xlink:href="#glyph-0-5" x="864.40625" y="364.329102"/>
<use xlink:href="#glyph-0-0" x="870.40625" y="364.329102"/>
<use xlink:href="#glyph-0-7" x="882.40625" y="364.329102"/>
<use xlink:href="#glyph-0-0" x="888.40625" y="364.329102"/>
</g>
<g fill="rgb(0%, 0%, 0%)" fill-opacity="1">
<use xlink:href="#glyph-0-4" x="833.40625" y="287.879883"/>
<use xlink:href="#glyph-0-5" x="845.40625" y="287.879883"/>
<use xlink:href="#glyph-0-6" x="851.40625" y="287.879883"/>
<use xlink:href="#glyph-0-5" x="864.40625" y="287.879883"/>
<use xlink:href="#glyph-0-1" x="870.40625" y="287.879883"/>
<use xlink:href="#glyph-0-7" x="882.40625" y="287.879883"/>
<use xlink:href="#glyph-0-2" x="888.40625" y="287.879883"/>
</g>
<g fill="rgb(0%, 0%, 0%)" fill-opacity="1">
<use xlink:href="#glyph-0-4" x="833.40625" y="196.118164"/>
<use xlink:href="#glyph-0-5" x="845.40625" y="196.118164"/>
<use xlink:href="#glyph-0-6" x="851.40625" y="196.118164"/>
<use xlink:href="#glyph-0-5" x="864.40625" y="196.118164"/>
<use xlink:href="#glyph-0-1" x="870.40625" y="196.118164"/>
<use xlink:href="#glyph-0-7" x="882.40625" y="196.118164"/>
<use xlink:href="#glyph-0-8" x="888.40625" y="196.118164"/>
</g>
<g fill="rgb(0%, 0%, 0%)" fill-opacity="1">
<use xlink:href="#glyph-0-4" x="833.40625" y="440.80957"/>
<use xlink:href="#glyph-0-5" x="845.40625" y="440.80957"/>
<use xlink:href="#glyph-0-6" x="851.40625" y="440.80957"/>
<use xlink:href="#glyph-0-5" x="864.40625" y="440.80957"/>
<use xlink:href="#glyph-0-0" x="870.40625" y="440.80957"/>
<use xlink:href="#glyph-0-7" x="882.40625" y="440.80957"/>
<use xlink:href="#glyph-0-9" x="888.40625" y="440.80957"/>
</g>
<g fill="rgb(0%, 0%, 0%)" fill-opacity="1">
<use xlink:href="#glyph-0-4" x="833.40625" y="517.293945"/>
<use xlink:href="#glyph-0-5" x="845.40625" y="517.293945"/>
<use xlink:href="#glyph-0-6" x="851.40625" y="517.293945"/>
<use xlink:href="#glyph-0-5" x="864.40625" y="517.293945"/>
<use xlink:href="#glyph-0-0" x="870.40625" y="517.293945"/>
<use xlink:href="#glyph-0-7" x="882.40625" y="517.293945"/>
<use xlink:href="#glyph-0-8" x="888.40625" y="517.293945"/>
</g>
</svg>
